<svg width="22" height="22" viewBox="0 0 22 22" fill="none" xmlns="http://www.w3.org/2000/svg">
<path d="M13.8164 4.12447C14.3358 3.57646 14.719 2.97624 14.9664 2.32356C15.2054 1.67088 15.3249 1.07935 15.3249 0.548284C15.3249 0.513722 15.3228 0.469721 15.3187 0.41774C15.3144 0.365759 15.3126 0.322508 15.3126 0.287196C15.3043 0.261088 15.294 0.213215 15.2816 0.143341C15.2693 0.0739814 15.259 0.0261088 15.2507 0C13.7999 0.356793 12.7697 1.00078 12.1598 1.93193C11.5415 2.87157 11.22 3.98982 11.1953 5.28645C11.7474 5.23399 12.176 5.16053 12.4813 5.06478C12.9264 4.90769 13.3713 4.59463 13.8164 4.12447Z" fill="white"/>
<path d="M18.0197 14.2144C17.4509 13.3534 17.1665 12.3831 17.1665 11.3035C17.1665 10.3204 17.4342 9.4199 17.9702 8.60164C18.2587 8.15807 18.7286 7.64462 19.3798 7.0613C18.9512 6.50461 18.5225 6.06973 18.0939 5.75595C17.319 5.19099 16.4411 4.90747 15.4604 4.90747C14.8751 4.90747 14.1621 5.05591 13.3213 5.35156C12.5134 5.64768 11.924 5.79513 11.5533 5.79513C11.2731 5.79513 10.7043 5.66458 9.84696 5.40354C8.98144 5.14245 8.25215 5.01191 7.6586 5.01191C6.24077 5.01191 5.07024 5.63848 4.14722 6.89185C3.21574 8.16241 2.75 9.78949 2.75 11.7734C2.75 13.8792 3.35586 16.0676 4.56765 18.3391C5.79568 20.5928 7.03624 21.7195 8.28923 21.7195C8.70962 21.7195 9.25344 21.5716 9.92115 21.276C10.5889 20.9888 11.1739 20.8452 11.6767 20.8452C12.2125 20.8452 12.8347 20.9845 13.5438 21.2627C14.2937 21.5412 14.8708 21.6802 15.2747 21.6802C16.3296 21.6802 17.3888 20.8275 18.4522 19.1221C19.1446 18.0346 19.6516 16.9465 19.9731 15.859C19.2395 15.6243 18.5885 15.076 18.0197 14.2144Z" fill="white"/>
</svg>
