<svg width="534" height="534" viewBox="0 0 534 534" fill="none" xmlns="http://www.w3.org/2000/svg">
<path d="M267.001 115.952L254.842 0.488039L279.16 0.488037L267.001 115.952Z" fill="#DCAC9B"/>
<path d="M267.001 418.048L254.842 533.512H279.16L267.001 418.048Z" fill="#DCAC9B"/>
<path d="M115.953 267L0.488284 279.158L0.488281 254.841L115.953 267Z" fill="#DCAC9B"/>
<path d="M418.048 267L533.512 279.158V254.841L418.048 267Z" fill="#DCAC9B"/>
<path d="M227.908 412.901L209.768 527.578L186.279 521.284L227.908 412.901Z" fill="#DCAC9B"/>
<path d="M306.096 121.099L347.725 12.7159L324.236 6.42207L306.096 121.099Z" fill="#DCAC9B"/>
<path d="M306.096 412.901L347.725 521.284L324.236 527.578L306.096 412.901Z" fill="#DCAC9B"/>
<path d="M227.907 121.099L209.767 6.42217L186.279 12.716L227.907 121.099Z" fill="#DCAC9B"/>
<path d="M286.716 416.755L313.842 529.644L289.733 532.819L286.716 416.755Z" fill="#DCAC9B"/>
<path d="M247.284 117.244L244.268 1.18053L220.159 4.35459L247.284 117.244Z" fill="#DCAC9B"/>
<path d="M324.804 406.549L380.223 508.571L357.757 517.877L324.804 406.549Z" fill="#DCAC9B"/>
<path d="M209.196 127.449L176.243 16.1212L153.776 25.427L209.196 127.449Z" fill="#DCAC9B"/>
<path d="M386.838 358.951L485.844 419.595L471.04 438.888L386.838 358.951Z" fill="#DCAC9B"/>
<path d="M147.169 175.047L62.9664 95.1111L48.1629 114.403L147.169 175.047Z" fill="#DCAC9B"/>
<path d="M416.761 286.716L532.824 289.732L529.65 313.842L416.761 286.716Z" fill="#DCAC9B"/>
<path d="M117.251 247.285L4.36147 220.159L1.18741 244.269L117.251 247.285Z" fill="#DCAC9B"/>
<path d="M406.555 209.198L508.577 153.779L517.883 176.245L406.555 209.198Z" fill="#DCAC9B"/>
<path d="M127.456 324.804L16.1278 357.757L25.4337 380.224L127.456 324.804Z" fill="#DCAC9B"/>
<path d="M386.839 175.05L471.041 95.1134L485.844 114.406L386.839 175.05Z" fill="#DCAC9B"/>
<path d="M147.169 358.953L48.1636 419.597L62.9671 438.889L147.169 358.953Z" fill="#DCAC9B"/>
<path d="M342.524 397.81L410.786 491.726L389.727 503.885L342.524 397.81Z" fill="#DCAC9B"/>
<path d="M191.477 136.188L144.274 30.1135L123.215 42.2722L191.477 136.188Z" fill="#DCAC9B"/>
<path d="M373.808 373.806L464.051 446.854L446.856 464.049L373.808 373.806Z" fill="#DCAC9B"/>
<path d="M160.194 160.193L87.1464 69.9496L69.9513 87.1446L160.194 160.193Z" fill="#DCAC9B"/>
<path d="M358.952 386.835L438.889 471.037L419.596 485.84L358.952 386.835Z" fill="#DCAC9B"/>
<path d="M175.048 147.166L114.404 48.1606L95.1119 62.9641L175.048 147.166Z" fill="#DCAC9B"/>
<path d="M397.812 342.523L503.886 389.725L491.728 410.785L397.812 342.523Z" fill="#DCAC9B"/>
<path d="M136.189 191.475L42.273 123.213L30.1142 144.273L136.189 191.475Z" fill="#DCAC9B"/>
<path d="M412.901 306.093L527.578 324.233L521.284 347.722L412.901 306.093Z" fill="#DCAC9B"/>
<path d="M121.099 227.906L12.7161 186.277L6.4223 209.766L121.099 227.906Z" fill="#DCAC9B"/>
<path d="M406.553 324.805L517.881 357.758L508.575 380.224L406.553 324.805Z" fill="#DCAC9B"/>
<path d="M127.454 209.198L25.4317 153.778L16.1258 176.245L127.454 209.198Z" fill="#DCAC9B"/>
<path d="M397.812 191.476L491.728 123.214L503.887 144.273L397.812 191.476Z" fill="#DCAC9B"/>
<path d="M136.189 342.523L30.1146 389.726L42.2734 410.785L136.189 342.523Z" fill="#DCAC9B"/>
<path d="M373.807 160.193L446.855 69.9497L464.05 87.1447L373.807 160.193Z" fill="#DCAC9B"/>
<path d="M160.193 373.806L69.9503 446.854L87.1453 464.049L160.193 373.806Z" fill="#DCAC9B"/>
<path d="M286.715 117.246L289.731 1.18254L313.841 4.3566L286.715 117.246Z" fill="#DCAC9B"/>
<path d="M247.283 416.757L220.157 529.647L244.267 532.821L247.283 416.757Z" fill="#DCAC9B"/>
<path d="M358.954 147.167L419.599 48.1613L438.891 62.9649L358.954 147.167Z" fill="#DCAC9B"/>
<path d="M175.051 386.835L95.1142 471.038L114.406 485.841L175.051 386.835Z" fill="#DCAC9B"/>
<path d="M342.525 136.188L389.728 30.1137L410.787 42.2724L342.525 136.188Z" fill="#DCAC9B"/>
<path d="M191.478 397.811L123.216 491.726L144.275 503.885L191.478 397.811Z" fill="#DCAC9B"/>
<path d="M342.525 136.188L389.728 30.1137L410.787 42.2724L342.525 136.188Z" fill="#DCAC9B"/>
<path d="M191.478 397.811L123.216 491.726L144.275 503.885L191.478 397.811Z" fill="#DCAC9B"/>
<path d="M324.803 127.448L357.756 16.1199L380.222 25.4258L324.803 127.448Z" fill="#DCAC9B"/>
<path d="M209.197 406.547L153.777 508.569L176.244 517.875L209.197 406.547Z" fill="#DCAC9B"/>
<path d="M412.902 227.905L521.285 186.277L527.579 209.765L412.902 227.905Z" fill="#DCAC9B"/>
<path d="M121.1 306.094L6.42336 324.234L12.7172 347.722L121.1 306.094Z" fill="#DCAC9B"/>
<path d="M416.753 247.284L529.643 220.158L532.817 244.268L416.753 247.284Z" fill="#DCAC9B"/>
<path d="M117.241 286.715L1.17795 289.731L4.35201 313.841L117.241 286.715Z" fill="#DCAC9B"/>
</svg>
