<svg width="20" height="22" viewBox="0 0 20 22" fill="none" xmlns="http://www.w3.org/2000/svg">
<path fill-rule="evenodd" clip-rule="evenodd" d="M11.2488 11.9691L14.4176 15.138L3.22644 21.3553C2.72321 21.6349 2.1765 21.6717 1.69077 21.5272L11.2488 11.9691ZM11.2488 9.93148L1.76858 0.451276C2.2344 0.33281 2.74991 0.379861 3.22644 0.644604L14.3538 6.82647L11.2488 9.93148ZM12.2676 10.9503L15.6637 7.55421L18.7173 9.25061C20.0897 10.0131 20.0897 11.9868 18.7173 12.7493L15.7275 14.4102L12.2676 10.9503ZM10.23 10.9503L0.538886 20.6414C0.3592 20.345 0.253418 19.9936 0.253418 19.606L0.25342 2.39394C0.25342 1.97945 0.374377 1.60638 0.577314 1.29767L10.23 10.9503Z" fill="white"/>
</svg>
