<?xml version="1.0" standalone="no"?>
<!DOCTYPE svg PUBLIC "-//W3C//DTD SVG 1.1//EN" "http://www.w3.org/Graphics/SVG/1.1/DTD/svg11.dtd" >
<svg>
<metadata>
Created by FontForge 20090914 at Mon Aug 16 11:09:17 2021
 By www-data
Copyright &#194;&#169; 2009, 2013 Cadson Demak Co. Ltd., Thailand. All Rights Reserved.
</metadata>
<defs>
<font id="SukhumvitSet-Light" horiz-adv-x="0" >
  <font-face 
    font-family="Sukhumvit Set"
    font-weight="300"
    font-stretch="normal"
    units-per-em="1000"
    panose-1="2 0 5 6 0 0 0 2 0 4"
    ascent="800"
    descent="-200"
    x-height="483"
    cap-height="674"
    bbox="-582.001 -422 1118 1025"
    underline-thickness="50"
    underline-position="-125"
    unicode-range="U+000D-U+FB02"
  />
<missing-glyph horiz-adv-x="515" 
d="M63 0v673h392v-673h-392zM115 52h287v570h-287v-570z" />
    <glyph glyph-name="uni0E5A" unicode="&#xe2f;&#xe2f;" horiz-adv-x="727" 
d="M388 0l-0.00292969 424.998l-8 2c-6.66699 -14.667 -16 -28 -28 -40s-25.833 -22.333 -41.5 -31s-32.667 -15.5 -51 -20.5s-37.166 -7.5 -56.499 -7.5c-30 0 -55.333 4.83301 -76 14.5s-37.5 23.167 -50.5 40.5s-22.333 38 -28 62s-8.5 50.333 -8.5 79v35h66v-36
c0 -48 9 -83.833 27 -107.5s46.667 -35.5 86 -35.5c22 0 43.333 4.83301 64 14.5s39.167 22.334 55.5 38.001s29.5 33.167 39.5 52.5s15 39 15 59v15h63v-182c18 6.66699 34.833 16.334 50.5 29.001s29.334 26.667 41.001 42s20.834 31.333 27.501 48s10 32.667 10 48v15h65
v-559h-69v425l-7 2c-10 -21.333 -25.167 -41 -45.5 -59s-44.5 -31.667 -72.5 -41v-327h-68z" />
    <glyph glyph-name="uni0E4F.liga" unicode="&#xe4f;&#x22;" horiz-adv-x="546" 
d="M275 26c-29.333 0 -57 5.5 -83 16.5s-48.5 26.167 -67.5 45.5s-34 42 -45 68s-16.5 53.667 -16.5 83s5.5 56.833 16.5 82.5s26 48 45 67s41.5 34 67.5 45s53.667 16.5 83 16.5s56.833 -5.5 82.5 -16.5s48 -26 67 -45s34 -41.333 45 -67s16.5 -53.167 16.5 -82.5
s-5.5 -57 -16.5 -83s-26 -48.667 -45 -68s-41.333 -34.5 -67 -45.5s-53.167 -16.5 -82.5 -16.5zM275 51c26 0 50.333 4.83301 73 14.5s42.5 23 59.5 40s30.5 37 40.5 60s15 47.5 15 73.5s-5 50.333 -15 73s-23.5 42.5 -40.5 59.5s-36.833 30.5 -59.5 40.5s-47 15 -73 15
s-50.5 -5 -73.5 -15s-43 -23.5 -60 -40.5s-30.5 -36.833 -40.5 -59.5s-15 -47 -15 -73s5 -50.5 15 -73.5s23.5 -43 40.5 -60s37 -30.333 60 -40s47.5 -14.5 73.5 -14.5zM275 120c-16.667 0 -32.333 3.16699 -47 9.5s-27.334 14.833 -38.001 25.5s-19.167 23.167 -25.5 37.5
s-9.5 29.5 -9.5 45.5c0 16.667 3.16699 32.334 9.5 47.001s14.833 27.334 25.5 38.001s23.334 19 38.001 25s30 9 46 9c16.667 0 32.167 -3 46.5 -9s26.833 -14.333 37.5 -25s19.167 -23.167 25.5 -37.5s9.5 -29.833 9.5 -46.5s-3.16699 -32.334 -9.5 -47.001
s-14.833 -27.334 -25.5 -38.001s-23.167 -19 -37.5 -25s-29.5 -9 -45.5 -9zM275.001 160c21.333 0 39.5 7.49805 54.5 22.498s22.5 33.833 22.5 56.5c0 10 -2 19.667 -6 29s-9.5 17.5 -16.5 24.5s-15.333 12.667 -25 17s-19.834 6.5 -30.501 6.5
c-21.333 0 -39.666 -7.66699 -54.999 -23s-23 -33.666 -23 -54.999s7.66699 -39.666 23 -54.999s34 -23 56 -23zM229.001 496.998h-34l-9 190h52zM357.001 496.998h-35l-9 190h53z" />
    <glyph glyph-name="uni0E24.liga" unicode="&#xe24;&#xe32;" horiz-adv-x="949" 
d="M149 88c0 -21.333 10.001 -31.9941 30.001 -31.9941h51v-56h-70c-24.667 0 -44.167 7.33301 -58.5 22s-21.5 34.667 -21.5 60v151c0 20 5.16699 39.167 15.5 57.5s25.5 32.166 45.5 41.499c-14 11.333 -28.667 23.833 -44 37.5s-30 26.167 -44 37.5
c6 20.667 16.333 40.667 31 60s32.834 36.5 54.501 51.5s46 27 73 36s55.833 13.5 86.5 13.5c40 0 74.667 -6.33301 104 -19s54 -30.334 74 -53.001c23.333 19.333 50.833 36.166 82.5 50.499s66.5 21.5 104.5 21.5c34 0 64.167 -5.33301 90.5 -16
s48.666 -25.5 66.999 -44.5s32.166 -41.667 41.499 -68s14 -55.166 14 -86.499v-555h-69v555c0 51.333 -12.833 90.333 -38.5 117s-61.834 40 -108.501 40c-32.667 0 -62 -5.83301 -88 -17.5s-48 -26.834 -66 -45.501c6.66699 -14.667 11.334 -29.834 14.001 -45.501
s4 -31.834 4 -48.501v-555h-68v555c0 51.333 -13.5 90.333 -40.5 117s-66.167 40 -117.5 40c-20 0 -39.167 -2.5 -57.5 -7.5s-35 -12 -50 -21s-28.167 -19.667 -39.5 -32s-20.333 -25.833 -27 -40.5c13.333 -11.333 26.5 -23.5 39.5 -36.5s26.167 -25.167 39.5 -36.5
c-36 -16.667 -54 -47.334 -54 -92.001v-156z" />
    <glyph glyph-name="uni0E26.liga" unicode="&#xe26;&#xe32;" horiz-adv-x="953" 
d="M169 81c0 -25.333 -6.99609 -45.1641 -20.9961 -59.4971s-33.667 -21.5 -59 -21.5h-55v56h37c11.333 0 19.166 2.66699 23.499 8s6.5 13 6.5 23v141c0 19.333 5.16699 38.166 15.5 56.499s25.166 32.166 44.499 41.499l-50 38.5l-50 39.5
c6 20.667 16.333 40.834 31 60.501s32.667 37.167 54 52.5s45.666 27.666 72.999 36.999s56.666 14 87.999 14c39.333 0 73.5 -6.16699 102.5 -18.5s53.167 -29.166 72.5 -50.499c24 18 51.333 34 82 48s65.334 21 104.001 21c34 0 64.167 -5.33301 90.5 -16
s48.5 -25.5 66.5 -44.5s31.667 -41.667 41 -68s14 -55.166 14 -86.499v-555h-69v555c0 51.333 -12.833 90.333 -38.5 117s-61.834 40 -108.501 40c-32 0 -60.833 -5.83301 -86.5 -17.5s-47.5 -26.5 -65.5 -44.5c7.33301 -14.667 12.5 -29.834 15.5 -45.501
s4.5 -32.167 4.5 -49.5v-555h-69v555c0 51.333 -13.333 90.333 -40 117s-65.334 40 -116.001 40c-41.333 0 -77.666 -9.83301 -108.999 -29.5s-53 -43.834 -65 -72.501l45 -39l46 -39c-36.667 -18.667 -55 -49.334 -55 -92.001v-157z" />
    <glyph glyph-name="fi" unicode="fi" horiz-adv-x="535" 
d="M457 0l-68.001 -0.00195312v430h-225v-430h-65v430h-79v53h79v18c0 27.333 3.5 52.333 10.5 75s17.833 42.167 32.5 58.5s33.167 29 55.5 38s48.5 13.5 78.5 13.5c23.333 0 45.333 -2.5 66 -7.5s38.334 -11.167 53.001 -18.5c-2 -7.33301 -4.66699 -15.166 -8 -23.499
s-6 -16.166 -8 -23.499c-13.333 6 -28.833 10.833 -46.5 14.5s-35.167 5.5 -52.5 5.5c-44 0 -74.333 -12.167 -91 -36.5s-25 -56.5 -25 -96.5v-17h293v-483z" />
    <glyph glyph-name="fl" unicode="fl" horiz-adv-x="568" 
d="M307 483l-0.00195312 -54.001h-144v-429h-65v429h-78v54h78v18c0 26 4.5 50.333 13.5 73s22.5 42.167 40.5 58.5s40.333 29.333 67 39s57.667 14.5 93 14.5c31.333 0 61.833 -3.16699 91.5 -9.5s58.5 -15.166 86.5 -26.499v-650h-68v617
c-17.333 5.33301 -34.166 9.33301 -50.499 12s-36.166 4 -59.499 4c-50 0 -87.333 -12.333 -112 -37s-37 -56.667 -37 -96v-17h144z" />
    <glyph glyph-name=".notdef" horiz-adv-x="515" 
d="M63 0v673h392v-673h-392zM115 52h287v570h-287v-570z" />
    <glyph glyph-name=".null" 
 />
    <glyph glyph-name=".null" 
 />
    <glyph glyph-name="nonmarkingreturn" unicode="&#xd;" horiz-adv-x="195" 
 />
    <glyph glyph-name="space" unicode=" " horiz-adv-x="258" 
 />
    <glyph glyph-name="exclam" unicode="!" horiz-adv-x="248" 
d="M160 523c-1.33301 -56 -3.16992 -111.332 -5.50293 -165.999s-4.16602 -110.334 -5.49902 -167.001h-48c-1.33301 56.667 -3.16602 112.167 -5.49902 166.5s-4.16602 109.833 -5.49902 166.5v151h70v-151zM71.9961 43.001c0 14 4.5 26 13.5 36s22.167 15 39.5 15
c16.667 0 29.5 -5 38.5 -15s13.5 -22 13.5 -36c0 -15.333 -4.5 -27.833 -13.5 -37.5s-21.833 -14.5 -38.5 -14.5c-17.333 0 -30.5 4.83301 -39.5 14.5s-13.5 22.167 -13.5 37.5z" />
    <glyph glyph-name="quotedbl" unicode="&#x22;" horiz-adv-x="329" 
d="M114 457h-40l-10 231h61zM257 457h-39.001c-1.33301 39.333 -3.16602 78 -5.49902 116s-4.5 76.333 -6.5 115h61z" />
    <glyph glyph-name="numbersign" unicode="#" horiz-adv-x="566" 
d="M72 444h104.999l45 206h56l-45 -206h155l44 206h56l-44 -206h95v-46h-105l-32 -147h95v-47h-104l-22.5 -101.5l-22.5 -102.5h-56l22 102l22 102h-154l-22 -101.5l-22 -102.5h-57l22.5 102l22.5 102h-95v47h105c2 11.333 4.33301 23.333 7 36s5.33398 24.667 8.00098 36
l16 75h-95v46zM190.999 251h155l33 147h-156z" />
    <glyph glyph-name="dollar" unicode="$" horiz-adv-x="566" 
d="M256 -9c-42.667 0 -77.998 3.16602 -105.998 9.49902s-52.667 14.833 -74 25.5l17 54c19.333 -8.66699 42.666 -16 69.999 -22s59.666 -9 96.999 -9v256c-20.667 6.66699 -41.834 14.5 -63.501 23.5s-41.5 20.5 -59.5 34.5s-32.667 31.167 -44 51.5s-17 45.5 -17 75.5
c0 44 14.833 81.5 44.5 112.5s76.167 49.167 139.5 54.5v94h44v-92c58 -2.66699 107.667 -14.667 149 -36l-17 -51c-17.333 7.33301 -37.666 13.5 -60.999 18.5s-47 8.16699 -71 9.5v-245c22 -7.33301 44 -15.666 66 -24.999s41.833 -21.166 59.5 -35.499
s32 -31.666 43 -51.999s16.5 -44.833 16.5 -73.5c0 -52.667 -17 -93.334 -51 -122.001s-78.667 -46.334 -134 -53.001v-95h-44v88zM427.002 170.999c0 17.333 -3.33398 32.333 -10.001 45s-15.5 23.5 -26.5 32.5s-24 16.833 -39 23.5s-30.833 13 -47.5 19v-239
c36.667 6 66.334 18.333 89.001 37s34 46 34 82zM137.001 490.999c0 -17.333 3.16797 -32.165 9.50098 -44.498s15.166 -23 26.499 -32s24.333 -17 39 -24s30.667 -13.833 48 -20.5v227c-42 -4.66699 -73 -16.334 -93 -35.001s-30 -42.334 -30 -71.001z" />
    <glyph glyph-name="percent" unicode="%" horiz-adv-x="768" 
d="M540 660h57l-367 -660h-55zM100 486c0 -17.333 1.5 -33.833 4.5 -49.5s8 -29.667 15 -42s15.667 -22.166 26 -29.499s23.166 -11 38.499 -11s28.333 3.66699 39 11s19.5 17.166 26.5 29.499s12 26.333 15 42s4.5 31.834 4.5 48.501s-1.5 33 -4.5 49s-8 30.167 -15 42.5
s-15.833 22.166 -26.5 29.499s-23.667 11 -39 11s-28.166 -3.83301 -38.499 -11.5s-19 -17.667 -26 -30s-12 -26.333 -15 -42s-4.5 -31.5 -4.5 -47.5zM46 486c0 22.667 3 44.5 9 65.5s15 39.5 27 55.5s26.5 28.667 43.5 38s36.5 14 58.5 14s41.667 -4.66699 59 -14
s31.833 -22 43.5 -38s20.5 -34.5 26.5 -55.5s9 -42.833 9 -65.5c0 -23.333 -3 -45.333 -9 -66s-14.833 -39 -26.5 -55s-26.167 -28.667 -43.5 -38s-37 -14 -59 -14s-41.5 4.66699 -58.5 14s-31.5 22 -43.5 38s-21 34.333 -27 55s-9 42.667 -9 66zM504 164
c0 -17.333 1.5 -33.833 4.5 -49.5s8 -29.667 15 -42s15.667 -22.166 26 -29.499s23.166 -11 38.499 -11c14.667 0 27.5 3.66699 38.5 11s19.833 17.166 26.5 29.499s11.667 26.333 15 42s5 31.834 5 48.501s-1.66699 33 -5 49s-8.33301 30.167 -15 42.5
s-15.5 22.166 -26.5 29.499s-23.833 11 -38.5 11c-15.333 0 -28.166 -3.66699 -38.499 -11s-19 -17.166 -26 -29.499s-12 -26.333 -15 -42s-4.5 -31.834 -4.5 -48.501zM450 164c0 22.667 3 44.5 9 65.5s15 39.5 27 55.5s26.5 28.667 43.5 38s36.5 14 58.5 14
s41.667 -4.66699 59 -14s31.833 -22 43.5 -38s20.5 -34.5 26.5 -55.5s9 -42.833 9 -65.5c0 -23.333 -3 -45.333 -9 -66s-14.833 -39 -26.5 -55s-26.167 -28.667 -43.5 -38s-37 -14 -59 -14s-41.5 4.66699 -58.5 14s-31.5 22 -43.5 38s-21 34.333 -27 55s-9 42.667 -9 66z
" />
    <glyph glyph-name="ampersand" unicode="&#x26;" horiz-adv-x="630" 
d="M478 50c-52 -39.333 -114.999 -58.9971 -188.999 -58.9971c-38 0 -70.833 4.83301 -98.5 14.5s-50.667 23 -69 40s-31.833 36.667 -40.5 59s-13 46.166 -13 71.499c0 24 3.83301 45.667 11.5 65s17.667 37 30 53s26.666 30.667 42.999 44s33.166 25.666 50.499 36.999
l-13 19l-8 11c-16.667 22.667 -31.167 44.5 -43.5 65.5s-18.5 45.167 -18.5 72.5c0 41.333 14 75 42 101s67.667 39 119 39c27.333 0 50.833 -3.66699 70.5 -11s35.834 -17.5 48.501 -30.5s22 -28 28 -45s9 -35.167 9 -54.5c0 -20 -4.16699 -38.167 -12.5 -54.5
s-19.333 -31.5 -33 -45.5s-29.5 -27.5 -47.5 -40.5s-37 -25.833 -57 -38.5l189 -225c14.667 23.333 25.5 48.333 32.5 75s10.5 54 10.5 82v45h67v-45c0 -40.667 -5.83301 -78.334 -17.5 -113.001s-28.5 -66 -50.5 -94l73 -88h-72zM293.001 53.0029
c28 0 54.167 3.66797 78.5 11.001s45.833 18.666 64.5 33.999l-194 234c-29.333 -21.333 -53.666 -44 -72.999 -68s-29 -52.667 -29 -86c0 -38.667 13.167 -69.167 39.5 -91.5s64.166 -33.5 113.499 -33.5zM185.001 541.004c0 -40.667 18.666 -81 55.999 -121v1l12 -15
c16 10 31.333 20.167 46 30.5s27.334 21 38.001 32s19.167 22.667 25.5 35s9.5 25.5 9.5 39.5c0 25.333 -7.33301 46 -22 62s-38 24 -70 24c-26.667 0 -49.167 -7.16699 -67.5 -21.5s-27.5 -36.5 -27.5 -66.5z" />
    <glyph glyph-name="quotesingle" unicode="'" horiz-adv-x="188" 
d="M115 457h-41l-10 231h61z" />
    <glyph glyph-name="parenleft" unicode="(" horiz-adv-x="297" 
d="M76 282c0 52.667 5.16699 100.831 15.5 144.498s24.333 82.5 42 116.5s38 63.667 61 89s47.5 46.333 73.5 63l16 -27c-23.333 -17.333 -44.166 -39.166 -62.499 -65.499s-33.833 -56.166 -46.5 -89.499s-22.167 -69.666 -28.5 -108.999s-9.5 -80 -9.5 -122
s3.16699 -82.667 9.5 -122s15.833 -75.666 28.5 -108.999s28.167 -63.333 46.5 -90s39.166 -48.334 62.499 -65.001l-16 -27c-26 16.667 -50.5 37.667 -73.5 63s-43.333 55 -61 89s-31.667 72.667 -42 116s-15.5 91.666 -15.5 144.999z" />
    <glyph glyph-name="parenright" unicode=")" horiz-adv-x="297" 
d="M223 282c0 -53.333 -5.16699 -101.663 -15.5 -144.996s-24.333 -82 -42 -116s-38 -63.667 -61 -89s-47.5 -46.333 -73.5 -63l-17 27c24 16.667 45 38.334 63 65.001s33.333 56.667 46 90s22.167 69.666 28.5 108.999s9.5 80 9.5 122s-3.16699 82.667 -9.5 122
s-15.833 75.666 -28.5 108.999s-28 63.166 -46 89.499s-39 48.166 -63 65.499l17 27c26 -16.667 50.5 -37.667 73.5 -63s43.333 -55 61 -89s31.667 -72.833 42 -116.5s15.5 -91.834 15.5 -144.501z" />
    <glyph glyph-name="asterisk" unicode="*" horiz-adv-x="496" 
d="M393 607l40 -42l-141 -88v-11l70 -44l72 -45l-41 -41l-118 107l-9 -8l16 -164h-65l17 167l-13 2l-115 -104l-41 41l141 88v12l-141 88l42 42l113 -103l14 2l-17 168h65l-16 -168l13 -2z" />
    <glyph glyph-name="plus" unicode="+" horiz-adv-x="566" 
d="M315 494v-184h180v-54h-180v-183h-60v183h-181v54h181v184h60z" />
    <glyph glyph-name="comma" unicode="," horiz-adv-x="236" 
d="M170 90c-11.333 -38 -22.833 -74.333 -34.5 -109l-34.5 -107h-40c4.66699 36.667 9.5 72.667 14.5 108s9.83301 71.333 14.5 108h80z" />
    <glyph glyph-name="hyphen" unicode="-" horiz-adv-x="316" 
d="M284 298v-53h-251v53h251z" />
    <glyph glyph-name="period" unicode="." horiz-adv-x="236" 
d="M66 43c0 14 4.5 26 13.5 36s22.167 15 39.5 15c16.667 0 29.5 -5 38.5 -15s13.5 -22 13.5 -36c0 -15.333 -4.5 -27.833 -13.5 -37.5s-21.833 -14.5 -38.5 -14.5c-17.333 0 -30.5 4.83301 -39.5 14.5s-13.5 22.167 -13.5 37.5z" />
    <glyph glyph-name="slash" unicode="/" horiz-adv-x="366" 
d="M68 -40h-53l285 714h53z" />
    <glyph glyph-name="zero" unicode="0" horiz-adv-x="566" 
d="M121 325c0 -93.333 13.833 -163.166 41.5 -209.499s68.5 -69.5 122.5 -69.5c52.667 0 93.167 23.167 121.5 69.5s42.5 116.166 42.5 209.499s-14.167 163.166 -42.5 209.499s-68.833 69.5 -121.5 69.5c-54 0 -94.833 -23.167 -122.5 -69.5s-41.5 -116.166 -41.5 -209.499
zM52 325c0 52 5.33203 98.667 15.999 140s26 76.333 46 105s44.333 50.667 73 66s61.334 23 98.001 23c36 0 68.333 -7.66699 97 -23s53 -37.333 73 -66s35.333 -63.667 46 -105s16 -88 16 -140c0 -52.667 -5.33301 -99.667 -16 -141s-26 -76.333 -46 -105
s-44.333 -50.5 -73 -65.5s-61 -22.5 -97 -22.5c-73.333 0 -130.5 29.333 -171.5 88s-61.5 140.667 -61.5 246z" />
    <glyph glyph-name="one" unicode="1" horiz-adv-x="566" 
d="M262 588l-69.999 -22.5c-24.667 -7.66699 -48.334 -15.5 -71.001 -23.5v53l152 55h58v-589h158v-61h-389v61h162v527z" />
    <glyph glyph-name="two" unicode="2" horiz-adv-x="566" 
d="M269 599c-28.667 0 -56.501 -3.33398 -83.501 -10.001s-51.167 -15 -72.5 -25l-18 54c21.333 11.333 47 21 77 29s62.333 12 97 12c70 0 121.5 -15.333 154.5 -46s49.5 -72.667 49.5 -126c0 -27.333 -5 -53.833 -15 -79.5s-23.667 -51 -41 -76
s-37.833 -49.833 -61.5 -74.5l-75.5 -75l-125 -119h339v-63h-429v53l171 173l68 71c20.667 22 38.334 43.5 53.001 64.5s26.167 41.833 34.5 62.5s12.5 42 12.5 64c0 36.667 -12.5 64.334 -37.5 83.001s-57.5 28 -97.5 28z" />
    <glyph glyph-name="three" unicode="3" horiz-adv-x="566" 
d="M250 50c56 0 96.9951 11.833 122.995 35.5s39 55.167 39 94.5c0 42 -13.333 73.5 -40 94.5s-63.667 31.5 -111 31.5h-90v56h90c39.333 0 71.333 11 96 33s37 53.333 37 94c0 34 -12.333 61 -37 81s-64 30 -118 30c-31.333 0 -59.333 -3 -84 -9
s-47.334 -13.667 -68.001 -23l-17 53c21.333 11.333 46.833 20.5 76.5 27.5s61.5 10.5 95.5 10.5c38 0 70.833 -4.33301 98.5 -13s50.334 -20.667 68.001 -36s30.834 -33.333 39.501 -54s13 -43 13 -67c0 -20.667 -3.16699 -39.167 -9.5 -55.5
s-14.666 -30.666 -24.999 -42.999s-22.666 -23 -36.999 -32s-29.5 -16.5 -45.5 -22.5c40.667 -8.66699 73.5 -26.834 98.5 -54.501s37.5 -61.834 37.5 -102.501c0 -58 -20 -103.833 -60 -137.5s-96.333 -50.5 -169 -50.5c-39.333 0 -74.166 3.5 -104.499 10.5
s-56.5 16.167 -78.5 27.5l17 54c20.667 -9.33301 44.834 -17.166 72.501 -23.499s58.5 -9.5 92.5 -9.5z" />
    <glyph glyph-name="four" unicode="4" horiz-adv-x="566" 
d="M377 185v355l-253 -355h253zM385 649h57v-464h77v-57h-77v-128h-67v128h-327v47z" />
    <glyph glyph-name="five" unicode="5" horiz-adv-x="566" 
d="M251 50c56.667 0 99.668 13.835 129.001 41.502s44 63.167 44 106.5c0 46 -13.333 81.667 -40 107s-71.334 38 -134.001 38h-157v51l26 256h334v-63h-278l-16 -183h92c78.667 0 138.667 -18.167 180 -54.5s62 -86.833 62 -151.5c0 -32 -5.66699 -60.833 -17 -86.5
s-27.333 -47.5 -48 -65.5s-46 -31.667 -76 -41s-63.333 -14 -100 -14c-42 0 -78.333 3.66699 -109 11s-57 16.666 -79 27.999c2.66699 9.33301 5.66699 18.666 9 27.999l9 26c20 -9.33301 43.833 -17.333 71.5 -24s60.167 -10 97.5 -10z" />
    <glyph glyph-name="six" unicode="6" horiz-adv-x="566" 
d="M312 368c-38 0 -72.499 -8.16797 -103.499 -24.501s-56.167 -35.166 -75.5 -56.499c0 -37.333 4.33301 -70.833 13 -100.5s20.5 -54.834 35.5 -75.501s32.833 -36.667 53.5 -48s42.667 -17 66 -17c43.333 0 78.166 14.833 104.499 44.5s39.5 71.834 39.5 126.501
c0 20.667 -2.16699 40.167 -6.5 58.5s-11.833 34.333 -22.5 48s-24.5 24.5 -41.5 32.5s-37.833 12 -62.5 12zM321.001 603.999c-58 0 -103.498 -23 -136.498 -69s-50.5 -112.333 -52.5 -199c8.66699 10 19.167 20.167 31.5 30.5s26.5 19.666 42.5 27.999
s33.667 15.333 53 21s40 8.5 62 8.5c28.667 0 54.667 -4.66699 78 -14s43.5 -23 60.5 -41s30.167 -40 39.5 -66s14 -55.333 14 -88c0 -31.333 -4.83301 -60.666 -14.5 -87.999s-23.667 -51 -42 -71s-40.666 -35.833 -66.999 -47.5s-55.833 -17.5 -88.5 -17.5
c-74.667 0 -132.834 27.333 -174.501 82s-62.5 136.334 -62.5 245.001c0 54.667 6 103.167 18 145.5s29.167 78 51.5 107s49.166 51 80.499 66s66.333 22.5 105 22.5c30 0 56.167 -3.16699 78.5 -9.5s43.166 -14.5 62.499 -24.5c-3.33301 -9.33301 -6 -17.833 -8 -25.5
s-4.33301 -15.834 -7 -24.501c-36 19.333 -77.333 29 -124 29z" />
    <glyph glyph-name="seven" unicode="7" horiz-adv-x="566" 
d="M75 650h424v-46l-282 -604h-70l276 592h-348v58z" />
    <glyph glyph-name="eight" unicode="8" horiz-adv-x="566" 
d="M284 44c50 0 88.5 11.5 115.5 34.5s40.5 54.5 40.5 94.5c0 42.667 -12.5 75.5 -37.5 98.5s-64.5 34.5 -118.5 34.5s-93.5 -11.5 -118.5 -34.5s-37.5 -55.833 -37.5 -98.5c0 -40 13.5 -71.5 40.5 -94.5s65.5 -34.5 115.5 -34.5zM284 659
c64 0 113.834 -15.167 149.501 -45.5s53.5 -71.5 53.5 -123.5c0 -20.667 -3 -39.334 -9 -56.001s-14 -31.334 -24 -44.001s-21.5 -23.167 -34.5 -31.5s-26.5 -14.833 -40.5 -19.5v-7c17.333 -3.33301 33.666 -9.66602 48.999 -18.999s28.833 -21 40.5 -35
s20.834 -30 27.501 -48s10 -37.667 10 -59c0 -56 -19.5 -100 -58.5 -132s-93.5 -48 -163.5 -48c-70.667 0 -125.5 16 -164.5 48s-58.5 76 -58.5 132c0 21.333 3.5 41 10.5 59s16.333 34 28 48s25.167 25.667 40.5 35s31.666 15.666 48.999 18.999v7
c-14.667 4.66699 -28.5 11.334 -41.5 20.001s-24.5 19.167 -34.5 31.5s-17.833 26.833 -23.5 43.5s-8.5 35.334 -8.5 56.001c0 52 17.833 93.167 53.5 123.5s85.5 45.5 149.5 45.5zM284.001 605c-42 0 -75.333 -9.83301 -100 -29.5s-37 -49.5 -37 -89.5
c0 -41.333 12.333 -72.833 37 -94.5s58 -32.5 100 -32.5c43.333 0 76.833 10.833 100.5 32.5s35.5 53.167 35.5 94.5c0 40 -11.833 69.833 -35.5 89.5s-57.167 29.5 -100.5 29.5z" />
    <glyph glyph-name="nine" unicode="9" horiz-adv-x="566" 
d="M256 281c38 0 72.501 8.16797 103.501 24.501s56.167 35.166 75.5 56.499c0 37.333 -4.33301 70.833 -13 100.5s-20.5 55 -35.5 76s-32.5 37.167 -52.5 48.5s-41.667 17 -65 17c-44 0 -79.167 -15 -105.5 -45s-39.5 -72 -39.5 -126c0 -20.667 2.16699 -40.167 6.5 -58.5
s11.666 -34.5 21.999 -48.5s23.833 -25 40.5 -33s37.667 -12 63 -12zM241.001 46.001c67.333 0 116.165 23.001 146.498 69.001s46.833 112.333 49.5 199c-9.33301 -10 -20.166 -20.167 -32.499 -30.5s-26.5 -19.666 -42.5 -27.999s-33.667 -15.333 -53 -21
s-40 -8.5 -62 -8.5c-28.667 0 -54.667 4.66699 -78 14s-43.5 23 -60.5 41s-30.167 40 -39.5 66s-14 55.333 -14 88c0 31.333 4.83301 60.666 14.5 87.999s23.834 51 42.501 71s41.167 35.833 67.5 47.5s56.166 17.5 89.499 17.5c34.667 0 66.5 -7 95.5 -21
s53.833 -34.667 74.5 -62s36.834 -61.333 48.501 -102s17.5 -88 17.5 -142c0 -112 -22 -196.833 -66 -254.5s-109.333 -86.5 -196 -86.5c-30 0 -57.333 3 -82 9s-46.667 13.667 -66 23l16 50c18 -8.66699 38.5 -15.334 61.5 -20.001s45.833 -7 68.5 -7z" />
    <glyph glyph-name="colon" unicode=":" horiz-adv-x="256" 
d="M76 423c0 14.667 4.5 27 13.5 37s22.167 15 39.5 15c16.667 0 29.5 -5 38.5 -15s13.5 -22.333 13.5 -37c0 -14 -4.5 -26.167 -13.5 -36.5s-21.833 -15.5 -38.5 -15.5c-17.333 0 -30.5 5.16699 -39.5 15.5s-13.5 22.5 -13.5 36.5zM76 41c0 14.667 4.5 27 13.5 37
s22.167 15 39.5 15c16.667 0 29.5 -5 38.5 -15s13.5 -22.333 13.5 -37c0 -14 -4.5 -26 -13.5 -36s-21.833 -15 -38.5 -15c-17.333 0 -30.5 5 -39.5 15s-13.5 22 -13.5 36z" />
    <glyph glyph-name="semicolon" unicode=";" horiz-adv-x="256" 
d="M76 423c0 14.667 4.5 27 13.5 37s22.167 15 39.5 15c16.667 0 29.5 -5 38.5 -15s13.5 -22.333 13.5 -37c0 -14 -4.5 -26.167 -13.5 -36.5s-21.833 -15.5 -38.5 -15.5c-17.333 0 -30.5 5.16699 -39.5 15.5s-13.5 22.5 -13.5 36.5zM174 90
c-11.333 -38 -22.833 -74.333 -34.5 -109l-34.5 -107h-40c4.66699 36.667 9.5 72.667 14.5 108s9.83301 71.333 14.5 108h80z" />
    <glyph glyph-name="less" unicode="&#x3c;" horiz-adv-x="565" 
d="M67 308l209 114l209 114v-60l-355 -191l355 -189v-63l-418 230v45z" />
    <glyph glyph-name="equal" unicode="=" horiz-adv-x="565" 
d="M480 219v-54h-399v54h399zM480 405v-54h-399v54h399z" />
    <glyph glyph-name="greater" unicode="&#x3e;" horiz-adv-x="565" 
d="M501 263l-208.5 -114.5l-209.5 -114.5v62l355 189l-177.5 95.5l-177.5 95.5v61l418 -229v-45z" />
    <glyph glyph-name="question" unicode="?" horiz-adv-x="488" 
d="M227 623c-28 0 -55.832 -3.50098 -83.499 -10.501s-52.167 -15.5 -73.5 -25.5l-17 55c21.333 10.667 47.166 20.167 77.499 28.5s62.5 12.5 96.5 12.5c68 0 118.5 -14.667 151.5 -44s49.5 -69 49.5 -119c0 -19.333 -3.16699 -37.333 -9.5 -54s-14.333 -32.5 -24 -47.5
s-20.5 -29 -32.5 -42l-35 -36.5c-9.33301 -9.33301 -18.5 -19 -27.5 -29s-17.167 -20.333 -24.5 -31s-13.333 -21.834 -18 -33.501s-7 -23.5 -7 -35.5c0 -10 0.333008 -19 1 -27s2.33398 -15.333 5.00098 -22h-55c-7.33301 13.333 -11 31 -11 53c0 16 2.33301 30.667 7 44
s11 25.833 19 37.5s17 22.834 27 33.501l31 32l31.5 33c10.333 11.333 19.5 23 27.5 35s14.333 24.833 19 38.5s7 28.834 7 45.501c0 14.667 -2.5 28.5 -7.5 41.5s-12.833 24.5 -23.5 34.5s-24.334 18 -41.001 24s-36.667 9 -60 9zM178.001 40.999c0 14.667 4.5 27 13.5 37
s21.833 15 38.5 15c17.333 0 30.5 -5 39.5 -15s13.5 -22.333 13.5 -37c0 -14 -4.5 -26 -13.5 -36s-22.167 -15 -39.5 -15c-16.667 0 -29.5 5 -38.5 15s-13.5 22 -13.5 36z" />
    <glyph glyph-name="at" unicode="@" horiz-adv-x="816" 
d="M519 468c-11.333 5.33301 -25.3311 9.66602 -41.998 12.999s-34 5 -52 5c-50.667 0 -86.834 -13.833 -108.501 -41.5s-32.5 -65.5 -32.5 -113.5c0 -26 3 -48.5 9 -67.5s14.167 -34.667 24.5 -47s22.166 -21.333 35.499 -27s27.333 -8.5 42 -8.5
c18 0 34.5 3.83301 49.5 11.5s28 18.334 39 32.001s19.667 30 26 49s9.5 39.5 9.5 61.5v133zM97.002 327c0 -51.333 8.00098 -96.0059 24.001 -134.006s37.833 -69.667 65.5 -95s60 -44.166 97 -56.499s76.5 -18.5 118.5 -18.5c27.333 0 54.333 3.16699 81 9.5
s51 16.166 73 29.499c0 -1.33301 0.833008 -3.16602 2.5 -5.49902s3.5 -5.5 5.5 -9.5l8 -16c-20 -12.667 -44.667 -22.667 -74 -30s-62 -11 -98 -11c-48 0 -92.5 7 -133.5 21s-76.667 35 -107 63s-54.166 63 -71.499 105s-26 91.333 -26 148c0 47.333 8 92.5 24 135.5
s39.5 81 70.5 114s68.667 59.167 113 78.5s95.166 29 152.499 29c52 0 98.833 -8.16699 140.5 -24.5s77 -39 106 -68s51.333 -63.5 67 -103.5s23.5 -83.667 23.5 -131c0 -39.333 -3.66699 -73.166 -11 -101.499s-17 -51.666 -29 -69.999s-26 -31.833 -42 -40.5
s-32.667 -13 -50 -13c-26 0 -46.5 9.5 -61.5 28.5s-23.167 41.167 -24.5 66.5l-7 2c-5.33301 -12 -12.833 -23.667 -22.5 -35s-21 -21.5 -34 -30.5s-27.333 -16.167 -43 -21.5s-31.834 -8 -48.501 -8c-48.667 0 -86.834 17.333 -114.501 52s-41.5 82.334 -41.5 143.001
c0 26.667 3.33301 52.334 10 77.001s17.667 46.5 33 65.5s35.5 34 60.5 45s55.833 16.5 92.5 16.5c28 0 54.5 -3 79.5 -9s48.167 -14.667 69.5 -26v-242c0 -11.333 1 -22.333 3 -33s5.16699 -20 9.5 -28s10.166 -14.333 17.499 -19s16.333 -7 27 -7c9.33301 0 19.333 3 30 9
s20.334 16.5 29.001 31.5s15.834 35 21.501 60s8.5 56.167 8.5 93.5c0 35.333 -5.83301 70.333 -17.5 105s-29.5 65.5 -53.5 92.5s-54.833 48.833 -92.5 65.5s-82.5 25 -134.5 25s-98.167 -8.5 -138.5 -25.5s-74.5 -40.167 -102.5 -69.5s-49.167 -63.666 -63.5 -102.999
s-21.5 -81.333 -21.5 -126z" />
    <glyph glyph-name="A" unicode="A" horiz-adv-x="622" 
d="M461 187h-297l-68 -187h-70l251 674h71l125.5 -337l125.5 -337h-70zM187 248h251.001l-77 207l-23.5 75l-23.5 74c-8.66699 -22 -17.334 -46.667 -26.001 -74l-24 -75z" />
    <glyph glyph-name="B" unicode="B" horiz-adv-x="614" 
d="M437 349c16.667 -2 32.8311 -7.00098 48.498 -15.001s29.834 -18.5 42.501 -31.5s22.834 -28.833 30.501 -47.5s11.5 -39.667 11.5 -63c0 -28 -4.83301 -53.833 -14.5 -77.5s-24.334 -44 -44.001 -61s-44.5 -30.167 -74.5 -39.5s-65 -14 -105 -14h-247v674h246
c68.667 0 120.834 -16.167 156.501 -48.5s53.5 -74.5 53.5 -126.5c0 -19.333 -3.16699 -36.833 -9.5 -52.5s-14.5 -29.5 -24.5 -41.5s-21.167 -22.167 -33.5 -30.5s-24.5 -14.166 -36.5 -17.499v-8zM330.997 60.999c56 0 98.667 11.334 128 34.001s44 55 44 97
c0 23.333 -4.16699 43.166 -12.5 59.499s-20 29.5 -35 39.5s-33.167 17.167 -54.5 21.5s-45 6.5 -71 6.5h-178v-258h179zM331.997 378c20 0 38.5 2.66992 55.5 8.00293s32 13.166 45 23.499s23.167 23.166 30.5 38.499s11 33.333 11 54
c0 37.333 -12.833 65.166 -38.5 83.499s-60.5 27.5 -104.5 27.5h-179v-235h180z" />
    <glyph glyph-name="C" unicode="C" horiz-adv-x="570" 
d="M368 622c-78.667 0 -140.166 -24.6709 -184.499 -74.0039s-66.5 -119.666 -66.5 -210.999c0 -90.667 21.833 -160.667 65.5 -210s105.167 -74 184.5 -74c26.667 0 52.5 2.5 77.5 7.5s48.167 12.167 69.5 21.5l17 -56c-24 -11.333 -49.167 -20 -75.5 -26
s-56.166 -9 -89.499 -9c-54.667 0 -101.834 8.33301 -141.501 25s-72.5 40 -98.5 70s-45.333 66.333 -58 109s-19 90 -19 142c0 50.667 7 97.334 21 140.001s34.5 79.167 61.5 109.5s60.167 54 99.5 71s84.666 25.5 135.999 25.5c33.333 0 62.333 -2.66699 87 -8
s48 -13 70 -23c-2.66699 -9.33301 -5.5 -18.666 -8.5 -27.999s-5.83301 -18.666 -8.5 -27.999c-38.667 17.333 -85 26 -139 26z" />
    <glyph glyph-name="D" unicode="D" horiz-adv-x="649" 
d="M604 338c0 -110.667 -28 -194.666 -84 -251.999s-139 -86 -249 -86h-186v674h186c110 0 193 -28.333 249 -85s84 -140.334 84 -251.001zM535 338.001c0 48.667 -5.66699 90.333 -17 125s-28.166 63 -50.499 85s-50 38 -83 48s-70.833 15 -113.5 15h-117v-548h117
c85.333 0 150.666 21.5 195.999 64.5s68 113.167 68 210.5z" />
    <glyph glyph-name="E" unicode="E" horiz-adv-x="545" 
d="M85 674h404v-62h-335v-233h315v-62h-315v-255h341v-62h-410v674z" />
    <glyph glyph-name="F" unicode="F" horiz-adv-x="523" 
d="M85 674h396v-63h-327v-242h307v-62h-307v-307h-69v674z" />
    <glyph glyph-name="G" unicode="G" horiz-adv-x="643" 
d="M379 621c-40 0 -75.9961 -5.83203 -107.996 -17.499s-59.333 -29.334 -82 -53.001s-40.167 -53.5 -52.5 -89.5s-18.5 -78.333 -18.5 -127c0 -42 5.16699 -80.333 15.5 -115s24.833 -64.334 43.5 -89.001s41.167 -43.834 67.5 -57.501s55.166 -20.5 86.499 -20.5
c24.667 0 47.667 3.66699 69 11s40 18.5 56 33.5s28.5 33.667 37.5 56s13.5 48.5 13.5 78.5v78h-140v59h205v-368h-52l-15 97c-15.333 -30 -37.833 -55.167 -67.5 -75.5s-66.834 -30.5 -111.501 -30.5c-43.333 0 -82.166 8.16699 -116.499 24.5s-63.333 39.333 -87 69
s-41.834 65.667 -54.501 108s-19 89.5 -19 141.5c0 55.333 7.5 104.666 22.5 147.999s36.5 79.833 64.5 109.5s62.333 52.334 103 68.001s86.667 23.5 138 23.5c34.667 0 65.167 -3.16699 91.5 -9.5s51.166 -14.5 74.499 -24.5
c-2.66699 -9.33301 -5.66699 -18.666 -9 -27.999s-6.33301 -18.666 -9 -27.999c-40.667 18.667 -89.334 28 -146.001 28z" />
    <glyph glyph-name="H" unicode="H" horiz-adv-x="657" 
d="M507 316h-353v-316h-69v674h69v-295h353v295h69v-674h-69v316z" />
    <glyph glyph-name="I" unicode="I" horiz-adv-x="244" 
d="M157 0h-69v674h69v-674z" />
    <glyph glyph-name="J" unicode="J" horiz-adv-x="380" 
d="M299 190c0 -68 -13.999 -118 -41.999 -150s-70 -48 -126 -48c-25.333 0 -47.333 2.33301 -66 7s-35.334 10.667 -50.001 18c2.66699 9.33301 5.66699 18.833 9 28.5s6.33301 19.167 9 28.5c24.667 -13.333 57 -20 97 -20c30 0 54.167 10.167 72.5 30.5
s27.5 55.5 27.5 105.5v484h69v-484z" />
    <glyph glyph-name="K" unicode="K" horiz-adv-x="598" 
d="M280 359l302 -359h-83l-284 340v33l276 301h80zM154 0h-69v674h69v-674z" />
    <glyph glyph-name="L" unicode="L" horiz-adv-x="510" 
d="M85 674h69v-611h326v-63h-395v674z" />
    <glyph glyph-name="M" unicode="M" horiz-adv-x="785" 
d="M357 111l-148.999 327.004l-27 61.5c-8.66699 20.333 -17.334 44.166 -26.001 71.499l-9 -1c3.33301 -31.333 5.16602 -61.333 5.49902 -90s0.5 -51.334 0.5 -68.001v-412h-67v674h83l164 -363l17 -38l17.5 -42l15.5 -39.5c4.66699 -12.333 8.33398 -22.833 11.001 -31.5
c2.66699 7.33301 6.66699 17.166 12 29.499l17.5 40l18.5 43c6 14.333 11.667 27.166 17 38.499l164 363h83v-674h-68v412c0 16.667 0.333008 39.167 1 67.5s3 58.166 7 89.499l-8 2c-9.33301 -27.333 -18.5 -51.166 -27.5 -71.499l-27.5 -61.5l-149 -327h-76z" />
    <glyph glyph-name="N" unicode="N" horiz-adv-x="663" 
d="M447 215c14 -23.333 26.667 -45.5039 38 -66.5039l27 -51.5l7 2c-2 23.333 -3.5 46.333 -4.5 69s-1.5 48 -1.5 76v430h69v-674h-76l-286 459c-10.667 15.333 -21.667 33.833 -33 55.5s-21 40.834 -29 57.501v-2c0 0.666992 -0.333008 1.33398 -1 2.00098
s-1 1.33398 -1 2.00098h-8c2 -23.333 3.5 -46.166 4.5 -68.499s1.5 -47.5 1.5 -75.5v-430h-69v674h76z" />
    <glyph glyph-name="O" unicode="O" horiz-adv-x="688" 
d="M346 47c38.667 0 72.334 6.66699 101.001 20s52.5 32.5 71.5 57.5s33.167 55.5 42.5 91.5s14 76.333 14 121s-4.66699 85 -14 121s-23.5 66.5 -42.5 91.5s-42.833 44.167 -71.5 57.5s-62.334 20 -101.001 20s-72.5 -6.66699 -101.5 -20s-53 -32.5 -72 -57.5
s-33.167 -55.5 -42.5 -91.5s-14 -76.333 -14 -121s4.66699 -85 14 -121s23.5 -66.5 42.5 -91.5s43 -44.167 72 -57.5s62.833 -20 101.5 -20zM346 -9c-51.333 0 -95.5 8.66699 -132.5 26s-67.833 41.5 -92.5 72.5s-42.834 67.667 -54.501 110s-17.5 88.166 -17.5 137.499
s5.83301 95.166 17.5 137.499s29.834 79 54.501 110s55.5 55.167 92.5 72.5s81.167 26 132.5 26c50.667 0 94.834 -8.66699 132.501 -26s68.667 -41.5 93 -72.5s42.5 -67.667 54.5 -110s18 -88.166 18 -137.499s-6 -95.166 -18 -137.499s-30.167 -79 -54.5 -110
s-55.333 -55.167 -93 -72.5s-81.834 -26 -132.501 -26z" />
    <glyph glyph-name="P" unicode="P" horiz-adv-x="560" 
d="M520 468c0 -30.667 -5.33301 -58.8311 -16 -84.498s-25.667 -47.834 -45 -66.501s-43 -33.334 -71 -44.001s-59 -16 -93 -16h-141v-257h-69v674h216c34.667 0 65.5 -5.16699 92.5 -15.5s49.833 -24.833 68.5 -43.5s33 -40.5 43 -65.5s15 -52.167 15 -81.5zM452 468.003
c0 44 -12.833 78.833 -38.5 104.5s-63.167 38.5 -112.5 38.5h-147v-291h141c48.667 0 87 13.167 115 39.5s42 62.5 42 108.5z" />
    <glyph glyph-name="Q" unicode="Q" horiz-adv-x="687" 
d="M211 -97c32 0 58.168 8.66504 78.501 25.998s34.166 38.333 41.499 63c-48.667 2 -90.834 12 -126.501 30s-65 42.333 -88 73s-40.167 66.667 -51.5 108s-17 86 -17 134c0 49.333 5.83301 95.166 17.5 137.499s29.834 79 54.501 110s55.5 55.167 92.5 72.5
s81.167 26 132.5 26c50.667 0 94.834 -8.66699 132.501 -26s68.667 -41.5 93 -72.5s42.5 -67.667 54.5 -110s18 -88.166 18 -137.499c0 -45.333 -5 -87.666 -15 -126.999s-25.167 -74 -45.5 -104s-46 -54.667 -77 -74s-67.5 -31.666 -109.5 -36.999
c-5.33301 -18 -13.833 -34.833 -25.5 -50.5s-25.834 -27.167 -42.501 -34.5l2 -7h203v-59h-334v59h12zM345.001 46.998c77.333 0 134.835 25.833 172.502 77.5s56.5 122.5 56.5 212.5c0 44.667 -4.66699 84.834 -14 120.501s-23.5 66 -42.5 91s-42.833 44.167 -71.5 57.5
s-62.334 20 -101.001 20s-72.334 -6.66699 -101.001 -20s-52.5 -32.5 -71.5 -57.5s-33.167 -55.333 -42.5 -91s-14 -75.834 -14 -120.501c0 -90 18.833 -160.833 56.5 -212.5s95.167 -77.5 172.5 -77.5z" />
    <glyph glyph-name="R" unicode="R" horiz-adv-x="587" 
d="M543 476c0 -48.667 -14.5 -90.333 -43.5 -125s-68.5 -58.667 -118.5 -72l165 -279h-76l-160 272h-157v-272h-68v674h238c34.667 0 65.667 -5.16699 93 -15.5s50.333 -24.333 69 -42s33 -38.5 43 -62.5s15 -50 15 -78zM474 476.001c0 41.333 -12.833 74.001 -38.5 98.001
s-63.167 36 -112.5 36h-170v-275h164c48.667 0 87 12.667 115 38s42 59.666 42 102.999z" />
    <glyph glyph-name="S" unicode="S" horiz-adv-x="528" 
d="M249 -9c-23.333 0 -44.334 0.831055 -63.001 2.49805s-35.5 4.16699 -50.5 7.5s-28.833 7.16602 -41.5 11.499s-24.334 9.5 -35.001 15.5c2.66699 9.33301 5.66699 18.666 9 27.999s6.33301 18.333 9 27c20 -9.33301 43.333 -17 70 -23s57.667 -9 93 -9
c24.667 0 47.667 2.33301 69 7s39.5 12.167 54.5 22.5s26.833 23.5 35.5 39.5s13 35 13 57s-4.5 40.333 -13.5 55s-21.167 27.334 -36.5 38.001s-33 19.5 -53 26.5l-63 21.5c-20.667 6.66699 -42.167 14.834 -64.5 24.501s-42.666 21.667 -60.999 36s-33.333 32 -45 53
s-17.5 46.5 -17.5 76.5c0 24.667 4.16699 47.834 12.5 69.501s21.5 40.167 39.5 55.5s40.833 27.5 68.5 36.5s61.167 13.5 100.5 13.5c32 0 61.333 -2.83301 88 -8.5s51.334 -14.167 74.001 -25.5c-2.66699 -9.33301 -5.83398 -18.666 -9.50098 -27.999
s-6.83398 -18.333 -9.50098 -27c-19.333 9.33301 -41.333 16.5 -66 21.5s-50.334 7.5 -77.001 7.5c-55.333 0 -95 -10.667 -119 -32s-36 -48.666 -36 -81.999c0 -20.667 4.16699 -38 12.5 -52s19.5 -26 33.5 -36s30.5 -18.667 49.5 -26s39.167 -14.666 60.5 -21.999
c24 -8 47.833 -16.833 71.5 -26.5s44.834 -21.834 63.501 -36.501s33.834 -32.834 45.501 -54.501s17.5 -48.167 17.5 -79.5s-5.66699 -58.5 -17 -81.5s-27.166 -42.167 -47.499 -57.5s-44.5 -26.833 -72.5 -34.5s-58.667 -11.5 -92 -11.5z" />
    <glyph glyph-name="T" unicode="T" horiz-adv-x="512" 
d="M292 611v-611h-69v611c-34 0 -68.667 -0.166992 -104 -0.5s-70 -0.5 -104 -0.5v64h485v-64z" />
    <glyph glyph-name="U" unicode="U" horiz-adv-x="664" 
d="M334 -9c-38.667 0 -73.498 5.5 -104.498 16.5s-57.333 27.833 -79 50.5s-38.334 51.5 -50.001 86.5s-17.5 76.167 -17.5 123.5v406h69v-407c0 -73.333 15.667 -127.166 47 -161.499s76.333 -51.5 135 -51.5s103.667 17.167 135 51.5s47 88.166 47 161.499v407h69v-406
c0 -47.333 -5.83301 -88.5 -17.5 -123.5s-28.334 -63.833 -50.001 -86.5s-48 -39.5 -79 -50.5s-65.833 -16.5 -104.5 -16.5z" />
    <glyph glyph-name="V" unicode="V" horiz-adv-x="612" 
d="M521 674h70l-248 -674h-72l-124 337l-124 337h70l78.5 -214.5l77.5 -213.5l57 -181c10 27.333 20 57 30 89l28 91z" />
    <glyph glyph-name="W" unicode="W" horiz-adv-x="879" 
d="M193 0l-158.999 674h69l89 -383c8.66699 -36.667 15.834 -73 21.501 -109s10.167 -70 13.5 -102l8 -1c12 66 29 135 51 207l118 388h74l118 -388c23.333 -72 40 -141 50 -207l8 1c3.33301 32 8.16602 66 14.499 102s14.166 72.333 23.499 109l88 383h69l-79 -337
l-79 -337h-71l-135 440l-11 37.5c-4 13.667 -7.66699 27.5 -11 41.5l-9.5 41c-3 13.333 -5.5 26 -7.5 38h-8l-9 -36l-10.5 -41l-11 -42l-10.5 -39l-134 -440h-70z" />
    <glyph glyph-name="X" unicode="X" horiz-adv-x="612" 
d="M308 303l-198 -303h-75l232 350l-214 324h77l178 -276l177 276h77l-215 -324l117 -175l117 -175h-77z" />
    <glyph glyph-name="Y" unicode="Y" horiz-adv-x="563" 
d="M317 284v-284h-69v284l-227 390h72l189 -331l94 165.5l95 165.5h74z" />
    <glyph glyph-name="Z" unicode="Z" horiz-adv-x="547" 
d="M47 50l364 562h-339v62h423v-51l-363 -561h369v-62h-454v50z" />
    <glyph glyph-name="bracketleft" unicode="[" horiz-adv-x="278" 
d="M86 684h168v-50h-109v-704h109v-49h-168v803z" />
    <glyph glyph-name="backslash" unicode="\" horiz-adv-x="366" 
d="M15 674h53l142.5 -357.5l142.5 -356.5h-53z" />
    <glyph glyph-name="bracketright" unicode="]" horiz-adv-x="278" 
d="M194 -119h-168v49h109v704h-109v50h168v-803z" />
    <glyph glyph-name="asciicircum" unicode="^" horiz-adv-x="520" 
d="M475 279h-68l-145 333l-147 -333h-67l183 395h61z" />
    <glyph glyph-name="underscore" unicode="_" horiz-adv-x="427" 
d="M427 -78v-52h-424v52h424z" />
    <glyph glyph-name="grave" unicode="`" horiz-adv-x="295" 
d="M174 578l-20 -27.001l-79 49l-80 49l19.5 24.5c6.33301 7.66699 12.5 15.834 18.5 24.501z" />
    <glyph glyph-name="a" unicode="a" horiz-adv-x="503" 
d="M366 245l-111 -0.00195312c-48 0 -84.167 -9.66699 -108.5 -29s-36.5 -47 -36.5 -83c0 -30 9 -52.667 27 -68s40.333 -23 67 -23c24.667 0 47 4.5 67 13.5s37 20.833 51 35.5s24.833 31.334 32.5 50.001s11.5 37.334 11.5 56.001v48zM366 318.998
c0 43.333 -10.9971 74.167 -32.9971 92.5s-51.333 27.5 -88 27.5c-30.667 0 -58.334 -3.33301 -83.001 -10s-47 -14.667 -67 -24c-2.66699 8.66699 -5.5 16.5 -8.5 23.5s-5.83301 14.5 -8.5 22.5c18 10.667 41.667 20.167 71 28.5s62 12.5 98 12.5c62 0 108 -15.5 138 -46.5
s45 -73.5 45 -127.5v-318h-50l-16 94c-8 -14 -17 -27.167 -27 -39.5s-21.833 -23.333 -35.5 -33s-29.334 -17.167 -47.001 -22.5s-38.5 -8 -62.5 -8c-20.667 0 -39.834 3 -57.501 9s-33.167 15 -46.5 27s-23.833 26.833 -31.5 44.5s-11.5 38.167 -11.5 61.5
c0 54 18.5 94.333 55.5 121s88.833 40 155.5 40h110v25z" />
    <glyph glyph-name="b" unicode="b" horiz-adv-x="557" 
d="M148 230c0 -26 4 -50 12 -72s19 -41 33 -57s30.333 -28.5 49 -37.5s39 -13.5 61 -13.5c18.667 0 36.667 3.5 54 10.5s32.666 18.333 45.999 34s24 36 32 61s12 55.833 12 92.5c0 62 -12.667 108.167 -38 138.5s-57.666 45.5 -96.999 45.5c-34 0 -65 -8.33301 -93 -25
s-51.667 -38.667 -71 -66v-111zM81 677l66.9971 0.00195312v-281c7.33301 10 16.833 20.667 28.5 32s25.167 21.833 40.5 31.5s32 17.5 50 23.5s37.333 9 58 9c30.667 0 57.834 -6.5 81.501 -19.5s43.334 -30.667 59.001 -53s27.5 -48.333 35.5 -78s12 -60.834 12 -93.501
c0 -42.667 -4.83301 -80 -14.5 -112s-23.334 -58.833 -41.001 -80.5s-38.667 -37.834 -63 -48.501s-51.166 -16 -80.499 -16c-18 0 -35.333 2.83301 -52 8.5s-32 13.167 -46 22.5s-26.667 20.5 -38 33.5s-20.666 26.833 -27.999 41.5l-16 -97h-53v677z" />
    <glyph glyph-name="c" unicode="c" horiz-adv-x="457" 
d="M280 439c-28.667 0 -53.5 -5.00488 -74.5 -15.0049s-38.333 -23.667 -52 -41s-23.834 -38 -30.501 -62s-10 -50.333 -10 -79s3.33301 -55 10 -79s17 -44.833 31 -62.5s31.667 -31.5 53 -41.5s47 -15 77 -15c20.667 0 41.334 2.33301 62.001 7
s40.334 11.334 59.001 20.001l15 -48c-21.333 -10.667 -43 -18.667 -65 -24s-47.667 -8 -77 -8c-39.333 0 -73.333 6.33301 -102 19s-52.667 30.334 -72 53.001s-33.666 49.334 -42.999 80.001s-14 63.667 -14 99s4.66699 68.333 14 99s23.666 57.167 42.999 79.5
s43.666 39.833 72.999 52.5s63.666 19 102.999 19c26.667 0 50.834 -2.66699 72.501 -8s42.5 -12.666 62.5 -21.999c-2 -8 -4.5 -16.167 -7.5 -24.5s-5.5 -16.166 -7.5 -23.499c-17.333 7.33301 -35.833 13.333 -55.5 18s-41.167 7 -64.5 7z" />
    <glyph glyph-name="d" unicode="d" horiz-adv-x="556" 
d="M413 342c-18 28 -39.8311 50 -65.498 66s-52.5 24 -80.5 24c-22 0 -42.333 -3.83301 -61 -11.5s-34.834 -19.334 -48.501 -35.001s-24.334 -35.5 -32.001 -59.5s-11.5 -52 -11.5 -84c0 -35.333 4 -65.166 12 -89.499s18.833 -44 32.5 -59s29.167 -26 46.5 -33
s35.333 -10.5 54 -10.5c21.333 0 41.333 4.5 60 13.5s35 21.5 49 37.5s25 35 33 57s12 46 12 72v112zM480.002 0l-52.9971 -0.00390625l-16 96c-14.667 -29.333 -36.334 -54.166 -65.001 -74.499s-61 -30.5 -97 -30.5c-29.333 0 -56.333 5.33301 -81 16
s-45.834 26.5 -63.501 47.5s-31.334 47 -41.001 78s-14.5 67.167 -14.5 108.5c0 36 4.66699 69.167 14 99.5s22.833 56.833 40.5 79.5s39.334 40.334 65.001 53.001s54.5 19 86.5 19c18.667 0 36.167 -2.83301 52.5 -8.5s31.166 -13.167 44.499 -22.5s25 -19.666 35 -30.999
s18.667 -22.666 26 -33.999v281h67v-677z" />
    <glyph glyph-name="e" unicode="e" horiz-adv-x="501" 
d="M113 212c4 -53.333 20.5 -94.668 49.5 -124.001s70.5 -44 124.5 -44c22 0 44.167 2.16699 66.5 6.5s42.833 10.833 61.5 19.5l15 -48c-20.667 -9.33301 -43.334 -16.833 -68.001 -22.5s-51.667 -8.5 -81 -8.5c-78 0 -136.167 22.667 -174.5 68s-57.5 106.333 -57.5 183
c0 35.333 4.33301 68.333 13 99s21.834 57.167 39.501 79.5s40.167 39.833 67.5 52.5s60 19 98 19c62 0 109 -17.667 141 -53s48 -84 48 -146c0 -15.333 -0.833008 -29.666 -2.5 -42.999s-4.16699 -26 -7.5 -38h-333zM267 441.998c-26 0 -48.502 -4.50098 -67.502 -13.501
s-34.667 -21.667 -47 -38s-21.666 -35.666 -27.999 -57.999s-10.166 -46.833 -11.499 -73.5h279c1.33301 3.33301 2 9.33301 2 18v16c0 48 -9.66699 84.833 -29 110.5s-52 38.5 -98 38.5z" />
    <glyph glyph-name="f" unicode="f" horiz-adv-x="334" 
d="M254 633c-18.667 0 -33.833 -2.66895 -45.5 -8.00195s-20.834 -13 -27.501 -23s-11.167 -22.5 -13.5 -37.5s-3.5 -31.833 -3.5 -50.5v-31h145v-53h-145v-430h-65v430h-78v53h78v32c0 26 2.66699 49.5 8 70.5s14 39 26 54s27.5 26.5 46.5 34.5s42.167 12 69.5 12
c19.333 0 36.333 -2.16699 51 -6.5s28.334 -9.83301 41.001 -16.5c-2 -7.33301 -4.5 -15.166 -7.5 -23.499s-5.5 -16.166 -7.5 -23.499c-22 11.333 -46 17 -72 17z" />
    <glyph glyph-name="g" unicode="g" horiz-adv-x="554" 
d="M413 338c-16.667 26.667 -38.165 49 -64.498 67s-53.5 27 -81.5 27c-22 0 -42.333 -3.83301 -61 -11.5s-34.834 -19.334 -48.501 -35.001s-24.334 -35.167 -32.001 -58.5s-11.5 -50.666 -11.5 -81.999c0 -34 4 -63 12 -87s18.833 -43.5 32.5 -58.5
s29.167 -25.833 46.5 -32.5s35.333 -10 54 -10c22.667 0 43.5 4.5 62.5 13.5s35.333 21.5 49 37.5s24.167 35 31.5 57s11 46 11 72v101zM413.002 92l-6.99902 2.00195c-13.333 -26.667 -34 -49.334 -62 -68.001s-59.667 -28 -95 -28c-29.333 0 -56.333 5.33301 -81 16
s-45.834 26.334 -63.501 47.001s-31.334 46.5 -41.001 77.5s-14.5 66.5 -14.5 106.5c0 34.667 4.66699 67 14 97s22.833 56.167 40.5 78.5s39.334 39.833 65.001 52.5s54.5 19 86.5 19c18.667 0 36.167 -3 52.5 -9s31 -13.5 44 -22.5s24.5 -19.167 34.5 -30.5
s18.667 -22 26 -32l14 85h54v-450c0 -42 -5.33301 -77.833 -16 -107.5s-25.667 -54 -45 -73s-42.5 -33 -69.5 -42s-56.833 -13.5 -89.5 -13.5c-33.333 0 -65.5 4.33301 -96.5 13s-56.167 18 -75.5 28l16 54c19.333 -10.667 42 -19.334 68 -26.001s52.667 -10 80 -10
c24 0 45.833 2.66699 65.5 8s36.5 14.666 50.5 27.999s25 31.5 33 54.5s12 52.167 12 87.5v58z" />
    <glyph glyph-name="h" unicode="h" horiz-adv-x="562" 
d="M148 0h-66.999v677h67v-277c8 10 18 20.333 30 31s25.667 20.5 41 29.5s32.166 16.5 50.499 22.5s37.5 9 57.5 9c51.333 0 91.333 -16.5 120 -49.5s43 -79.167 43 -138.5v-304h-65v304c0 40 -9.83301 71.5 -29.5 94.5s-46.5 34.5 -80.5 34.5
c-34.667 0 -66.667 -8.5 -96 -25.5s-53 -38.167 -71 -63.5v-344z" />
    <glyph glyph-name="i" unicode="i" horiz-adv-x="234" 
d="M152 0h-68v483h68v-483zM70 640c0 13.333 4.16699 24.5 12.5 33.5s20.166 13.5 35.499 13.5c16 0 28 -4.5 36 -13.5s12 -20.167 12 -33.5s-4 -24.5 -12 -33.5s-20 -13.5 -36 -13.5c-15.333 0 -27.166 4.5 -35.499 13.5s-12.5 20.167 -12.5 33.5z" />
    <glyph glyph-name="j" unicode="j" horiz-adv-x="235" 
d="M152 -46c0 -26 -2.00098 -48.833 -6.00098 -68.5s-11 -36.167 -21 -49.5s-23.5 -23.5 -40.5 -30.5s-38.5 -10.5 -64.5 -10.5c-13.333 0 -25.666 1.33301 -36.999 4s-21.666 6.33398 -30.999 11.001l17 51c7.33301 -2.66699 15.166 -4.83398 23.499 -6.50098
s16.833 -2.5 25.5 -2.5c27.333 0 45.333 7.83301 54 23.5s13 42.167 13 79.5v528h67v-529zM70.999 640c0 13.333 4 24.5 12 33.5s19.667 13.5 35 13.5c16 0 28.167 -4.5 36.5 -13.5s12.5 -20.167 12.5 -33.5s-4.16699 -24.5 -12.5 -33.5s-20.5 -13.5 -36.5 -13.5
c-15.333 0 -27 4.5 -35 13.5s-12 20.167 -12 33.5z" />
    <glyph glyph-name="k" unicode="k" horiz-adv-x="501" 
d="M482 0l-79 -0.000976562l-101 128l-37.5 47l-33 41l-24 29.5c-6.33301 7.66699 -9.5 11.834 -9.5 12.501v25l193 200h79l-205 -210zM148 -0.000976562h-67v677h67v-677z" />
    <glyph glyph-name="l" unicode="l" horiz-adv-x="234" 
d="M152 0h-68v677h68v-677z" />
    <glyph glyph-name="m" unicode="m" horiz-adv-x="797" 
d="M145 0h-67v483h54l15 -85c6.66699 10.667 15.167 21.5 25.5 32.5s22 21 35 30s27.667 16.5 44 22.5s34.166 9 53.499 9c32 0 58.167 -9.5 78.5 -28.5s35.166 -44.5 44.499 -76.5c17.333 28 40.333 52.5 69 73.5s60.667 31.5 96 31.5
c46.667 0 80.834 -15.833 102.501 -47.5s32.5 -73.5 32.5 -125.5v-319h-66v319c0 34 -6.33301 61.667 -19 83s-34.667 32 -66 32c-30.667 0 -58 -10 -82 -30s-43.333 -43 -58 -69v-335h-66v319c0 34 -6.5 61.667 -19.5 83s-34.5 32 -64.5 32
c-31.333 0 -59.166 -9.33301 -83.499 -28s-43.833 -40.667 -58.5 -66v-340z" />
    <glyph glyph-name="n" unicode="n" horiz-adv-x="560" 
d="M146 0h-67v483h53l15 -84c8 10 18 20.5 30 31.5s25.5 21 40.5 30s31.5 16.5 49.5 22.5s37.333 9 58 9c51.333 0 91.333 -16.5 120 -49.5s43 -79.167 43 -138.5v-304h-66v304c0 40 -9.66699 71.5 -29 94.5s-46 34.5 -80 34.5c-34.667 0 -66.5 -8.83301 -95.5 -26.5
s-52.833 -39.5 -71.5 -65.5v-341z" />
    <glyph glyph-name="o" unicode="o" horiz-adv-x="538" 
d="M113 242c0 -28.667 3 -55.167 9 -79.5s15.5 -45.333 28.5 -63s29.333 -31.5 49 -41.5s43.5 -15 71.5 -15s52 5 72 15s36.5 23.833 49.5 41.5s22.5 38.667 28.5 63s9 50.833 9 79.5c0 28 -3 54.167 -9 78.5s-15.5 45.166 -28.5 62.499s-29.5 31 -49.5 41s-44 15 -72 15
s-51.833 -5 -71.5 -15s-36 -23.667 -49 -41s-22.5 -38.166 -28.5 -62.499s-9 -50.5 -9 -78.5zM47 242c0 35.333 4.5 68.166 13.5 98.499s22.667 56.833 41 79.5s41.666 40.334 69.999 53.001s61.5 19 99.5 19c38.667 0 72 -6.33301 100 -19s51.333 -30.334 70 -53.001
s32.5 -49.167 41.5 -79.5s13.5 -63.166 13.5 -98.499s-4.5 -68.333 -13.5 -99s-22.833 -57.334 -41.5 -80.001s-42 -40.334 -70 -53.001s-61.333 -19 -100 -19c-38 0 -71.167 6.33301 -99.5 19s-51.666 30.334 -69.999 53.001s-32 49.334 -41 80.001s-13.5 63.667 -13.5 99z
" />
    <glyph glyph-name="p" unicode="p" horiz-adv-x="555" 
d="M146 230c0 -26 3.99805 -50 11.998 -72s19 -41 33 -57s30.333 -28.5 49 -37.5s39 -13.5 61 -13.5c18.667 0 36.834 3.5 54.501 10.5s33 18.333 46 34s23.5 36 31.5 61s12 55.833 12 92.5c0 62 -12.667 108.167 -38 138.5s-57.666 45.5 -96.999 45.5
c-32 0 -62.5 -8.33301 -91.5 -25s-53.167 -38.667 -72.5 -66v-111zM132.998 483l13.998 -84.998c7.33301 10 16.833 20.667 28.5 32s25 21.5 40 30.5s31.667 16.5 50 22.5s37.5 9 57.5 9c30.667 0 57.834 -6.5 81.501 -19.5s43.334 -30.667 59.001 -53
s27.5 -48.333 35.5 -78s12 -60.834 12 -93.501c0 -42.667 -4.83301 -80 -14.5 -112s-23.334 -58.833 -41.001 -80.5s-38.667 -37.834 -63 -48.501s-51.166 -16 -80.499 -16c-36 0 -68 9.33301 -96 28s-49 41 -63 67l-7 -2v-278h-67v677h54z" />
    <glyph glyph-name="q" unicode="q" horiz-adv-x="559" 
d="M414 338c-18 29.333 -39.3311 52.333 -63.998 69s-52 25 -82 25c-22 0 -42.333 -3.83301 -61 -11.5s-34.834 -19.334 -48.501 -35.001s-24.334 -35.5 -32.001 -59.5s-11.5 -52 -11.5 -84c0 -35.333 4 -65.166 12 -89.499s18.833 -44 32.5 -59s29.167 -26 46.5 -33
s35.333 -10.5 54 -10.5c21.333 0 41.333 4.5 60 13.5s35 21.5 49 37.5s25 35 33 57s12 46 12 72v108zM427.002 483l54.0029 -0.00195312v-677h-67v278l-7 2c-6.66699 -13.333 -15.334 -25.666 -26.001 -36.999s-22.834 -21.333 -36.501 -30s-28.5 -15.5 -44.5 -20.5
s-32.667 -7.5 -50 -7.5c-29.333 0 -56.333 5.33301 -81 16s-45.834 26.5 -63.501 47.5s-31.334 47 -41.001 78s-14.5 67.167 -14.5 108.5c0 36 4.66699 69.167 14 99.5s22.833 56.833 40.5 79.5s39.334 40.334 65.001 53.001s54.5 19 86.5 19c18.667 0 36 -3 52 -9
s30.667 -13.667 44 -23s25 -19.5 35 -30.5s18.333 -21.833 25 -32.5z" />
    <glyph glyph-name="r" unicode="r" horiz-adv-x="369" 
d="M149 388c7.33301 12 15.668 24.167 25.001 36.5s19.833 23.5 31.5 33.5s24.667 18.167 39 24.5s29.833 9.5 46.5 9.5c17.333 0 30.5 -1.5 39.5 -4.5s15.5 -5.5 19.5 -7.5c-3.33301 -11.333 -6 -22.5 -8 -33.5s-4.66699 -22.167 -8 -33.5c-14 10 -32.333 15 -55 15
c-28.667 0 -54.334 -8 -77.001 -24s-41 -38.333 -55 -67v-337h-67v483h52z" />
    <glyph glyph-name="s" unicode="s" horiz-adv-x="433" 
d="M200 42c42.667 0 72.999 7.83398 90.999 23.501s27 35.167 27 58.5c0 14 -3.16699 26.333 -9.5 37s-15 19.834 -26 27.501s-24 14.334 -39 20.001s-30.833 11.167 -47.5 16.5c-18.667 6 -36.667 13.167 -54 21.5s-32.666 18.166 -45.999 29.499s-24 24.666 -32 39.999
s-12 32.666 -12 51.999c0 40 15.333 70.667 46 92s72 32 124 32c27.333 0 53.333 -2.5 78 -7.5s46.667 -12.167 66 -21.5c-2 -8.66699 -4.5 -17 -7.5 -25s-5.5 -15.667 -7.5 -23c-18 8 -37 14.167 -57 18.5s-42 6.5 -66 6.5c-38 0 -66.167 -6.5 -84.5 -19.5
s-27.5 -30.167 -27.5 -51.5c0 -25.333 9.66699 -44.333 29 -57s44.333 -23.667 75 -33c52.667 -16.667 93.167 -36.667 121.5 -60s42.5 -55.333 42.5 -96c0 -40 -14.5 -72 -43.5 -96s-74.833 -36 -137.5 -36c-30 0 -58.167 2.33301 -84.5 7s-48.5 11.667 -66.5 21
c2 8 4.5 16.333 7.5 25s5.5 16.667 7.5 24c18 -7.33301 38.667 -13.5 62 -18.5s47 -7.5 71 -7.5z" />
    <glyph glyph-name="t" unicode="t" horiz-adv-x="349" 
d="M164 130c0 -28.667 4.49902 -50.166 13.499 -64.499s26.833 -21.5 53.5 -21.5c15.333 0 29.166 1.5 41.499 4.5s23.833 7.16699 34.5 12.5c2.66699 -8.66699 5.33398 -16.334 8.00098 -23.001s5.33398 -14.334 8.00098 -23.001c-12 -7.33301 -26.333 -13.166 -43 -17.499
s-36.667 -6.5 -60 -6.5c-40.667 0 -71 11 -91 33s-30 57 -30 105v301h-78v53h78l20 140h45v-140h152v-53h-152v-300z" />
    <glyph glyph-name="u" unicode="u" horiz-adv-x="553" 
d="M412 483l66.999 -0.00195312v-483h-53l-16 94c-7.33301 -11.333 -16.333 -23 -27 -35s-23.5 -23 -38.5 -33s-31.833 -18.333 -50.5 -25s-39 -10 -61 -10c-46 0 -83.5 15 -112.5 45s-43.5 77.667 -43.5 143v304h65v-304c0 -41.333 9.16699 -73.333 27.5 -96
s43.5 -34 75.5 -34c18.667 0 36.167 2.83301 52.5 8.5s31.5 13.334 45.5 23.001s26.833 20.834 38.5 33.501s21.834 25.667 30.501 39v330z" />
    <glyph glyph-name="v" unicode="v" horiz-adv-x="462" 
d="M198 0l-176 483h69l44 -123.5l44 -123.5l18 -59l35 -118l18.5 59l18.5 59l18 59l88 247h68l-175 -483h-70z" />
    <glyph glyph-name="w" unicode="w" horiz-adv-x="677" 
d="M468 190c5.33301 -17.333 10.3311 -36.668 14.998 -58.001s8.66699 -44 12 -68l9 1l8 67c2.66699 21.333 6.33398 41.666 11.001 60.999l66 290h65l-117 -483h-66l-100 317c-5.33301 17.333 -9.83301 34.666 -13.5 51.999s-7.16699 36 -10.5 56h-8l-13 -55.5
c-4 -17.667 -9 -35.167 -15 -52.5l-99 -317h-66l-117 483h65l66 -290c4.66699 -19.333 8.33398 -39.666 11.001 -60.999s4.66699 -43.666 6 -66.999l8 -1c4.66699 22.667 9.5 44.834 14.5 66.501s10.167 41.5 15.5 59.5l91 293h70z" />
    <glyph glyph-name="x" unicode="x" horiz-adv-x="482" 
d="M242 207l-142.001 -207h-71l177 252l-161 231h70l117 -174c2.66699 -5.33301 5.33398 -9 8.00098 -11c1.33301 -1.33301 2 -2.33301 2 -3l128 188h71l-162 -231l178 -252h-71z" />
    <glyph glyph-name="y" unicode="y" horiz-adv-x="550" 
d="M408 107c-7.33301 -12 -16.3359 -24.1641 -27.0029 -36.4971s-23.167 -23.833 -37.5 -34.5s-30.5 -19.334 -48.5 -26.001s-37.667 -10 -59 -10c-49.333 0 -88.166 15 -116.499 45s-42.5 77.667 -42.5 143v295h65v-295c0 -41.333 9 -73.333 27 -96s43.333 -34 76 -34
c18.667 0 36.167 3 52.5 9s31.333 13.833 45 23.5s26 20.667 37 33s20.5 25.166 28.5 38.499v321h68v-450c0 -80 -18.833 -139.5 -56.5 -178.5s-90.834 -58.5 -159.501 -58.5c-31.333 0 -62 4 -92 12s-54 18 -72 30c2.66699 8.66699 5.83398 17.667 9.50098 27
s6.83398 18 9.50098 26c18.667 -10.667 40.167 -19.334 64.5 -26.001s49.833 -10 76.5 -10c24.667 0 46.334 3 65.001 9s34.5 15.833 47.5 29.5s22.833 32 29.5 55s10 51.5 10 85.5v73z" />
    <glyph glyph-name="z" unicode="z" horiz-adv-x="449" 
d="M45 39l271 391h-251v53h332v-39l-272 -391h281v-53h-361v39z" />
    <glyph glyph-name="braceleft" unicode="{" horiz-adv-x="310" 
d="M56 304c31.333 0.666992 52.5 8.16602 63.5 22.499s16.5 35.166 16.5 62.499c0 12.667 -0.666992 25.834 -2 39.501s-3 27.834 -5 42.501c-2.66699 14.667 -4.83398 29.167 -6.50098 43.5s-2.5 27.833 -2.5 40.5c0 44 12.333 76.5 37 97.5s59.334 31.5 104.001 31.5h17
v-39h-16c-31.333 0 -53 -8.66699 -65 -26s-18 -42.333 -18 -75c0 -12.667 0.666992 -25.334 2 -38.001s3 -25.334 5 -38.001c2 -13.333 3.83301 -26.5 5.5 -39.5s2.5 -25.5 2.5 -37.5c0 -28 -6.33301 -51 -19 -69s-35 -31.333 -67 -40c32 -9.33301 54.333 -22.833 67 -40.5
s19 -40.5 19 -68.5c0 -12 -0.833008 -24.5 -2.5 -37.5s-3.5 -26.167 -5.5 -39.5c-2 -12.667 -3.66699 -25.334 -5 -38.001s-2 -25.667 -2 -39c0 -32 6 -56.5 18 -73.5s33.667 -25.5 65 -25.5h16v-39h-17c-44.667 0 -79.334 10.5 -104.001 31.5s-37 53.167 -37 96.5
c0 12 0.833008 25.333 2.5 40s3.83398 29.334 6.50098 44.001c2 14 3.66699 28 5 42s2 27.333 2 40c0 26.667 -5.5 47.334 -16.5 62.001s-32.167 22.334 -63.5 23.001v44z" />
    <glyph glyph-name="bar" unicode="|" horiz-adv-x="247" 
d="M154 -202h-60v977h60v-977z" />
    <glyph glyph-name="braceright" unicode="}" horiz-adv-x="310" 
d="M256 260c-32.667 -0.666992 -54.334 -8.16895 -65.001 -22.502s-16 -35.166 -16 -62.499c0 -12.667 0.666992 -26 2 -40s3 -28 5 -42c2 -14.667 3.83301 -29.334 5.5 -44.001s2.5 -28 2.5 -40c0 -43.333 -12.167 -75.5 -36.5 -96.5s-58.833 -31.5 -103.5 -31.5h-16v39h15
c30.667 0 52.334 8.5 65.001 25.5s19 41.5 19 73.5c0 13.333 -0.666992 26.333 -2 39s-3 25.334 -5 38.001c-2 13.333 -3.83301 26.5 -5.5 39.5s-2.5 25.5 -2.5 37.5c0 28 6.33301 50.833 19 68.5s34.667 31.167 66 40.5c-31.333 8.66699 -53.333 22 -66 40s-19 41 -19 69
c0 12 0.833008 24.5 2.5 37.5s3.5 26.167 5.5 39.5c2 12.667 3.66699 25.334 5 38.001s2 25.334 2 38.001c0 32.667 -6.33301 57.667 -19 75s-34.334 26 -65.001 26h-15v39h16c44.667 0 79.167 -10.5 103.5 -31.5s36.5 -53.5 36.5 -97.5
c0 -12.667 -0.833008 -26.167 -2.5 -40.5s-3.5 -28.833 -5.5 -43.5s-3.66699 -28.834 -5 -42.501s-2 -26.834 -2 -39.501c0 -27.333 5.33301 -48.166 16 -62.499s32.334 -21.833 65.001 -22.5v-44z" />
    <glyph glyph-name="asciitilde" unicode="~" horiz-adv-x="544" 
d="M481 369c2.66699 -3.33301 5.66504 -6.66992 8.99805 -10.0029l10 -10c-12.667 -24 -30.167 -45.167 -52.5 -63.5s-47.5 -27.5 -75.5 -27.5c-26.667 0 -48.667 4.66699 -66 14s-33.666 19.333 -48.999 30c-12 8.66699 -24.667 16.334 -38 23.001s-26.666 10 -39.999 10
s-25.166 -1.66699 -35.499 -5s-19.5 -8 -27.5 -14s-15.167 -13 -21.5 -21s-12.5 -16.333 -18.5 -25c-5.33301 5.33301 -10.5 10.833 -15.5 16.5l-14.5 16.5c6 10.667 13.333 21.334 22 32.001s18.5 20.334 29.5 29.001s23 15.667 36 21s27.167 8 42.5 8
c26 0 47.333 -4.5 64 -13.5s32.334 -18.5 47.001 -28.5c13.333 -8.66699 26.166 -16.5 38.499 -23.5s27.166 -10.5 44.499 -10.5c23.333 0 42.833 6.33301 58.5 19s29.5 27.667 41.5 45z" />
    <glyph glyph-name="uni007F" horiz-adv-x="500" 
 />
    <glyph glyph-name="nonbreakingspace" unicode="&#xa0;" 
 />
    <glyph glyph-name="exclamdown" unicode="&#xa1;" horiz-adv-x="248" 
d="M90 -43c1.33301 56.667 3.16992 112.333 5.50293 167s4.16602 110 5.49902 166h48c1.33301 -56.667 3.16602 -112.167 5.49902 -166.5s4.16602 -109.833 5.49902 -166.5v-150h-70v150zM177.004 437.999c0 -14 -4.5 -26 -13.5 -36s-21.833 -15 -38.5 -15
c-17.333 0 -30.5 5 -39.5 15s-13.5 22 -13.5 36c0 15.333 4.5 27.833 13.5 37.5s22.167 14.5 39.5 14.5c16.667 0 29.5 -4.83301 38.5 -14.5s13.5 -22.167 13.5 -37.5z" />
    <glyph glyph-name="cent" unicode="&#xa2;" horiz-adv-x="566" 
d="M311 -7c-35.333 2.66699 -66.333 10.8311 -93 24.498s-48.834 31.5 -66.501 53.5s-31 47.5 -40 76.5s-13.5 60.167 -13.5 93.5c0 32.667 4.5 63.5 13.5 92.5s22.333 54.5 40 76.5s39.834 39.833 66.501 53.5s57.667 22.167 93 25.5v93h42v-92
c44.667 -2 85 -11.667 121 -29c-2 -7.33301 -4.5 -15.166 -7.5 -23.499s-5.5 -16.166 -7.5 -23.499c-14 6.66699 -29.833 11.834 -47.5 15.501s-37.167 6.16699 -58.5 7.5v-393c19.333 1.33301 38.833 4.16602 58.5 8.49902s37.167 9.83301 52.5 16.5l15 -48
c-34.667 -17.333 -76.667 -27 -126 -29v-93h-42v94zM164 240.997c0 -51.333 12.1689 -94.832 36.502 -130.499s61.166 -57.5 110.499 -65.5v391c-48.667 -6.66699 -85.334 -27.834 -110.001 -63.501s-37 -79.5 -37 -131.5z" />
    <glyph glyph-name="sterling" unicode="&#xa3;" horiz-adv-x="566" 
d="M335 599c-25.333 0 -46.5029 -3.83594 -63.5029 -11.5029s-30.667 -17.5 -41 -29.5s-17.833 -25.5 -22.5 -40.5s-7 -29.5 -7 -43.5c0 -23.333 3.83301 -44.666 11.5 -63.999s16.5 -38.666 26.5 -57.999h161v-47h-137c7.33301 -15.333 13 -30 17 -44s6 -28 6 -42
c0 -32 -8.5 -60.333 -25.5 -85s-40.167 -44.667 -69.5 -60l2 -7h326v-67h-446v67h33c34 13.333 60.833 33.833 80.5 61.5s29.5 55.167 29.5 82.5c0 17.333 -2.5 33.5 -7.5 48.5s-10.5 30.167 -16.5 45.5h-113v47h86c-11.333 21.333 -21.166 42.833 -29.499 64.5
s-12.5 44.5 -12.5 68.5c0 26.667 5.33301 50.667 16 72s25.334 39.5 44.001 54.5s40.334 26.667 65.001 35s51 12.5 79 12.5c34 0 61.833 -3.16699 83.5 -9.5s43.167 -15.166 64.5 -26.499l-17 -53c-18.667 10 -37.167 17.333 -55.5 22s-40.833 7 -67.5 7z" />
    <glyph glyph-name="currency" unicode="&#xa4;" horiz-adv-x="571" 
d="M476 152l-21.998 -24.001l-55 57c-18.667 -12 -36.834 -21 -54.501 -27s-36.5 -9 -56.5 -9c-21.333 0 -41 3 -59 9s-35.667 15 -53 27l-55 -57c-0.666992 1.33301 -2 3 -4 5l-5 5l-23 24l55 56c-12.667 16.667 -22 33.834 -28 51.501s-9 37.167 -9 58.5
c0 19.333 3.16699 38.166 9.5 56.499s15.5 36.833 27.5 55.5l-42 42l-9 8v-1c-0.666992 1.33301 -1.5 2.33301 -2.5 3s-2.16699 1.66699 -3.5 3l33 32l56 -56c17.333 13.333 35.166 23 53.499 29s37.5 9 57.5 9c38.667 0 75.667 -12.667 111 -38l56 55l11 -12
c6 -6.66699 12.333 -13 19 -19l-54 -55c25.333 -35.333 38 -72.666 38 -111.999c0 -19.333 -3.33301 -38.5 -10 -57.5s-16 -36.5 -28 -52.5l55 -56zM424.002 327.999c0 18.667 -3.66699 36.334 -11 53.001s-17.333 31 -30 43s-27.334 21.5 -44.001 28.5s-34 10.5 -52 10.5
c-18.667 0 -36.334 -3.5 -53.001 -10.5s-31.167 -16.5 -43.5 -28.5s-22 -26.333 -29 -43s-10.5 -34.334 -10.5 -53.001s3.5 -36.167 10.5 -52.5s16.667 -30.666 29 -42.999s26.833 -22 43.5 -29s34.334 -10.5 53.001 -10.5c18 0 35.333 3.5 52 10.5s31.334 16.667 44.001 29
s22.667 26.666 30 42.999s11 33.833 11 52.5z" />
    <glyph glyph-name="yen" unicode="&#xa5;" horiz-adv-x="566" 
d="M91 343h128l-84 152.5l-84 154.5h71l161 -310l164 310h71l-169 -307h128v-38h-148l-5 -9h1l-7 -12v-66h159v-38h-159v-180h-69v180h-158v38h158v66l-11 21h-147v38z" />
    <glyph glyph-name="brokenbar" unicode="&#xa6;" horiz-adv-x="246" 
d="M95 674h57v-347h-57v347zM95 170h57v-347h-57v347z" />
    <glyph glyph-name="section" unicode="&#xa7;" horiz-adv-x="566" 
d="M276 385l-46.999 15.002c-12 4 -23 8.66699 -33 14c-7.33301 -4.66699 -14 -10.667 -20 -18c-5.33301 -6 -9.83301 -13.333 -13.5 -22s-5.5 -18.667 -5.5 -30c0 -16 4.66699 -29.833 14 -41.5s21 -21.667 35 -30s29 -15.166 45 -20.499s30.667 -10 44 -14l10 -3
c15.333 -5.33301 27.5 -9.33301 36.5 -12s19.5 -7.33398 31.5 -14.001c7.33301 4 14.333 9.33301 21 16c5.33301 5.33301 10.166 12.166 14.499 20.499s6.5 18.166 6.5 29.499c0 26.667 -12.667 48.5 -38 65.5s-59 31.833 -101 44.5zM249.001 -11.998
c20 0 39.167 2.00293 57.5 6.00293s34.333 9.66699 48 17s24.667 16.5 33 27.5s12.5 23.5 12.5 37.5c0 15.333 -3.66699 28.666 -11 39.999s-16.833 21 -28.5 29s-25 15 -40 21s-30.167 11.333 -45.5 16c-16.667 4.66699 -35.667 10.667 -57 18s-41.5 17 -60.5 29
s-35.167 26.667 -48.5 44s-20 38.666 -20 63.999s6.66699 46.166 20 62.499s30 28.5 50 36.5c-17.333 16.667 -29.5 33.834 -36.5 51.501s-10.5 35.5 -10.5 53.5c0 42 16.667 76.167 50 102.5s79.666 39.5 138.999 39.5c25.333 0 50 -2.83301 74 -8.5
s46.333 -13.167 67 -22.5l-16 -47c-17.333 9.33301 -35.333 16.333 -54 21s-39.667 7 -63 7c-46 0 -79.667 -8.83301 -101 -26.5s-32 -39.5 -32 -65.5c0 -14 3.5 -26.167 10.5 -36.5s16.167 -19.5 27.5 -27.5s24.333 -15 39 -21s30 -11.667 46 -17
c19.333 -6 39.833 -13.167 61.5 -21.5s41.5 -18.5 59.5 -30.5s33 -26.333 45 -43s18 -36.667 18 -60s-6.66699 -43.5 -20 -60.5s-30.666 -29.167 -51.999 -36.5c19.333 -16.667 33 -35 41 -55s12 -38.667 12 -56c0 -21.333 -5.16699 -40.5 -15.5 -57.5
s-24.833 -31.5 -43.5 -43.5s-40.667 -21.167 -66 -27.5s-53.333 -9.5 -84 -9.5c-32 0 -61.5 3 -88.5 9s-50.833 14.333 -71.5 25c2 7.33301 4.66699 15 8 23s6 15.667 8 23c19.333 -8.66699 39.833 -15.834 61.5 -21.501s47.167 -8.5 76.5 -8.5z" />
    <glyph glyph-name="dieresis" unicode="&#xa8;" horiz-adv-x="295" 
d="M7 617c0 12 3.83301 22.167 11.5 30.5s18.5 12.5 32.5 12.5s24.833 -4.16699 32.5 -12.5s11.5 -18.5 11.5 -30.5c0 -11.333 -3.83301 -21.166 -11.5 -29.499s-18.5 -12.5 -32.5 -12.5s-24.833 4.16699 -32.5 12.5s-11.5 18.166 -11.5 29.499zM202 617
c0 12 3.83301 22.167 11.5 30.5s18.5 12.5 32.5 12.5c13.333 0 24 -4.16699 32 -12.5s12 -18.5 12 -30.5c0 -11.333 -4 -21.166 -12 -29.499s-18.667 -12.5 -32 -12.5c-14 0 -24.833 4.16699 -32.5 12.5s-11.5 18.166 -11.5 29.499z" />
    <glyph glyph-name="copyright" unicode="&#xa9;" horiz-adv-x="688" 
d="M42 337c0 43.333 8.16699 84 24.5 122s38.333 71.167 66 99.5s59.834 50.666 96.501 66.999s75.667 24.5 117 24.5s80.333 -8.16699 117 -24.5s68.834 -38.666 96.501 -66.999s49.667 -61.5 66 -99.5s24.5 -78.667 24.5 -122s-8.16699 -84 -24.5 -122
s-38.333 -71.167 -66 -99.5s-59.834 -50.666 -96.501 -66.999s-75.667 -24.5 -117 -24.5s-80.333 8.16699 -117 24.5s-68.834 38.666 -96.501 66.999s-49.667 61.5 -66 99.5s-24.5 78.667 -24.5 122zM611 337c0 38.667 -6.66699 74.834 -20 108.501
s-31.833 63.167 -55.5 88.5s-51.667 45.333 -84 60s-67.5 22 -105.5 22s-73.167 -7.33301 -105.5 -22s-60.333 -34.667 -84 -60s-42.167 -54.833 -55.5 -88.5s-20 -69.834 -20 -108.501s6.66699 -74.834 20 -108.501s31.833 -63.167 55.5 -88.5s51.667 -45.333 84 -60
s67.5 -22 105.5 -22s73.167 7.33301 105.5 22s60.333 34.667 84 60s42.167 54.833 55.5 88.5s20 69.834 20 108.501zM360 477c-41.333 0 -71.3379 -13.5029 -90.0049 -40.5029s-28 -60.5 -28 -100.5c0 -20 2.33301 -38.667 7 -56s11.834 -32.166 21.501 -44.499
s22 -22.166 37 -29.499s33.167 -11 54.5 -11c31.333 0 59.666 6.33301 84.999 19l9 -33c-14 -6.66699 -29.167 -11.834 -45.5 -15.501s-34.166 -5.5 -53.499 -5.5c-28 0 -52.167 4.5 -72.5 13.5s-37.166 21.5 -50.499 37.5s-23.166 34.667 -29.499 56s-9.5 44.333 -9.5 69
s3.33301 47.667 10 69s16.667 40 30 56s30.5 28.5 51.5 37.5s45.5 13.5 73.5 13.5c18.667 0 35.5 -1.66699 50.5 -5s29.5 -8.66602 43.5 -15.999c-1.33301 -5.33301 -3.16602 -10.666 -5.49902 -15.999s-4.16602 -10.666 -5.49902 -15.999
c-12 5.33301 -25 9.66602 -39 12.999s-28.667 5 -44 5z" />
    <glyph glyph-name="ordfeminine" unicode="&#xaa;" horiz-adv-x="345" 
d="M247 479l-75.001 0.000976562c-32 0 -56.167 -6.83301 -72.5 -20.5s-24.5 -32.834 -24.5 -57.501c0 -18.667 5.83301 -33.667 17.5 -45s26.834 -17 45.501 -17c16 0 30.667 3.16699 44 9.5s24.833 14.5 34.5 24.5s17.167 21.5 22.5 34.5s8 26.167 8 39.5v32z
M246.999 532.001c0 28.667 -7.66602 49.6641 -22.999 62.9971s-35.666 20 -60.999 20c-18.667 0 -37.334 -2.16699 -56.001 -6.5s-35.667 -10.166 -51 -17.499c-2 6.66699 -4.16699 13 -6.5 19s-4.5 12 -6.5 18c14 8 31.667 15.333 53 22s45 10 71 10
c45.333 0 79 -11.667 101 -35s33 -54.666 33 -93.999v-227h-44l-10 55c-12.667 -17.333 -27.834 -32.166 -45.501 -44.499s-42.167 -18.5 -73.5 -18.5c-30.667 0 -56.667 9 -78 27s-32 44 -32 78c0 40 13.667 69.333 41 88s65 28 113 28h75v15z" />
    <glyph glyph-name="guillemotleft" unicode="&#xab;" horiz-adv-x="451" 
d="M275 241l127 -178h-52l-65 88.5l-65 89.5l129 177h52zM98 241l127 -178h-52l-65 88.5l-65 89.5l129 177h52z" />
    <glyph glyph-name="logicalnot" unicode="&#xac;" horiz-adv-x="496" 
d="M386 125v182h-343v55h403v-237h-60z" />
    <glyph glyph-name="uni00AD" unicode="&#xad;" horiz-adv-x="295" 
d="M13 274h270v-52h-270v52z" />
    <glyph glyph-name="registered" unicode="&#xae;" horiz-adv-x="529" 
d="M43 461c0 31.333 5.33301 60.5 16 87.5s25.834 50.5 45.501 70.5s43.167 35.833 70.5 47.5s57.666 17.5 90.999 17.5s63.666 -5.83301 90.999 -17.5s50.833 -27.5 70.5 -47.5s34.834 -43.5 45.501 -70.5s16 -56.167 16 -87.5s-5.33301 -60.5 -16 -87.5
s-25.834 -50.5 -45.501 -70.5s-43.167 -35.833 -70.5 -47.5s-57.666 -17.5 -90.999 -17.5s-63.666 5.83301 -90.999 17.5s-50.833 27.5 -70.5 47.5s-34.834 43.5 -45.501 70.5s-16 56.167 -16 87.5zM458 461c0 26.667 -4.66699 52 -14 76s-22.5 45 -39.5 63
s-37.167 32.333 -60.5 43s-49.333 16 -78 16s-54.667 -5.33301 -78 -16s-43.5 -25 -60.5 -43s-30.167 -39 -39.5 -63s-14 -49.333 -14 -76c0 -27.333 4.66699 -52.833 14 -76.5s22.5 -44.5 39.5 -62.5s37.167 -32.167 60.5 -42.5s49.333 -15.5 78 -15.5
s54.667 5.16699 78 15.5s43.5 24.5 60.5 42.5s30.167 38.833 39.5 62.5s14 49.167 14 76.5zM366 510c0 -17.333 -5.66699 -32.5 -17 -45.5s-26.333 -22.167 -45 -27.5l30 -50l30 -51h-33l-58 98h-52v-98h-30v244h90c30 0 51.667 -6.83301 65 -20.5s20 -30.167 20 -49.5z
M335 510c0 14 -4.33301 24.833 -13 32.5s-22.667 11.5 -42 11.5h-59v-93h58c37.333 0 56 16.333 56 49z" />
    <glyph glyph-name="macron" unicode="&#xaf;" horiz-adv-x="295" 
d="M14 581v44h268v-44h-268z" />
    <glyph glyph-name="degree" unicode="&#xb0;" horiz-adv-x="351" 
d="M78 556c0 -13.333 2.5 -26.167 7.5 -38.5s11.833 -23 20.5 -32s19 -16.167 31 -21.5s25 -8 39 -8c29.333 0 53.5 9.83301 72.5 29.5s28.5 43.167 28.5 70.5c0 12.667 -2.5 24.834 -7.5 36.501s-12 22 -21 31s-19.667 16 -32 21s-25.833 7.5 -40.5 7.5
c-14 0 -27 -2.5 -39 -7.5s-22.333 -12 -31 -21s-15.5 -19.333 -20.5 -31s-7.5 -23.834 -7.5 -36.501zM43 555.999c0 17.333 3.33301 33.833 10 49.5s16 29.334 28 41.001s26.167 20.834 42.5 27.501s33.833 10 52.5 10s36.167 -3.33301 52.5 -10s30.5 -15.834 42.5 -27.501
s21.5 -25.334 28.5 -41.001s10.5 -32.167 10.5 -49.5c0 -18 -3.5 -34.833 -10.5 -50.5s-16.5 -29.5 -28.5 -41.5s-26.167 -21.333 -42.5 -28s-33.833 -10 -52.5 -10s-36.167 3.33301 -52.5 10s-30.5 16 -42.5 28s-21.333 25.833 -28 41.5s-10 32.5 -10 50.5z" />
    <glyph glyph-name="plusminus" unicode="&#xb1;" horiz-adv-x="566" 
d="M315 494v-176h180v-53h-180v-176h-60v176h-181v53h181v176h60zM495 43v-43h-421v43h421z" />
    <glyph glyph-name="twosuperior" unicode="&#xb2;" horiz-adv-x="307" 
d="M143 616c-12.667 0 -26.498 -2.16113 -41.498 -6.49414s-29.167 -9.5 -42.5 -15.5c-2 6.66699 -4.33301 13 -7 19s-5 12.333 -7 19c13.333 7.33301 28.666 13.666 45.999 18.999s35.333 8 54 8c39.333 0 68.333 -8.33301 87 -25s28 -39.334 28 -68.001
c0 -14.667 -3.5 -29.334 -10.5 -44.001s-15.833 -28.834 -26.5 -42.501s-22.334 -26.834 -35.001 -39.501l-35 -35l-56 -56h173v-45h-240v34l92 93l30.5 33.5c10.333 11.667 19.5 23.167 27.5 34.5s14.5 22.666 19.5 33.999s7.5 22.333 7.5 33
c0 16.667 -5.66699 29.167 -17 37.5s-27 12.5 -47 12.5z" />
    <glyph glyph-name="threesuperior" unicode="&#xb3;" horiz-adv-x="300" 
d="M133 340c26 0 45.3359 6.33398 58.0029 19.001s19 28 19 46c0 19.333 -6.5 34.166 -19.5 44.499s-30.167 15.5 -51.5 15.5h-51v41h51c17.333 0 31.666 4.83301 42.999 14.5s17 25.167 17 46.5c0 14.667 -5.33301 26.667 -16 36s-29.334 14 -56.001 14
c-15.333 0 -29.666 -1.66699 -42.999 -5s-26 -8 -38 -14c-2 6.66699 -4.33301 13 -7 19s-5 12.333 -7 19c28.667 15.333 61 23 97 23c44 0 75.5 -9 94.5 -27s28.5 -39.667 28.5 -65c0 -19.333 -6 -35.5 -18 -48.5s-27.667 -23.167 -47 -30.5
c25.333 -5.33301 44.166 -16 56.499 -32s18.5 -33 18.5 -51c0 -32.667 -10.833 -58.5 -32.5 -77.5s-53.5 -28.5 -95.5 -28.5c-22 0 -41.333 2.16699 -58 6.5s-31.334 9.83301 -44.001 16.5l12 39c12 -6 25.833 -11 41.5 -15s31.5 -6 47.5 -6z" />
    <glyph glyph-name="acute" unicode="&#xb4;" horiz-adv-x="295" 
d="M265 698l36 -49l-79 -49l-80 -49l-19 27z" />
    <glyph glyph-name="mu" unicode="&#xb5;" horiz-adv-x="556" 
d="M79 483h66v-307c0 -42 9.33301 -73.833 28 -95.5s45 -32.5 79 -32.5c18 0 34.833 3 50.5 9s30.334 13.833 44.001 23.5s26.167 20.667 37.5 33s21.333 25.166 30 38.499v331h68v-483h-54l-16 94c-7.33301 -11.333 -16.333 -23.166 -27 -35.499
s-22.834 -23.5 -36.501 -33.5s-28.667 -18.167 -45 -24.5s-33.5 -9.5 -51.5 -9.5c-49.333 0 -85 16.667 -107 50v-244h-66v686z" />
    <glyph glyph-name="paragraph" unicode="&#xb6;" horiz-adv-x="442" 
d="M45 502c0 26.667 4.66797 50.6689 14.001 72.002s22 39.5 38 54.5s34.667 26.333 56 34s44 11.5 68 11.5h191v-41h-33c-29.333 0 -49 -5.83301 -59 -17.5s-15 -29.834 -15 -54.501v-610h-60v382h-34c-21.333 0 -41.833 3.66699 -61.5 11s-37.334 18.166 -53.001 32.499
s-28.167 32 -37.5 53s-14 45.167 -14 72.5z" />
    <glyph glyph-name="periodcentered" unicode="&#xb7;" horiz-adv-x="236" 
d="M66 278c0 14.667 4.5 27 13.5 37s22.167 15 39.5 15c16.667 0 29.5 -5 38.5 -15s13.5 -22.333 13.5 -37c0 -14 -4.5 -26 -13.5 -36s-21.833 -15 -38.5 -15c-17.333 0 -30.5 5 -39.5 15s-13.5 22 -13.5 36z" />
    <glyph glyph-name="cedilla" unicode="&#xb8;" horiz-adv-x="295" 
d="M132 -166h-71l76 118h39z" />
    <glyph glyph-name="onesuperior" unicode="&#xb9;" horiz-adv-x="285" 
d="M123 607c-11.333 -3.33301 -23.5 -7.16797 -36.5 -11.501s-25.167 -8.16602 -36.5 -11.499v41l85 30h40v-307h81v-44h-217v44h84v259z" />
    <glyph glyph-name="ordmasculine" unicode="&#xba;" horiz-adv-x="394" 
d="M90 479c0 -19.333 2.00098 -37.5 6.00098 -54.5s10.5 -31.667 19.5 -44s20.167 -22 33.5 -29s29.666 -10.5 48.999 -10.5c18.667 0 35 3.5 49 10.5s25.333 16.667 34 29s15.167 27 19.5 44s6.5 35.167 6.5 54.5c0 39.333 -8.66699 71.666 -26 96.999s-45 38 -83 38
s-65.5 -12.667 -82.5 -38s-25.5 -57.666 -25.5 -96.999zM33.001 479c0 25.333 3.33301 49 10 71s16.667 41 30 57s30.5 28.667 51.5 38s45.5 14 73.5 14c28.667 0 53.334 -4.66699 74.001 -14s37.667 -22 51 -38s23.333 -35 30 -57s10 -45.667 10 -71
c0 -26 -3.33301 -50 -10 -72s-16.667 -41 -30 -57s-30.333 -28.667 -51 -38s-45.334 -14 -74.001 -14c-28 0 -52.5 4.66699 -73.5 14s-38.167 22 -51.5 38s-23.333 35 -30 57s-10 46 -10 72z" />
    <glyph glyph-name="guillemotright" unicode="&#xbb;" horiz-adv-x="451" 
d="M51 418h53l129 -177l-64.5 -89.5l-64.5 -88.5h-53l128 178zM229 418h52l129 -177l-64.5 -89.5l-64.5 -88.5h-53l128 178z" />
    <glyph glyph-name="onequarter" unicode="&#xbc;" horiz-adv-x="760" 
d="M537 660h57l-366 -660h-56zM139 607c-11.333 -3.33301 -23.332 -7.16797 -35.999 -11.501s-24.667 -8.16602 -36 -11.499v41c13.333 5.33301 27.166 10.333 41.499 15s28.5 9.66699 42.5 15h41v-307h81v-44h-218v44h84v259zM592.001 112.998v159l-117 -159h117z
M596.001 350.998h44v-238h41v-45h-41v-68h-49v68h-169v38z" />
    <glyph glyph-name="onehalf" unicode="&#xbd;" horiz-adv-x="760" 
d="M538 660h56l-367 -660h-55zM139 607c-11.333 -3.33301 -23.332 -7.16797 -35.999 -11.501s-24.667 -8.16602 -36 -11.499v41c13.333 5.33301 27.166 10.333 41.499 15s28.5 9.66699 42.5 15h41v-307h81v-44h-218v44h84v259zM586.001 312.998
c-13.333 0 -27.3311 -2.16602 -41.998 -6.49902s-28.667 -9.83301 -42 -16.5c-2 7.33301 -4.33301 14 -7 20s-5.33398 12.333 -8.00098 19c14 6.66699 29.667 12.667 47 18s35.333 8 54 8c39.333 0 68.333 -8.16699 87 -24.5s28 -39.166 28 -68.499
c0 -14.667 -3.5 -29.334 -10.5 -44.001s-15.833 -28.834 -26.5 -42.501s-22.334 -26.834 -35.001 -39.501l-35 -35l-56 -55h173v-46h-240v34l91 94c10.667 10.667 21 21.667 31 33s19 22.833 27 34.5s14.5 23.167 19.5 34.5s7.5 22 7.5 32
c0 16.667 -5.5 29.334 -16.5 38.001s-26.5 13 -46.5 13z" />
    <glyph glyph-name="threequarters" unicode="&#xbe;" horiz-adv-x="760" 
d="M538 660h56l-366 -660h-56zM592 113v159l-117 -159h117zM596 351h44v-238h41v-45h-41v-68h-49v68h-169v38zM148 340c26.667 0 46.332 6.33301 58.999 19s19 28 19 46c0 19.333 -6.66699 34.166 -20 44.499s-30.666 15.5 -51.999 15.5h-50v41h50
c17.333 0 31.833 4.83301 43.5 14.5s17.5 25.167 17.5 46.5c0 14.667 -5.33301 26.667 -16 36s-29.334 14 -56.001 14c-15.333 0 -29.666 -1.66699 -42.999 -5s-26 -8 -38 -14c-2 6.66699 -4.5 13 -7.5 19s-5.5 12.333 -7.5 19c29.333 15.333 62 23 98 23
c22 0 40.667 -2.5 56 -7.5s27.833 -11.667 37.5 -20s16.834 -18 21.501 -29s7 -22.833 7 -35.5c0 -19.333 -6 -35.5 -18 -48.5s-28 -23.167 -48 -30.5c26.667 -5.33301 46 -16 58 -32s18 -33 18 -51c0 -32.667 -10.833 -58.5 -32.5 -77.5s-53.167 -28.5 -94.5 -28.5
c-22.667 0 -42.334 2.16699 -59.001 6.5s-31.667 10.166 -45 17.499c2 6.66699 4.33301 12.834 7 18.501s5 11.834 7 18.501c12 -6 25.667 -10.833 41 -14.5s31 -5.5 47 -5.5z" />
    <glyph glyph-name="questiondown" unicode="&#xbf;" horiz-adv-x="488" 
d="M265 -143c26.667 0 54.165 3.83496 82.498 11.502s52.833 16.167 73.5 25.5l17 -55c-21.333 -10.667 -47.166 -20.334 -77.499 -29.001s-62.5 -13 -96.5 -13c-67.333 0 -117.666 14.667 -150.999 44s-50 69.333 -50 120c0 18.667 3.16699 36.5 9.5 53.5s14.333 33 24 48
s20.334 29 32.001 42s23.167 25.167 34.5 36.5c9.33301 8.66699 18.666 18.167 27.999 28.5s17.833 20.833 25.5 31.5s13.834 21.667 18.501 33s7 23 7 35c0 20 -2.33301 36.667 -7 50h55c3.33301 -6.66699 6.16602 -14.834 8.49902 -24.501s3.5 -19.167 3.5 -28.5
c0 -16 -2.33301 -30.667 -7 -44s-11 -26 -19 -38s-17 -23.333 -27 -34l-31 -32l-31.5 -32.5c-10.333 -11 -19.5 -22.5 -27.5 -34.5s-14.5 -25 -19.5 -39s-7.5 -29 -7.5 -45c0 -14.667 2.5 -28.667 7.5 -42s12.833 -25 23.5 -35s24.5 -18 41.5 -24s37.167 -9 60.5 -9z
M312.998 438.002c0 -14 -4.5 -26 -13.5 -36s-21.833 -15 -38.5 -15c-17.333 0 -30.5 5 -39.5 15s-13.5 22 -13.5 36c0 15.333 4.5 27.833 13.5 37.5s22.167 14.5 39.5 14.5c16.667 0 29.5 -4.83301 38.5 -14.5s13.5 -22.167 13.5 -37.5z" />
    <glyph glyph-name="Agrave" unicode="&#xc0;" horiz-adv-x="622" 
d="M461 187h-297l-68 -187h-70l251 674h71l125.5 -337l125.5 -337h-70zM187 248h251.001l-77 207l-23.5 75l-23.5 74c-8.66699 -22 -17.334 -46.667 -26.001 -74l-24 -75zM401.001 774l-20 -27.001l-79 49l-80 49l19.5 24.5c6.33301 7.66699 12.5 15.834 18.5 24.501z" />
    <glyph glyph-name="Aacute" unicode="&#xc1;" horiz-adv-x="622" 
d="M461 187h-297l-68 -187h-70l251 674h71l125.5 -337l125.5 -337h-70zM187 248h251.001l-77 207l-23.5 75l-23.5 74c-8.66699 -22 -17.334 -46.667 -26.001 -74l-24 -75zM365.001 894l36 -49l-79 -49l-80 -49l-19 27z" />
    <glyph glyph-name="Acircumflex" unicode="&#xc2;" horiz-adv-x="622" 
d="M461 187h-297l-68 -187h-70l251 674h71l125.5 -337l125.5 -337h-70zM187 248h251.001l-77 207l-23.5 75l-23.5 74c-8.66699 -22 -17.334 -46.667 -26.001 -74l-24 -75zM445.001 749h-59l-75 92l-74 -92h-60l56 66.5l55 66.5h47z" />
    <glyph glyph-name="Atilde" unicode="&#xc3;" horiz-adv-x="622" 
d="M461 187h-297l-68 -187h-70l251 674h71l125.5 -337l125.5 -337h-70zM187 248h251.001l-77 207l-23.5 75l-23.5 74c-8.66699 -22 -17.334 -46.667 -26.001 -74l-24 -75zM459.001 853c-1.33301 -30.667 -9.33105 -53.832 -23.998 -69.499s-34 -23.5 -58 -23.5
c-17.333 0 -31.666 2.83301 -42.999 8.5s-21.666 11.5 -30.999 17.5s-18.333 11.167 -27 15.5s-17.667 6.5 -27 6.5c-14.667 0 -24.834 -4.33301 -30.501 -13s-8.83398 -19.334 -9.50098 -32.001h-45c1.33301 29.333 9.16602 52 23.499 68s34.166 24 59.499 24
c15.333 0 28.833 -2.66699 40.5 -8s22.167 -11.333 31.5 -18c9.33301 -6 18.333 -11.167 27 -15.5s18 -6.5 28 -6.5c14.667 0 24.667 4.16699 30 12.5s8 19.5 8 33.5h47z" />
    <glyph glyph-name="Adieresis" unicode="&#xc4;" horiz-adv-x="622" 
d="M461 187h-297l-68 -187h-70l251 674h71l125.5 -337l125.5 -337h-70zM187 248h251.001l-77 207l-23.5 75l-23.5 74c-8.66699 -22 -17.334 -46.667 -26.001 -74l-24 -75zM170.001 813c0 12 3.83301 22.167 11.5 30.5s18.5 12.5 32.5 12.5s24.833 -4.16699 32.5 -12.5
s11.5 -18.5 11.5 -30.5c0 -11.333 -3.83301 -21.166 -11.5 -29.499s-18.5 -12.5 -32.5 -12.5s-24.833 4.16699 -32.5 12.5s-11.5 18.166 -11.5 29.499zM365.001 813c0 12 3.83301 22.167 11.5 30.5s18.5 12.5 32.5 12.5c13.333 0 24 -4.16699 32 -12.5s12 -18.5 12 -30.5
c0 -11.333 -4 -21.166 -12 -29.499s-18.667 -12.5 -32 -12.5c-14 0 -24.833 4.16699 -32.5 12.5s-11.5 18.166 -11.5 29.499z" />
    <glyph glyph-name="Aring" unicode="&#xc5;" horiz-adv-x="622" 
d="M461 187h-297l-68 -187h-70l251 674h71l125.5 -337l125.5 -337h-70zM187 248h251.001l-77 207l-23.5 75l-23.5 74c-8.66699 -22 -17.334 -46.667 -26.001 -74l-24 -75zM259.001 832c0 -16.667 5.33105 -30 15.998 -40s23 -15 37 -15c14.667 0 27.334 5 38.001 15
s16 23.333 16 40c0 17.333 -5.16699 31.166 -15.5 41.499s-23.166 15.5 -38.499 15.5c-14.667 0 -27.167 -5.16699 -37.5 -15.5s-15.5 -24.166 -15.5 -41.499zM222.999 831c0 25.333 8.5 46.833 25.5 64.5s38.167 26.5 63.5 26.5c24.667 0 45.667 -8.83301 63 -26.5
s26 -39.167 26 -64.5c0 -12 -2.33301 -23.333 -7 -34s-11 -20 -19 -28s-17.5 -14.333 -28.5 -19s-22.5 -7 -34.5 -7c-25.333 0 -46.5 8.66699 -63.5 26s-25.5 38 -25.5 62z" />
    <glyph glyph-name="AE" unicode="&#xc6;" horiz-adv-x="816" 
d="M470 187h-296l-40.5 -93.5l-40.5 -93.5h-69l298 674h441v-63h-350l68 -233h261v-61h-242l74 -255h195v-62h-243zM201 248h253l-64 207l-36 150l-30.5 -74.5l-30.5 -75.5v1z" />
    <glyph glyph-name="Ccedilla" unicode="&#xc7;" horiz-adv-x="570" 
d="M368 622c-78.667 0 -140.166 -24.6709 -184.499 -74.0039s-66.5 -119.666 -66.5 -210.999c0 -90.667 21.833 -160.667 65.5 -210s105.167 -74 184.5 -74c26.667 0 52.5 2.5 77.5 7.5s48.167 12.167 69.5 21.5l17 -56c-24 -11.333 -49.167 -20 -75.5 -26
s-56.166 -9 -89.499 -9c-54.667 0 -101.834 8.33301 -141.501 25s-72.5 40 -98.5 70s-45.333 66.333 -58 109s-19 90 -19 142c0 50.667 7 97.334 21 140.001s34.5 79.167 61.5 109.5s60.167 54 99.5 71s84.666 25.5 135.999 25.5c33.333 0 62.333 -2.66699 87 -8
s48 -13 70 -23c-2.66699 -9.33301 -5.5 -18.666 -8.5 -27.999s-5.83301 -18.666 -8.5 -27.999c-38.667 17.333 -85 26 -139 26zM329.001 -166.004h-71l76 118h39z" />
    <glyph glyph-name="Egrave" unicode="&#xc8;" horiz-adv-x="545" 
d="M85 674h404v-62h-335v-233h315v-62h-315v-255h341v-62h-410v674zM382 774l-20 -27.001l-79 49l-80 49l19.5 24.5c6.33301 7.66699 12.5 15.834 18.5 24.501z" />
    <glyph glyph-name="Eacute" unicode="&#xc9;" horiz-adv-x="545" 
d="M85 674h404v-62h-335v-233h315v-62h-315v-255h341v-62h-410v674zM346 894l36 -49l-79 -49l-80 -49l-19 27z" />
    <glyph glyph-name="Ecircumflex" unicode="&#xca;" horiz-adv-x="545" 
d="M85 674h404v-62h-335v-233h315v-62h-315v-255h341v-62h-410v674zM427 749h-59l-75 92l-74 -92h-60l56 66.5l55 66.5h47z" />
    <glyph glyph-name="Edieresis" unicode="&#xcb;" horiz-adv-x="545" 
d="M85 674h404v-62h-335v-233h315v-62h-315v-255h341v-62h-410v674zM152 813c0 12 3.83301 22.167 11.5 30.5s18.5 12.5 32.5 12.5s24.833 -4.16699 32.5 -12.5s11.5 -18.5 11.5 -30.5c0 -11.333 -3.83301 -21.166 -11.5 -29.499s-18.5 -12.5 -32.5 -12.5
s-24.833 4.16699 -32.5 12.5s-11.5 18.166 -11.5 29.499zM347 813c0 12 3.83301 22.167 11.5 30.5s18.5 12.5 32.5 12.5c13.333 0 24 -4.16699 32 -12.5s12 -18.5 12 -30.5c0 -11.333 -4 -21.166 -12 -29.499s-18.667 -12.5 -32 -12.5c-14 0 -24.833 4.16699 -32.5 12.5
s-11.5 18.166 -11.5 29.499z" />
    <glyph glyph-name="Igrave" unicode="&#xcc;" horiz-adv-x="244" 
d="M157 0h-69v674h69v-674zM212 774l-20 -27.001l-79 49l-80 49l19.5 24.5c6.33301 7.66699 12.5 15.834 18.5 24.501z" />
    <glyph glyph-name="Iacute" unicode="&#xcd;" horiz-adv-x="244" 
d="M157 0h-69v674h69v-674zM176 894l36 -49l-79 -49l-80 -49l-19 27z" />
    <glyph glyph-name="Icircumflex" unicode="&#xce;" horiz-adv-x="244" 
d="M157 0h-69v674h69v-674zM257 749h-59l-75 92l-74 -92h-60l56 66.5l55 66.5h47z" />
    <glyph glyph-name="Idieresis" unicode="&#xcf;" horiz-adv-x="244" 
d="M157 0h-69v674h69v-674zM-18 813c0 12 3.83301 22.167 11.5 30.5s18.5 12.5 32.5 12.5s24.833 -4.16699 32.5 -12.5s11.5 -18.5 11.5 -30.5c0 -11.333 -3.83301 -21.166 -11.5 -29.499s-18.5 -12.5 -32.5 -12.5s-24.833 4.16699 -32.5 12.5s-11.5 18.166 -11.5 29.499z
M177 813c0 12 3.83301 22.167 11.5 30.5s18.5 12.5 32.5 12.5c13.333 0 24 -4.16699 32 -12.5s12 -18.5 12 -30.5c0 -11.333 -4 -21.166 -12 -29.499s-18.667 -12.5 -32 -12.5c-14 0 -24.833 4.16699 -32.5 12.5s-11.5 18.166 -11.5 29.499z" />
    <glyph glyph-name="Eth" unicode="&#xd0;" horiz-adv-x="650" 
d="M85 356v318.001h186c110 0 193 -28.333 249 -85s84 -140.334 84 -251.001s-28 -194.667 -84 -252s-139 -86 -249 -86h-186v305h-70v51h70zM535 338.001c0 48.667 -5.66699 90.333 -17 125s-28.166 63 -50.499 85s-50 38 -83 48s-70.833 15 -113.5 15h-117v-255h180v-51
h-180v-242h117c85.333 0 150.666 21.5 195.999 64.5s68 113.167 68 210.5z" />
    <glyph glyph-name="Ntilde" unicode="&#xd1;" horiz-adv-x="663" 
d="M447 215c14 -23.333 26.667 -45.5039 38 -66.5039l27 -51.5l7 2c-2 23.333 -3.5 46.333 -4.5 69s-1.5 48 -1.5 76v430h69v-674h-76l-286 459c-10.667 15.333 -21.667 33.833 -33 55.5s-21 40.834 -29 57.501v-2c0 0.666992 -0.333008 1.33398 -1 2.00098
s-1 1.33398 -1 2.00098h-8c2 -23.333 3.5 -46.166 4.5 -68.499s1.5 -47.5 1.5 -75.5v-430h-69v674h76zM480 852.996c-1.33301 -30.667 -9.33105 -53.832 -23.998 -69.499s-34 -23.5 -58 -23.5c-17.333 0 -31.666 2.83301 -42.999 8.5s-21.666 11.5 -30.999 17.5
s-18.333 11.167 -27 15.5s-17.667 6.5 -27 6.5c-14.667 0 -24.834 -4.33301 -30.501 -13s-8.83398 -19.334 -9.50098 -32.001h-45c1.33301 29.333 9.16602 52 23.499 68s34.166 24 59.499 24c15.333 0 28.833 -2.66699 40.5 -8s22.167 -11.333 31.5 -18
c9.33301 -6 18.333 -11.167 27 -15.5s18 -6.5 28 -6.5c14.667 0 24.667 4.16699 30 12.5s8 19.5 8 33.5h47z" />
    <glyph glyph-name="Ograve" unicode="&#xd2;" horiz-adv-x="688" 
d="M346 47c38.667 0 72.334 6.66699 101.001 20s52.5 32.5 71.5 57.5s33.167 55.5 42.5 91.5s14 76.333 14 121s-4.66699 85 -14 121s-23.5 66.5 -42.5 91.5s-42.833 44.167 -71.5 57.5s-62.334 20 -101.001 20s-72.5 -6.66699 -101.5 -20s-53 -32.5 -72 -57.5
s-33.167 -55.5 -42.5 -91.5s-14 -76.333 -14 -121s4.66699 -85 14 -121s23.5 -66.5 42.5 -91.5s43 -44.167 72 -57.5s62.833 -20 101.5 -20zM346 -9c-51.333 0 -95.5 8.66699 -132.5 26s-67.833 41.5 -92.5 72.5s-42.834 67.667 -54.501 110s-17.5 88.166 -17.5 137.499
s5.83301 95.166 17.5 137.499s29.834 79 54.501 110s55.5 55.167 92.5 72.5s81.167 26 132.5 26c50.667 0 94.834 -8.66699 132.501 -26s68.667 -41.5 93 -72.5s42.5 -67.667 54.5 -110s18 -88.166 18 -137.499s-6 -95.166 -18 -137.499s-30.167 -79 -54.5 -110
s-55.333 -55.167 -93 -72.5s-81.834 -26 -132.501 -26zM434 774l-20 -27.001l-79 49l-80 49l19.5 24.5c6.33301 7.66699 12.5 15.834 18.5 24.501z" />
    <glyph glyph-name="Oacute" unicode="&#xd3;" horiz-adv-x="688" 
d="M346 47c38.667 0 72.334 6.66699 101.001 20s52.5 32.5 71.5 57.5s33.167 55.5 42.5 91.5s14 76.333 14 121s-4.66699 85 -14 121s-23.5 66.5 -42.5 91.5s-42.833 44.167 -71.5 57.5s-62.334 20 -101.001 20s-72.5 -6.66699 -101.5 -20s-53 -32.5 -72 -57.5
s-33.167 -55.5 -42.5 -91.5s-14 -76.333 -14 -121s4.66699 -85 14 -121s23.5 -66.5 42.5 -91.5s43 -44.167 72 -57.5s62.833 -20 101.5 -20zM346 -9c-51.333 0 -95.5 8.66699 -132.5 26s-67.833 41.5 -92.5 72.5s-42.834 67.667 -54.501 110s-17.5 88.166 -17.5 137.499
s5.83301 95.166 17.5 137.499s29.834 79 54.501 110s55.5 55.167 92.5 72.5s81.167 26 132.5 26c50.667 0 94.834 -8.66699 132.501 -26s68.667 -41.5 93 -72.5s42.5 -67.667 54.5 -110s18 -88.166 18 -137.499s-6 -95.166 -18 -137.499s-30.167 -79 -54.5 -110
s-55.333 -55.167 -93 -72.5s-81.834 -26 -132.501 -26zM398 894l36 -49l-79 -49l-80 -49l-19 27z" />
    <glyph glyph-name="Ocircumflex" unicode="&#xd4;" horiz-adv-x="688" 
d="M346 47c38.667 0 72.334 6.66699 101.001 20s52.5 32.5 71.5 57.5s33.167 55.5 42.5 91.5s14 76.333 14 121s-4.66699 85 -14 121s-23.5 66.5 -42.5 91.5s-42.833 44.167 -71.5 57.5s-62.334 20 -101.001 20s-72.5 -6.66699 -101.5 -20s-53 -32.5 -72 -57.5
s-33.167 -55.5 -42.5 -91.5s-14 -76.333 -14 -121s4.66699 -85 14 -121s23.5 -66.5 42.5 -91.5s43 -44.167 72 -57.5s62.833 -20 101.5 -20zM346 -9c-51.333 0 -95.5 8.66699 -132.5 26s-67.833 41.5 -92.5 72.5s-42.834 67.667 -54.501 110s-17.5 88.166 -17.5 137.499
s5.83301 95.166 17.5 137.499s29.834 79 54.501 110s55.5 55.167 92.5 72.5s81.167 26 132.5 26c50.667 0 94.834 -8.66699 132.501 -26s68.667 -41.5 93 -72.5s42.5 -67.667 54.5 -110s18 -88.166 18 -137.499s-6 -95.166 -18 -137.499s-30.167 -79 -54.5 -110
s-55.333 -55.167 -93 -72.5s-81.834 -26 -132.501 -26zM478 749h-59l-75 92l-74 -92h-60l56 66.5l55 66.5h47z" />
    <glyph glyph-name="Otilde" unicode="&#xd5;" horiz-adv-x="688" 
d="M346 47c38.667 0 72.334 6.66699 101.001 20s52.5 32.5 71.5 57.5s33.167 55.5 42.5 91.5s14 76.333 14 121s-4.66699 85 -14 121s-23.5 66.5 -42.5 91.5s-42.833 44.167 -71.5 57.5s-62.334 20 -101.001 20s-72.5 -6.66699 -101.5 -20s-53 -32.5 -72 -57.5
s-33.167 -55.5 -42.5 -91.5s-14 -76.333 -14 -121s4.66699 -85 14 -121s23.5 -66.5 42.5 -91.5s43 -44.167 72 -57.5s62.833 -20 101.5 -20zM346 -9c-51.333 0 -95.5 8.66699 -132.5 26s-67.833 41.5 -92.5 72.5s-42.834 67.667 -54.501 110s-17.5 88.166 -17.5 137.499
s5.83301 95.166 17.5 137.499s29.834 79 54.501 110s55.5 55.167 92.5 72.5s81.167 26 132.5 26c50.667 0 94.834 -8.66699 132.501 -26s68.667 -41.5 93 -72.5s42.5 -67.667 54.5 -110s18 -88.166 18 -137.499s-6 -95.166 -18 -137.499s-30.167 -79 -54.5 -110
s-55.333 -55.167 -93 -72.5s-81.834 -26 -132.501 -26zM492 853c-1.33301 -30.667 -9.33105 -53.832 -23.998 -69.499s-34 -23.5 -58 -23.5c-17.333 0 -31.666 2.83301 -42.999 8.5s-21.666 11.5 -30.999 17.5s-18.333 11.167 -27 15.5s-17.667 6.5 -27 6.5
c-14.667 0 -24.834 -4.33301 -30.501 -13s-8.83398 -19.334 -9.50098 -32.001h-45c1.33301 29.333 9.16602 52 23.499 68s34.166 24 59.499 24c15.333 0 28.833 -2.66699 40.5 -8s22.167 -11.333 31.5 -18c9.33301 -6 18.333 -11.167 27 -15.5s18 -6.5 28 -6.5
c14.667 0 24.667 4.16699 30 12.5s8 19.5 8 33.5h47z" />
    <glyph glyph-name="Odieresis" unicode="&#xd6;" horiz-adv-x="688" 
d="M346 47c38.667 0 72.334 6.66699 101.001 20s52.5 32.5 71.5 57.5s33.167 55.5 42.5 91.5s14 76.333 14 121s-4.66699 85 -14 121s-23.5 66.5 -42.5 91.5s-42.833 44.167 -71.5 57.5s-62.334 20 -101.001 20s-72.5 -6.66699 -101.5 -20s-53 -32.5 -72 -57.5
s-33.167 -55.5 -42.5 -91.5s-14 -76.333 -14 -121s4.66699 -85 14 -121s23.5 -66.5 42.5 -91.5s43 -44.167 72 -57.5s62.833 -20 101.5 -20zM346 -9c-51.333 0 -95.5 8.66699 -132.5 26s-67.833 41.5 -92.5 72.5s-42.834 67.667 -54.501 110s-17.5 88.166 -17.5 137.499
s5.83301 95.166 17.5 137.499s29.834 79 54.501 110s55.5 55.167 92.5 72.5s81.167 26 132.5 26c50.667 0 94.834 -8.66699 132.501 -26s68.667 -41.5 93 -72.5s42.5 -67.667 54.5 -110s18 -88.166 18 -137.499s-6 -95.166 -18 -137.499s-30.167 -79 -54.5 -110
s-55.333 -55.167 -93 -72.5s-81.834 -26 -132.501 -26zM203 813c0 12 3.83301 22.167 11.5 30.5s18.5 12.5 32.5 12.5s24.833 -4.16699 32.5 -12.5s11.5 -18.5 11.5 -30.5c0 -11.333 -3.83301 -21.166 -11.5 -29.499s-18.5 -12.5 -32.5 -12.5s-24.833 4.16699 -32.5 12.5
s-11.5 18.166 -11.5 29.499zM398 813c0 12 3.83301 22.167 11.5 30.5s18.5 12.5 32.5 12.5c13.333 0 24 -4.16699 32 -12.5s12 -18.5 12 -30.5c0 -11.333 -4 -21.166 -12 -29.499s-18.667 -12.5 -32 -12.5c-14 0 -24.833 4.16699 -32.5 12.5s-11.5 18.166 -11.5 29.499z" />
    <glyph glyph-name="multiply" unicode="&#xd7;" horiz-adv-x="566" 
d="M431 91l-150 150l-150 -150l-42 42l150 149l-151 151l43 42l150 -150l150 150l42 -42l-151 -151l151 -149z" />
    <glyph glyph-name="Oslash" unicode="&#xd8;" horiz-adv-x="688" 
d="M542 616c34.667 -32.667 60.333 -72.667 77 -120s25 -100.333 25 -159c0 -49.333 -6 -95.166 -18 -137.499s-30.167 -79 -54.5 -110s-55.333 -55.167 -93 -72.5s-81.834 -26 -132.501 -26c-32.667 0 -62.167 3.33301 -88.5 10s-50.5 16.667 -72.5 30l-44 -71h-51l60 97
c-35.333 32 -61 72 -77 120s-24 101.333 -24 160c0 49.333 5.83301 95.166 17.5 137.499s29.834 79 54.501 110s55.5 55.167 92.5 72.5s81.167 26 132.5 26c32 0 61.167 -3.5 87.5 -10.5s50.5 -17.167 72.5 -30.5l45 72h51zM115.999 337c0 -48 5.5 -91 16.5 -129
s27.833 -70.333 50.5 -97l292 479c-17.333 11.333 -36.833 20.333 -58.5 27s-45.167 10 -70.5 10c-38.667 0 -72.5 -6.66699 -101.5 -20s-53 -32.5 -72 -57.5s-33.167 -55.5 -42.5 -91.5s-14 -76.333 -14 -121zM345.999 47c38.667 0 72.333 6.66699 101 20
s52.5 32.5 71.5 57.5s33.167 55.5 42.5 91.5s14 76.333 14 121c0 95.333 -22.333 170 -67 224l-291 -477c36 -24.667 79 -37 129 -37z" />
    <glyph glyph-name="Ugrave" unicode="&#xd9;" horiz-adv-x="664" 
d="M334 -9c-38.667 0 -73.498 5.5 -104.498 16.5s-57.333 27.833 -79 50.5s-38.334 51.5 -50.001 86.5s-17.5 76.167 -17.5 123.5v406h69v-407c0 -73.333 15.667 -127.166 47 -161.499s76.333 -51.5 135 -51.5s103.667 17.167 135 51.5s47 88.166 47 161.499v407h69v-406
c0 -47.333 -5.83301 -88.5 -17.5 -123.5s-28.334 -63.833 -50.001 -86.5s-48 -39.5 -79 -50.5s-65.833 -16.5 -104.5 -16.5zM422.002 774l-20 -27.001l-79 49l-80 49l19.5 24.5c6.33301 7.66699 12.5 15.834 18.5 24.501z" />
    <glyph glyph-name="Uacute" unicode="&#xda;" horiz-adv-x="664" 
d="M334 -9c-38.667 0 -73.498 5.5 -104.498 16.5s-57.333 27.833 -79 50.5s-38.334 51.5 -50.001 86.5s-17.5 76.167 -17.5 123.5v406h69v-407c0 -73.333 15.667 -127.166 47 -161.499s76.333 -51.5 135 -51.5s103.667 17.167 135 51.5s47 88.166 47 161.499v407h69v-406
c0 -47.333 -5.83301 -88.5 -17.5 -123.5s-28.334 -63.833 -50.001 -86.5s-48 -39.5 -79 -50.5s-65.833 -16.5 -104.5 -16.5zM386.002 894l36 -49l-79 -49l-80 -49l-19 27z" />
    <glyph glyph-name="Ucircumflex" unicode="&#xdb;" horiz-adv-x="664" 
d="M334 -9c-38.667 0 -73.498 5.5 -104.498 16.5s-57.333 27.833 -79 50.5s-38.334 51.5 -50.001 86.5s-17.5 76.167 -17.5 123.5v406h69v-407c0 -73.333 15.667 -127.166 47 -161.499s76.333 -51.5 135 -51.5s103.667 17.167 135 51.5s47 88.166 47 161.499v407h69v-406
c0 -47.333 -5.83301 -88.5 -17.5 -123.5s-28.334 -63.833 -50.001 -86.5s-48 -39.5 -79 -50.5s-65.833 -16.5 -104.5 -16.5zM466.002 749h-59l-75 92l-74 -92h-60l56 66.5l55 66.5h47z" />
    <glyph glyph-name="Udieresis" unicode="&#xdc;" horiz-adv-x="664" 
d="M334 -9c-38.667 0 -73.498 5.5 -104.498 16.5s-57.333 27.833 -79 50.5s-38.334 51.5 -50.001 86.5s-17.5 76.167 -17.5 123.5v406h69v-407c0 -73.333 15.667 -127.166 47 -161.499s76.333 -51.5 135 -51.5s103.667 17.167 135 51.5s47 88.166 47 161.499v407h69v-406
c0 -47.333 -5.83301 -88.5 -17.5 -123.5s-28.334 -63.833 -50.001 -86.5s-48 -39.5 -79 -50.5s-65.833 -16.5 -104.5 -16.5zM191.002 813c0 12 3.83301 22.167 11.5 30.5s18.5 12.5 32.5 12.5s24.833 -4.16699 32.5 -12.5s11.5 -18.5 11.5 -30.5
c0 -11.333 -3.83301 -21.166 -11.5 -29.499s-18.5 -12.5 -32.5 -12.5s-24.833 4.16699 -32.5 12.5s-11.5 18.166 -11.5 29.499zM386.002 813c0 12 3.83301 22.167 11.5 30.5s18.5 12.5 32.5 12.5c13.333 0 24 -4.16699 32 -12.5s12 -18.5 12 -30.5
c0 -11.333 -4 -21.166 -12 -29.499s-18.667 -12.5 -32 -12.5c-14 0 -24.833 4.16699 -32.5 12.5s-11.5 18.166 -11.5 29.499z" />
    <glyph glyph-name="Yacute" unicode="&#xdd;" horiz-adv-x="563" 
d="M317 284v-284h-69v284l-227 390h72l189 -331l94 165.5l95 165.5h74zM335 894l36 -49l-79 -49l-80 -49l-19 27z" />
    <glyph glyph-name="Thorn" unicode="&#xde;" horiz-adv-x="564" 
d="M520 344c0 -30 -5.33301 -57.666 -16 -82.999s-25.667 -47 -45 -65s-43 -32 -71 -42s-59 -15 -93 -15h-141v-139h-69v674h69v-129h147c34.667 0 65.5 -5 92.5 -15s49.833 -23.833 68.5 -41.5s33 -38.834 43 -63.501s15 -51.667 15 -81zM452 344.001
c0 44.667 -12.833 79 -38.5 103s-63.167 36 -112.5 36h-147v-282h141c48.667 0 87 12.333 115 37s42 60 42 106z" />
    <glyph glyph-name="germandbls" unicode="&#xdf;" horiz-adv-x="597" 
d="M348 42c40.667 0 73.501 13.001 98.501 39.001s37.5 63 37.5 111c0 58 -15.333 100.5 -46 127.5s-71.667 40.5 -123 40.5h-49v54h65c34.667 0 63.667 7.66699 87 23s35 39.666 35 72.999c0 21.333 -3.83301 39.5 -11.5 54.5s-17.667 27.167 -30 36.5
s-26.5 16.166 -42.5 20.499s-32 6.5 -48 6.5c-61.333 0 -106.166 -17.5 -134.499 -52.5s-42.5 -82.833 -42.5 -143.5v-432h-66v432c0 36.667 5 70.667 15 102s25 58.166 45 80.499s45.167 39.833 75.5 52.5s65.833 19 106.5 19c28.667 0 55.167 -3.83301 79.5 -11.5
s45.333 -18.834 63 -33.501s31.334 -32.167 41.001 -52.5s14.5 -43.166 14.5 -68.499c0 -18 -3.33301 -34.167 -10 -48.5s-15.334 -27 -26.001 -38s-22.834 -20.167 -36.501 -27.5s-27.5 -12.666 -41.5 -15.999l-1 -8c18.667 -3.33301 37 -9.16602 55 -17.499s34 -20 48 -35
s25.167 -33.833 33.5 -56.5s12.5 -50 12.5 -82c0 -33.333 -5.16699 -62.333 -15.5 -87s-24.5 -45.5 -42.5 -62.5s-39.167 -29.667 -63.5 -38s-50.5 -12.5 -78.5 -12.5c-56.667 0 -103.334 8.66699 -140.001 26c2 9.33301 4.33301 18 7 26s5 16 7 24
c18 -7.33301 37.333 -13.333 58 -18s42 -7 64 -7z" />
    <glyph glyph-name="agrave" unicode="&#xe0;" horiz-adv-x="503" 
d="M366 245l-111 -0.00195312c-48 0 -84.167 -9.66699 -108.5 -29s-36.5 -47 -36.5 -83c0 -30 9 -52.667 27 -68s40.333 -23 67 -23c24.667 0 47 4.5 67 13.5s37 20.833 51 35.5s24.833 31.334 32.5 50.001s11.5 37.334 11.5 56.001v48zM366 318.998
c0 43.333 -10.9971 74.167 -32.9971 92.5s-51.333 27.5 -88 27.5c-30.667 0 -58.334 -3.33301 -83.001 -10s-47 -14.667 -67 -24c-2.66699 8.66699 -5.5 16.5 -8.5 23.5s-5.83301 14.5 -8.5 22.5c18 10.667 41.667 20.167 71 28.5s62 12.5 98 12.5c62 0 108 -15.5 138 -46.5
s45 -73.5 45 -127.5v-318h-50l-16 94c-8 -14 -17 -27.167 -27 -39.5s-21.833 -23.333 -35.5 -33s-29.334 -17.167 -47.001 -22.5s-38.5 -8 -62.5 -8c-20.667 0 -39.834 3 -57.501 9s-33.167 15 -46.5 27s-23.833 26.833 -31.5 44.5s-11.5 38.167 -11.5 61.5
c0 54 18.5 94.333 55.5 121s88.833 40 155.5 40h110v25zM341.003 577.999l-20 -27.001l-79 49l-80 49l19.5 24.5c6.33301 7.66699 12.5 15.834 18.5 24.501z" />
    <glyph glyph-name="aacute" unicode="&#xe1;" horiz-adv-x="503" 
d="M366 245l-111 -0.00195312c-48 0 -84.167 -9.66699 -108.5 -29s-36.5 -47 -36.5 -83c0 -30 9 -52.667 27 -68s40.333 -23 67 -23c24.667 0 47 4.5 67 13.5s37 20.833 51 35.5s24.833 31.334 32.5 50.001s11.5 37.334 11.5 56.001v48zM366 318.998
c0 43.333 -10.9971 74.167 -32.9971 92.5s-51.333 27.5 -88 27.5c-30.667 0 -58.334 -3.33301 -83.001 -10s-47 -14.667 -67 -24c-2.66699 8.66699 -5.5 16.5 -8.5 23.5s-5.83301 14.5 -8.5 22.5c18 10.667 41.667 20.167 71 28.5s62 12.5 98 12.5c62 0 108 -15.5 138 -46.5
s45 -73.5 45 -127.5v-318h-50l-16 94c-8 -14 -17 -27.167 -27 -39.5s-21.833 -23.333 -35.5 -33s-29.334 -17.167 -47.001 -22.5s-38.5 -8 -62.5 -8c-20.667 0 -39.834 3 -57.501 9s-33.167 15 -46.5 27s-23.833 26.833 -31.5 44.5s-11.5 38.167 -11.5 61.5
c0 54 18.5 94.333 55.5 121s88.833 40 155.5 40h110v25zM305.003 697.999l36 -49l-79 -49l-80 -49l-19 27z" />
    <glyph glyph-name="acircumflex" unicode="&#xe2;" horiz-adv-x="503" 
d="M366 245l-111 -0.00195312c-48 0 -84.167 -9.66699 -108.5 -29s-36.5 -47 -36.5 -83c0 -30 9 -52.667 27 -68s40.333 -23 67 -23c24.667 0 47 4.5 67 13.5s37 20.833 51 35.5s24.833 31.334 32.5 50.001s11.5 37.334 11.5 56.001v48zM366 318.998
c0 43.333 -10.9971 74.167 -32.9971 92.5s-51.333 27.5 -88 27.5c-30.667 0 -58.334 -3.33301 -83.001 -10s-47 -14.667 -67 -24c-2.66699 8.66699 -5.5 16.5 -8.5 23.5s-5.83301 14.5 -8.5 22.5c18 10.667 41.667 20.167 71 28.5s62 12.5 98 12.5c62 0 108 -15.5 138 -46.5
s45 -73.5 45 -127.5v-318h-50l-16 94c-8 -14 -17 -27.167 -27 -39.5s-21.833 -23.333 -35.5 -33s-29.334 -17.167 -47.001 -22.5s-38.5 -8 -62.5 -8c-20.667 0 -39.834 3 -57.501 9s-33.167 15 -46.5 27s-23.833 26.833 -31.5 44.5s-11.5 38.167 -11.5 61.5
c0 54 18.5 94.333 55.5 121s88.833 40 155.5 40h110v25zM386.003 552.999h-59l-75 92l-74 -92h-60l56 66.5l55 66.5h47z" />
    <glyph glyph-name="atilde" unicode="&#xe3;" horiz-adv-x="503" 
d="M366 245l-111 -0.00195312c-48 0 -84.167 -9.66699 -108.5 -29s-36.5 -47 -36.5 -83c0 -30 9 -52.667 27 -68s40.333 -23 67 -23c24.667 0 47 4.5 67 13.5s37 20.833 51 35.5s24.833 31.334 32.5 50.001s11.5 37.334 11.5 56.001v48zM366 318.998
c0 43.333 -10.9971 74.167 -32.9971 92.5s-51.333 27.5 -88 27.5c-30.667 0 -58.334 -3.33301 -83.001 -10s-47 -14.667 -67 -24c-2.66699 8.66699 -5.5 16.5 -8.5 23.5s-5.83301 14.5 -8.5 22.5c18 10.667 41.667 20.167 71 28.5s62 12.5 98 12.5c62 0 108 -15.5 138 -46.5
s45 -73.5 45 -127.5v-318h-50l-16 94c-8 -14 -17 -27.167 -27 -39.5s-21.833 -23.333 -35.5 -33s-29.334 -17.167 -47.001 -22.5s-38.5 -8 -62.5 -8c-20.667 0 -39.834 3 -57.501 9s-33.167 15 -46.5 27s-23.833 26.833 -31.5 44.5s-11.5 38.167 -11.5 61.5
c0 54 18.5 94.333 55.5 121s88.833 40 155.5 40h110v25zM400.003 656.999c-1.33301 -30.667 -9.33105 -53.832 -23.998 -69.499s-34 -23.5 -58 -23.5c-17.333 0 -31.666 2.83301 -42.999 8.5s-21.666 11.5 -30.999 17.5s-18.333 11.167 -27 15.5s-17.667 6.5 -27 6.5
c-14.667 0 -24.834 -4.33301 -30.501 -13s-8.83398 -19.334 -9.50098 -32.001h-45c1.33301 29.333 9.16602 52 23.499 68s34.166 24 59.499 24c15.333 0 28.833 -2.66699 40.5 -8s22.167 -11.333 31.5 -18c9.33301 -6 18.333 -11.167 27 -15.5s18 -6.5 28 -6.5
c14.667 0 24.667 4.16699 30 12.5s8 19.5 8 33.5h47z" />
    <glyph glyph-name="adieresis" unicode="&#xe4;" horiz-adv-x="503" 
d="M366 245l-111 -0.00195312c-48 0 -84.167 -9.66699 -108.5 -29s-36.5 -47 -36.5 -83c0 -30 9 -52.667 27 -68s40.333 -23 67 -23c24.667 0 47 4.5 67 13.5s37 20.833 51 35.5s24.833 31.334 32.5 50.001s11.5 37.334 11.5 56.001v48zM366 318.998
c0 43.333 -10.9971 74.167 -32.9971 92.5s-51.333 27.5 -88 27.5c-30.667 0 -58.334 -3.33301 -83.001 -10s-47 -14.667 -67 -24c-2.66699 8.66699 -5.5 16.5 -8.5 23.5s-5.83301 14.5 -8.5 22.5c18 10.667 41.667 20.167 71 28.5s62 12.5 98 12.5c62 0 108 -15.5 138 -46.5
s45 -73.5 45 -127.5v-318h-50l-16 94c-8 -14 -17 -27.167 -27 -39.5s-21.833 -23.333 -35.5 -33s-29.334 -17.167 -47.001 -22.5s-38.5 -8 -62.5 -8c-20.667 0 -39.834 3 -57.501 9s-33.167 15 -46.5 27s-23.833 26.833 -31.5 44.5s-11.5 38.167 -11.5 61.5
c0 54 18.5 94.333 55.5 121s88.833 40 155.5 40h110v25zM111.003 616.999c0 12 3.83301 22.167 11.5 30.5s18.5 12.5 32.5 12.5s24.833 -4.16699 32.5 -12.5s11.5 -18.5 11.5 -30.5c0 -11.333 -3.83301 -21.166 -11.5 -29.499s-18.5 -12.5 -32.5 -12.5
s-24.833 4.16699 -32.5 12.5s-11.5 18.166 -11.5 29.499zM306.003 616.999c0 12 3.83301 22.167 11.5 30.5s18.5 12.5 32.5 12.5c13.333 0 24 -4.16699 32 -12.5s12 -18.5 12 -30.5c0 -11.333 -4 -21.166 -12 -29.499s-18.667 -12.5 -32 -12.5
c-14 0 -24.833 4.16699 -32.5 12.5s-11.5 18.166 -11.5 29.499z" />
    <glyph glyph-name="aring" unicode="&#xe5;" horiz-adv-x="503" 
d="M366 245l-111 -0.00195312c-48 0 -84.167 -9.66699 -108.5 -29s-36.5 -47 -36.5 -83c0 -30 9 -52.667 27 -68s40.333 -23 67 -23c24.667 0 47 4.5 67 13.5s37 20.833 51 35.5s24.833 31.334 32.5 50.001s11.5 37.334 11.5 56.001v48zM366 318.998
c0 43.333 -10.9971 74.167 -32.9971 92.5s-51.333 27.5 -88 27.5c-30.667 0 -58.334 -3.33301 -83.001 -10s-47 -14.667 -67 -24c-2.66699 8.66699 -5.5 16.5 -8.5 23.5s-5.83301 14.5 -8.5 22.5c18 10.667 41.667 20.167 71 28.5s62 12.5 98 12.5c62 0 108 -15.5 138 -46.5
s45 -73.5 45 -127.5v-318h-50l-16 94c-8 -14 -17 -27.167 -27 -39.5s-21.833 -23.333 -35.5 -33s-29.334 -17.167 -47.001 -22.5s-38.5 -8 -62.5 -8c-20.667 0 -39.834 3 -57.501 9s-33.167 15 -46.5 27s-23.833 26.833 -31.5 44.5s-11.5 38.167 -11.5 61.5
c0 54 18.5 94.333 55.5 121s88.833 40 155.5 40h110v25zM199.003 635.999c0 -16.667 5.33105 -30 15.998 -40s23 -15 37 -15c14.667 0 27.334 5 38.001 15s16 23.333 16 40c0 17.333 -5.16699 31.166 -15.5 41.499s-23.166 15.5 -38.499 15.5
c-14.667 0 -27.167 -5.16699 -37.5 -15.5s-15.5 -24.166 -15.5 -41.499zM163.001 634.999c0 25.333 8.5 46.833 25.5 64.5s38.167 26.5 63.5 26.5c24.667 0 45.667 -8.83301 63 -26.5s26 -39.167 26 -64.5c0 -12 -2.33301 -23.333 -7 -34s-11 -20 -19 -28
s-17.5 -14.333 -28.5 -19s-22.5 -7 -34.5 -7c-25.333 0 -46.5 8.66699 -63.5 26s-25.5 38 -25.5 62z" />
    <glyph glyph-name="ae" unicode="&#xe6;" horiz-adv-x="796" 
d="M426 212c4.66699 -53.333 20.168 -94.6631 46.501 -123.996s66.5 -44 120.5 -44c42 0 82 8.66699 120 26l15 -48c-21.333 -10.667 -43 -18.5 -65 -23.5s-48 -7.5 -78 -7.5c-52 0 -92.5 11.5 -121.5 34.5s-51.5 54.5 -67.5 94.5c-8.66699 -18 -19.5 -34.833 -32.5 -50.5
s-28 -29.334 -45 -41.001s-36.167 -20.834 -57.5 -27.501s-45 -10 -71 -10c-20.667 0 -40 3 -58 9s-33.667 15 -47 27s-23.833 26.833 -31.5 44.5s-11.5 38.167 -11.5 61.5c0 54 18.667 94.333 56 121s89.333 40 156 40h110v25c0 43.333 -11 74.166 -33 92.499
s-51.333 27.5 -88 27.5c-30 0 -57.5 -3 -82.5 -9s-47.833 -13.667 -68.5 -23c-2.66699 8.66699 -5.33398 16.5 -8.00098 23.5s-5.33398 14.833 -8.00098 23.5c18 10.667 41.667 19.667 71 27s62 11 98 11c40.667 0 73.5 -7.5 98.5 -22.5s44.5 -36.5 58.5 -64.5
c16.667 27.333 39.334 48.666 68.001 63.999s62.667 23 102 23c60.667 0 106.167 -17.667 136.5 -53s45.5 -84 45.5 -146c0 -30 -3 -57 -9 -81h-319zM364.001 245.003h-111c-48.667 0 -85 -9.66699 -109 -29s-36 -47 -36 -83c0 -30 8.83301 -52.667 26.5 -68
s40.167 -23 67.5 -23c24.667 0 47 4.33301 67 13s37 20.167 51 34.5s24.833 30.833 32.5 49.5s11.5 38 11.5 58v48zM572.001 442.003c-26 0 -48.002 -4.50098 -66.002 -13.501s-32.667 -21.667 -44 -38s-19.666 -35.666 -24.999 -57.999s-8.66602 -46.833 -9.99902 -73.5
h266v18c0 3.33301 0.166992 6.5 0.5 9.5s0.5 5.16699 0.5 6.5c0 48 -9 84.833 -27 110.5s-49.667 38.5 -95 38.5z" />
    <glyph glyph-name="ccedilla" unicode="&#xe7;" horiz-adv-x="457" 
d="M280 439c-28.667 0 -53.5 -5.00488 -74.5 -15.0049s-38.333 -23.667 -52 -41s-23.834 -38 -30.501 -62s-10 -50.333 -10 -79s3.33301 -55 10 -79s17 -44.833 31 -62.5s31.667 -31.5 53 -41.5s47 -15 77 -15c20.667 0 41.334 2.33301 62.001 7
s40.334 11.334 59.001 20.001l15 -48c-21.333 -10.667 -43 -18.667 -65 -24s-47.667 -8 -77 -8c-39.333 0 -73.333 6.33301 -102 19s-52.667 30.334 -72 53.001s-33.666 49.334 -42.999 80.001s-14 63.667 -14 99s4.66699 68.333 14 99s23.666 57.167 42.999 79.5
s43.666 39.833 72.999 52.5s63.666 19 102.999 19c26.667 0 50.834 -2.66699 72.501 -8s42.5 -12.666 62.5 -21.999c-2 -8 -4.5 -16.167 -7.5 -24.5s-5.5 -16.166 -7.5 -23.499c-17.333 7.33301 -35.833 13.333 -55.5 18s-41.167 7 -64.5 7zM243 -166.005h-71l76 118h39z
" />
    <glyph glyph-name="egrave" unicode="&#xe8;" horiz-adv-x="501" 
d="M113 212c4 -53.333 20.5 -94.668 49.5 -124.001s70.5 -44 124.5 -44c22 0 44.167 2.16699 66.5 6.5s42.833 10.833 61.5 19.5l15 -48c-20.667 -9.33301 -43.334 -16.833 -68.001 -22.5s-51.667 -8.5 -81 -8.5c-78 0 -136.167 22.667 -174.5 68s-57.5 106.333 -57.5 183
c0 35.333 4.33301 68.333 13 99s21.834 57.167 39.501 79.5s40.167 39.833 67.5 52.5s60 19 98 19c62 0 109 -17.667 141 -53s48 -84 48 -146c0 -15.333 -0.833008 -29.666 -2.5 -42.999s-4.16699 -26 -7.5 -38h-333zM267 441.998c-26 0 -48.502 -4.50098 -67.502 -13.501
s-34.667 -21.667 -47 -38s-21.666 -35.666 -27.999 -57.999s-10.166 -46.833 -11.499 -73.5h279c1.33301 3.33301 2 9.33301 2 18v16c0 48 -9.66699 84.833 -29 110.5s-52 38.5 -98 38.5zM339.998 577.997l-20 -27.001l-79 49l-80 49l19.5 24.5
c6.33301 7.66699 12.5 15.834 18.5 24.501z" />
    <glyph glyph-name="eacute" unicode="&#xe9;" horiz-adv-x="501" 
d="M113 212c4 -53.333 20.5 -94.668 49.5 -124.001s70.5 -44 124.5 -44c22 0 44.167 2.16699 66.5 6.5s42.833 10.833 61.5 19.5l15 -48c-20.667 -9.33301 -43.334 -16.833 -68.001 -22.5s-51.667 -8.5 -81 -8.5c-78 0 -136.167 22.667 -174.5 68s-57.5 106.333 -57.5 183
c0 35.333 4.33301 68.333 13 99s21.834 57.167 39.501 79.5s40.167 39.833 67.5 52.5s60 19 98 19c62 0 109 -17.667 141 -53s48 -84 48 -146c0 -15.333 -0.833008 -29.666 -2.5 -42.999s-4.16699 -26 -7.5 -38h-333zM267 441.998c-26 0 -48.502 -4.50098 -67.502 -13.501
s-34.667 -21.667 -47 -38s-21.666 -35.666 -27.999 -57.999s-10.166 -46.833 -11.499 -73.5h279c1.33301 3.33301 2 9.33301 2 18v16c0 48 -9.66699 84.833 -29 110.5s-52 38.5 -98 38.5zM303.998 697.997l36 -49l-79 -49l-80 -49l-19 27z" />
    <glyph glyph-name="ecircumflex" unicode="&#xea;" horiz-adv-x="501" 
d="M113 212c4 -53.333 20.5 -94.668 49.5 -124.001s70.5 -44 124.5 -44c22 0 44.167 2.16699 66.5 6.5s42.833 10.833 61.5 19.5l15 -48c-20.667 -9.33301 -43.334 -16.833 -68.001 -22.5s-51.667 -8.5 -81 -8.5c-78 0 -136.167 22.667 -174.5 68s-57.5 106.333 -57.5 183
c0 35.333 4.33301 68.333 13 99s21.834 57.167 39.501 79.5s40.167 39.833 67.5 52.5s60 19 98 19c62 0 109 -17.667 141 -53s48 -84 48 -146c0 -15.333 -0.833008 -29.666 -2.5 -42.999s-4.16699 -26 -7.5 -38h-333zM267 441.998c-26 0 -48.502 -4.50098 -67.502 -13.501
s-34.667 -21.667 -47 -38s-21.666 -35.666 -27.999 -57.999s-10.166 -46.833 -11.499 -73.5h279c1.33301 3.33301 2 9.33301 2 18v16c0 48 -9.66699 84.833 -29 110.5s-52 38.5 -98 38.5zM384.998 552.997h-59l-75 92l-74 -92h-60l56 66.5l55 66.5h47z" />
    <glyph glyph-name="edieresis" unicode="&#xeb;" horiz-adv-x="501" 
d="M113 212c4 -53.333 20.5 -94.668 49.5 -124.001s70.5 -44 124.5 -44c22 0 44.167 2.16699 66.5 6.5s42.833 10.833 61.5 19.5l15 -48c-20.667 -9.33301 -43.334 -16.833 -68.001 -22.5s-51.667 -8.5 -81 -8.5c-78 0 -136.167 22.667 -174.5 68s-57.5 106.333 -57.5 183
c0 35.333 4.33301 68.333 13 99s21.834 57.167 39.501 79.5s40.167 39.833 67.5 52.5s60 19 98 19c62 0 109 -17.667 141 -53s48 -84 48 -146c0 -15.333 -0.833008 -29.666 -2.5 -42.999s-4.16699 -26 -7.5 -38h-333zM267 441.998c-26 0 -48.502 -4.50098 -67.502 -13.501
s-34.667 -21.667 -47 -38s-21.666 -35.666 -27.999 -57.999s-10.166 -46.833 -11.499 -73.5h279c1.33301 3.33301 2 9.33301 2 18v16c0 48 -9.66699 84.833 -29 110.5s-52 38.5 -98 38.5zM109.998 616.997c0 12 3.83301 22.167 11.5 30.5s18.5 12.5 32.5 12.5
s24.833 -4.16699 32.5 -12.5s11.5 -18.5 11.5 -30.5c0 -11.333 -3.83301 -21.166 -11.5 -29.499s-18.5 -12.5 -32.5 -12.5s-24.833 4.16699 -32.5 12.5s-11.5 18.166 -11.5 29.499zM304.998 616.997c0 12 3.83301 22.167 11.5 30.5s18.5 12.5 32.5 12.5
c13.333 0 24 -4.16699 32 -12.5s12 -18.5 12 -30.5c0 -11.333 -4 -21.166 -12 -29.499s-18.667 -12.5 -32 -12.5c-14 0 -24.833 4.16699 -32.5 12.5s-11.5 18.166 -11.5 29.499z" />
    <glyph glyph-name="igrave" unicode="&#xec;" horiz-adv-x="234" 
d="M152 0h-68v483h68v-483zM207 578l-20 -27.001l-79 49l-80 49l19.5 24.5c6.33301 7.66699 12.5 15.834 18.5 24.501z" />
    <glyph glyph-name="iacute" unicode="&#xed;" horiz-adv-x="234" 
d="M152 0h-68v483h68v-483zM171 698l36 -49l-79 -49l-80 -49l-19 27z" />
    <glyph glyph-name="icircumflex" unicode="&#xee;" horiz-adv-x="234" 
d="M152 0h-68v483h68v-483zM252 553h-59l-75 92l-74 -92h-60l56 66.5l55 66.5h47z" />
    <glyph glyph-name="idieresis" unicode="&#xef;" horiz-adv-x="234" 
d="M152 0h-68v483h68v-483zM-23 617c0 12 3.83301 22.167 11.5 30.5s18.5 12.5 32.5 12.5s24.833 -4.16699 32.5 -12.5s11.5 -18.5 11.5 -30.5c0 -11.333 -3.83301 -21.166 -11.5 -29.499s-18.5 -12.5 -32.5 -12.5s-24.833 4.16699 -32.5 12.5s-11.5 18.166 -11.5 29.499z
M172 617c0 12 3.83301 22.167 11.5 30.5s18.5 12.5 32.5 12.5c13.333 0 24 -4.16699 32 -12.5s12 -18.5 12 -30.5c0 -11.333 -4 -21.166 -12 -29.499s-18.667 -12.5 -32 -12.5c-14 0 -24.833 4.16699 -32.5 12.5s-11.5 18.166 -11.5 29.499z" />
    <glyph glyph-name="eth" unicode="&#xf0;" horiz-adv-x="550" 
d="M190 533c-2.66699 6 -5.00488 10.999 -7.00488 14.999s-4.33301 9 -7 15l98 47c-17.333 13.333 -35.666 25 -54.999 35s-38.666 18.333 -57.999 25l22 41c51.333 -18 98.333 -44 141 -78l55.5 27c19 9.33301 37.5 18 55.5 26l16 -30l-98 -47c46 -43.333 83 -95 111 -155
s42 -127.333 42 -202c0 -36 -5.16699 -70 -15.5 -102s-25.5 -59.667 -45.5 -83s-44.5 -41.833 -73.5 -55.5s-61.833 -20.5 -98.5 -20.5c-35.333 0 -67.166 6.5 -95.499 19.5s-52.333 30.667 -72 53s-34.834 48.333 -45.501 78s-16 61.167 -16 94.5
c0 34.667 5.33301 67.5 16 98.5s25.834 58.167 45.501 81.5s43.334 41.833 71.001 55.5s58.167 20.5 91.5 20.5c31.333 0 58.5 -5 81.5 -15s43.167 -24.333 60.5 -43l7 3c-7.33301 26 -20.666 51.833 -39.999 77.5s-43 49.834 -71 72.501zM440.995 241.999
c0 26 -3.16602 51 -9.49902 75s-16.166 45.167 -29.499 63.5s-30.5 33 -51.5 44s-46.167 16.5 -75.5 16.5c-27.333 0 -51.333 -5.5 -72 -16.5s-37.834 -25.667 -51.501 -44s-23.834 -39.833 -30.501 -64.5s-10 -50.667 -10 -78c0 -26.667 3.66699 -51.834 11 -75.501
s18 -44.167 32 -61.5s31 -31.166 51 -41.499s42.667 -15.5 68 -15.5c27.333 0 51.5 6.16699 72.5 18.5s38.5 28 52.5 47s24.667 40.333 32 64s11 46.5 11 68.5z" />
    <glyph glyph-name="ntilde" unicode="&#xf1;" horiz-adv-x="560" 
d="M146 0h-67v483h53l15 -84c8 10 18 20.5 30 31.5s25.5 21 40.5 30s31.5 16.5 49.5 22.5s37.333 9 58 9c51.333 0 91.333 -16.5 120 -49.5s43 -79.167 43 -138.5v-304h-66v304c0 40 -9.66699 71.5 -29 94.5s-46 34.5 -80 34.5c-34.667 0 -66.5 -8.83301 -95.5 -26.5
s-52.833 -39.5 -71.5 -65.5v-341zM428 657c-1.33301 -30.667 -9.33105 -53.832 -23.998 -69.499s-34 -23.5 -58 -23.5c-17.333 0 -31.666 2.83301 -42.999 8.5s-21.666 11.5 -30.999 17.5s-18.333 11.167 -27 15.5s-17.667 6.5 -27 6.5
c-14.667 0 -24.834 -4.33301 -30.501 -13s-8.83398 -19.334 -9.50098 -32.001h-45c1.33301 29.333 9.16602 52 23.499 68s34.166 24 59.499 24c15.333 0 28.833 -2.66699 40.5 -8s22.167 -11.333 31.5 -18c9.33301 -6 18.333 -11.167 27 -15.5s18 -6.5 28 -6.5
c14.667 0 24.667 4.16699 30 12.5s8 19.5 8 33.5h47z" />
    <glyph glyph-name="ograve" unicode="&#xf2;" horiz-adv-x="538" 
d="M113 242c0 -28.667 3 -55.167 9 -79.5s15.5 -45.333 28.5 -63s29.333 -31.5 49 -41.5s43.5 -15 71.5 -15s52 5 72 15s36.5 23.833 49.5 41.5s22.5 38.667 28.5 63s9 50.833 9 79.5c0 28 -3 54.167 -9 78.5s-15.5 45.166 -28.5 62.499s-29.5 31 -49.5 41s-44 15 -72 15
s-51.833 -5 -71.5 -15s-36 -23.667 -49 -41s-22.5 -38.166 -28.5 -62.499s-9 -50.5 -9 -78.5zM47 242c0 35.333 4.5 68.166 13.5 98.499s22.667 56.833 41 79.5s41.666 40.334 69.999 53.001s61.5 19 99.5 19c38.667 0 72 -6.33301 100 -19s51.333 -30.334 70 -53.001
s32.5 -49.167 41.5 -79.5s13.5 -63.166 13.5 -98.499s-4.5 -68.333 -13.5 -99s-22.833 -57.334 -41.5 -80.001s-42 -40.334 -70 -53.001s-61.333 -19 -100 -19c-38 0 -71.167 6.33301 -99.5 19s-51.666 30.334 -69.999 53.001s-32 49.334 -41 80.001s-13.5 63.667 -13.5 99z
M359 578l-20 -27.001l-79 49l-80 49l19.5 24.5c6.33301 7.66699 12.5 15.834 18.5 24.501z" />
    <glyph glyph-name="oacute" unicode="&#xf3;" horiz-adv-x="538" 
d="M113 242c0 -28.667 3 -55.167 9 -79.5s15.5 -45.333 28.5 -63s29.333 -31.5 49 -41.5s43.5 -15 71.5 -15s52 5 72 15s36.5 23.833 49.5 41.5s22.5 38.667 28.5 63s9 50.833 9 79.5c0 28 -3 54.167 -9 78.5s-15.5 45.166 -28.5 62.499s-29.5 31 -49.5 41s-44 15 -72 15
s-51.833 -5 -71.5 -15s-36 -23.667 -49 -41s-22.5 -38.166 -28.5 -62.499s-9 -50.5 -9 -78.5zM47 242c0 35.333 4.5 68.166 13.5 98.499s22.667 56.833 41 79.5s41.666 40.334 69.999 53.001s61.5 19 99.5 19c38.667 0 72 -6.33301 100 -19s51.333 -30.334 70 -53.001
s32.5 -49.167 41.5 -79.5s13.5 -63.166 13.5 -98.499s-4.5 -68.333 -13.5 -99s-22.833 -57.334 -41.5 -80.001s-42 -40.334 -70 -53.001s-61.333 -19 -100 -19c-38 0 -71.167 6.33301 -99.5 19s-51.666 30.334 -69.999 53.001s-32 49.334 -41 80.001s-13.5 63.667 -13.5 99z
M323 698l36 -49l-79 -49l-80 -49l-19 27z" />
    <glyph glyph-name="ocircumflex" unicode="&#xf4;" horiz-adv-x="538" 
d="M113 242c0 -28.667 3 -55.167 9 -79.5s15.5 -45.333 28.5 -63s29.333 -31.5 49 -41.5s43.5 -15 71.5 -15s52 5 72 15s36.5 23.833 49.5 41.5s22.5 38.667 28.5 63s9 50.833 9 79.5c0 28 -3 54.167 -9 78.5s-15.5 45.166 -28.5 62.499s-29.5 31 -49.5 41s-44 15 -72 15
s-51.833 -5 -71.5 -15s-36 -23.667 -49 -41s-22.5 -38.166 -28.5 -62.499s-9 -50.5 -9 -78.5zM47 242c0 35.333 4.5 68.166 13.5 98.499s22.667 56.833 41 79.5s41.666 40.334 69.999 53.001s61.5 19 99.5 19c38.667 0 72 -6.33301 100 -19s51.333 -30.334 70 -53.001
s32.5 -49.167 41.5 -79.5s13.5 -63.166 13.5 -98.499s-4.5 -68.333 -13.5 -99s-22.833 -57.334 -41.5 -80.001s-42 -40.334 -70 -53.001s-61.333 -19 -100 -19c-38 0 -71.167 6.33301 -99.5 19s-51.666 30.334 -69.999 53.001s-32 49.334 -41 80.001s-13.5 63.667 -13.5 99z
M403 553h-59l-75 92l-74 -92h-60l56 66.5l55 66.5h47z" />
    <glyph glyph-name="otilde" unicode="&#xf5;" horiz-adv-x="538" 
d="M113 242c0 -28.667 3 -55.167 9 -79.5s15.5 -45.333 28.5 -63s29.333 -31.5 49 -41.5s43.5 -15 71.5 -15s52 5 72 15s36.5 23.833 49.5 41.5s22.5 38.667 28.5 63s9 50.833 9 79.5c0 28 -3 54.167 -9 78.5s-15.5 45.166 -28.5 62.499s-29.5 31 -49.5 41s-44 15 -72 15
s-51.833 -5 -71.5 -15s-36 -23.667 -49 -41s-22.5 -38.166 -28.5 -62.499s-9 -50.5 -9 -78.5zM47 242c0 35.333 4.5 68.166 13.5 98.499s22.667 56.833 41 79.5s41.666 40.334 69.999 53.001s61.5 19 99.5 19c38.667 0 72 -6.33301 100 -19s51.333 -30.334 70 -53.001
s32.5 -49.167 41.5 -79.5s13.5 -63.166 13.5 -98.499s-4.5 -68.333 -13.5 -99s-22.833 -57.334 -41.5 -80.001s-42 -40.334 -70 -53.001s-61.333 -19 -100 -19c-38 0 -71.167 6.33301 -99.5 19s-51.666 30.334 -69.999 53.001s-32 49.334 -41 80.001s-13.5 63.667 -13.5 99z
M417 657c-1.33301 -30.667 -9.33105 -53.832 -23.998 -69.499s-34 -23.5 -58 -23.5c-17.333 0 -31.666 2.83301 -42.999 8.5s-21.666 11.5 -30.999 17.5s-18.333 11.167 -27 15.5s-17.667 6.5 -27 6.5c-14.667 0 -24.834 -4.33301 -30.501 -13
s-8.83398 -19.334 -9.50098 -32.001h-45c1.33301 29.333 9.16602 52 23.499 68s34.166 24 59.499 24c15.333 0 28.833 -2.66699 40.5 -8s22.167 -11.333 31.5 -18c9.33301 -6 18.333 -11.167 27 -15.5s18 -6.5 28 -6.5c14.667 0 24.667 4.16699 30 12.5s8 19.5 8 33.5h47z
" />
    <glyph glyph-name="odieresis" unicode="&#xf6;" horiz-adv-x="538" 
d="M113 242c0 -28.667 3 -55.167 9 -79.5s15.5 -45.333 28.5 -63s29.333 -31.5 49 -41.5s43.5 -15 71.5 -15s52 5 72 15s36.5 23.833 49.5 41.5s22.5 38.667 28.5 63s9 50.833 9 79.5c0 28 -3 54.167 -9 78.5s-15.5 45.166 -28.5 62.499s-29.5 31 -49.5 41s-44 15 -72 15
s-51.833 -5 -71.5 -15s-36 -23.667 -49 -41s-22.5 -38.166 -28.5 -62.499s-9 -50.5 -9 -78.5zM47 242c0 35.333 4.5 68.166 13.5 98.499s22.667 56.833 41 79.5s41.666 40.334 69.999 53.001s61.5 19 99.5 19c38.667 0 72 -6.33301 100 -19s51.333 -30.334 70 -53.001
s32.5 -49.167 41.5 -79.5s13.5 -63.166 13.5 -98.499s-4.5 -68.333 -13.5 -99s-22.833 -57.334 -41.5 -80.001s-42 -40.334 -70 -53.001s-61.333 -19 -100 -19c-38 0 -71.167 6.33301 -99.5 19s-51.666 30.334 -69.999 53.001s-32 49.334 -41 80.001s-13.5 63.667 -13.5 99z
M128 617c0 12 3.83301 22.167 11.5 30.5s18.5 12.5 32.5 12.5s24.833 -4.16699 32.5 -12.5s11.5 -18.5 11.5 -30.5c0 -11.333 -3.83301 -21.166 -11.5 -29.499s-18.5 -12.5 -32.5 -12.5s-24.833 4.16699 -32.5 12.5s-11.5 18.166 -11.5 29.499zM323 617
c0 12 3.83301 22.167 11.5 30.5s18.5 12.5 32.5 12.5c13.333 0 24 -4.16699 32 -12.5s12 -18.5 12 -30.5c0 -11.333 -4 -21.166 -12 -29.499s-18.667 -12.5 -32 -12.5c-14 0 -24.833 4.16699 -32.5 12.5s-11.5 18.166 -11.5 29.499z" />
    <glyph glyph-name="divide" unicode="&#xf7;" horiz-adv-x="565" 
d="M487 310v-54h-413v54h413zM223 130c0 14.667 4.83301 27.167 14.5 37.5s23.167 15.5 40.5 15.5s30.833 -5.16699 40.5 -15.5s14.5 -22.833 14.5 -37.5c0 -15.333 -4.83301 -28.166 -14.5 -38.499s-23.167 -15.5 -40.5 -15.5s-30.833 5.16699 -40.5 15.5
s-14.5 23.166 -14.5 38.499zM223 436c0 15.333 4.83301 28.333 14.5 39s23.167 16 40.5 16s30.833 -5.33301 40.5 -16s14.5 -23.667 14.5 -39c0 -14.667 -4.83301 -27.167 -14.5 -37.5s-23.167 -15.5 -40.5 -15.5s-30.833 5.16699 -40.5 15.5s-14.5 22.833 -14.5 37.5z" />
    <glyph glyph-name="oslash" unicode="&#xf8;" horiz-adv-x="538" 
d="M404 457c31.333 -23.333 54.499 -53.8301 69.499 -91.4971s22.5 -78.834 22.5 -123.501c0 -35.333 -4.5 -68.333 -13.5 -99s-22.833 -57.334 -41.5 -80.001s-42 -40.334 -70 -53.001s-61.333 -19 -100 -19c-19.333 0 -38.166 2 -56.499 6s-36.166 9.66699 -53.499 17
l-29 -55h-43l41 75c-28.667 23.333 -49.667 52.833 -63 88.5s-20 75.5 -20 119.5c0 35.333 4.5 68.166 13.5 98.499s22.667 56.833 41 79.5s41.666 40.334 69.999 53.001s61.5 19 99.5 19c18 0 35.167 -1.66699 51.5 -5s32.5 -8.33301 48.5 -15l40 73h42zM429.999 242.003
c0 32.667 -4.33301 62.668 -13 90.001s-22.667 50.666 -42 69.999l-186 -339c11.333 -6 24 -10.833 38 -14.5s28.667 -5.5 44 -5.5c28 0 52 5 72 15s36.5 23.833 49.5 41.5s22.5 38.667 28.5 63s9 50.833 9 79.5zM112.999 242.004c0 -31.333 3.66699 -60.1689 11 -86.502
s19.333 -49.166 36 -68.499l183 336c-22.667 10.667 -46.667 16 -72 16c-28 0 -51.833 -5 -71.5 -15s-36 -23.667 -49 -41s-22.5 -38.166 -28.5 -62.499s-9 -50.5 -9 -78.5z" />
    <glyph glyph-name="ugrave" unicode="&#xf9;" horiz-adv-x="553" 
d="M412 483l66.999 -0.00195312v-483h-53l-16 94c-7.33301 -11.333 -16.333 -23 -27 -35s-23.5 -23 -38.5 -33s-31.833 -18.333 -50.5 -25s-39 -10 -61 -10c-46 0 -83.5 15 -112.5 45s-43.5 77.667 -43.5 143v304h65v-304c0 -41.333 9.16699 -73.333 27.5 -96
s43.5 -34 75.5 -34c18.667 0 36.167 2.83301 52.5 8.5s31.5 13.334 45.5 23.001s26.833 20.834 38.5 33.501s21.834 25.667 30.501 39v330zM365.999 577.998l-20 -27.001l-79 49l-80 49l19.5 24.5c6.33301 7.66699 12.5 15.834 18.5 24.501z" />
    <glyph glyph-name="uacute" unicode="&#xfa;" horiz-adv-x="553" 
d="M412 483l66.999 -0.00195312v-483h-53l-16 94c-7.33301 -11.333 -16.333 -23 -27 -35s-23.5 -23 -38.5 -33s-31.833 -18.333 -50.5 -25s-39 -10 -61 -10c-46 0 -83.5 15 -112.5 45s-43.5 77.667 -43.5 143v304h65v-304c0 -41.333 9.16699 -73.333 27.5 -96
s43.5 -34 75.5 -34c18.667 0 36.167 2.83301 52.5 8.5s31.5 13.334 45.5 23.001s26.833 20.834 38.5 33.501s21.834 25.667 30.501 39v330zM329.999 697.998l36 -49l-79 -49l-80 -49l-19 27z" />
    <glyph glyph-name="ucircumflex" unicode="&#xfb;" horiz-adv-x="553" 
d="M412 483l66.999 -0.00195312v-483h-53l-16 94c-7.33301 -11.333 -16.333 -23 -27 -35s-23.5 -23 -38.5 -33s-31.833 -18.333 -50.5 -25s-39 -10 -61 -10c-46 0 -83.5 15 -112.5 45s-43.5 77.667 -43.5 143v304h65v-304c0 -41.333 9.16699 -73.333 27.5 -96
s43.5 -34 75.5 -34c18.667 0 36.167 2.83301 52.5 8.5s31.5 13.334 45.5 23.001s26.833 20.834 38.5 33.501s21.834 25.667 30.501 39v330zM410.999 552.998h-59l-75 92l-74 -92h-60l56 66.5l55 66.5h47z" />
    <glyph glyph-name="udieresis" unicode="&#xfc;" horiz-adv-x="553" 
d="M412 483l66.999 -0.00195312v-483h-53l-16 94c-7.33301 -11.333 -16.333 -23 -27 -35s-23.5 -23 -38.5 -33s-31.833 -18.333 -50.5 -25s-39 -10 -61 -10c-46 0 -83.5 15 -112.5 45s-43.5 77.667 -43.5 143v304h65v-304c0 -41.333 9.16699 -73.333 27.5 -96
s43.5 -34 75.5 -34c18.667 0 36.167 2.83301 52.5 8.5s31.5 13.334 45.5 23.001s26.833 20.834 38.5 33.501s21.834 25.667 30.501 39v330zM135.999 616.998c0 12 3.83301 22.167 11.5 30.5s18.5 12.5 32.5 12.5s24.833 -4.16699 32.5 -12.5s11.5 -18.5 11.5 -30.5
c0 -11.333 -3.83301 -21.166 -11.5 -29.499s-18.5 -12.5 -32.5 -12.5s-24.833 4.16699 -32.5 12.5s-11.5 18.166 -11.5 29.499zM330.999 616.998c0 12 3.83301 22.167 11.5 30.5s18.5 12.5 32.5 12.5c13.333 0 24 -4.16699 32 -12.5s12 -18.5 12 -30.5
c0 -11.333 -4 -21.166 -12 -29.499s-18.667 -12.5 -32 -12.5c-14 0 -24.833 4.16699 -32.5 12.5s-11.5 18.166 -11.5 29.499z" />
    <glyph glyph-name="yacute" unicode="&#xfd;" horiz-adv-x="550" 
d="M408 107c-7.33301 -12 -16.3359 -24.1641 -27.0029 -36.4971s-23.167 -23.833 -37.5 -34.5s-30.5 -19.334 -48.5 -26.001s-37.667 -10 -59 -10c-49.333 0 -88.166 15 -116.499 45s-42.5 77.667 -42.5 143v295h65v-295c0 -41.333 9 -73.333 27 -96s43.333 -34 76 -34
c18.667 0 36.167 3 52.5 9s31.333 13.833 45 23.5s26 20.667 37 33s20.5 25.166 28.5 38.499v321h68v-450c0 -80 -18.833 -139.5 -56.5 -178.5s-90.834 -58.5 -159.501 -58.5c-31.333 0 -62 4 -92 12s-54 18 -72 30c2.66699 8.66699 5.83398 17.667 9.50098 27
s6.83398 18 9.50098 26c18.667 -10.667 40.167 -19.334 64.5 -26.001s49.833 -10 76.5 -10c24.667 0 46.334 3 65.001 9s34.5 15.833 47.5 29.5s22.833 32 29.5 55s10 51.5 10 85.5v73zM328.997 698.003l36 -49l-79 -49l-80 -49l-19 27z" />
    <glyph glyph-name="thorn" unicode="&#xfe;" horiz-adv-x="587" 
d="M148 230c0 -26 4 -50 12 -72s19 -41 33 -57s30.333 -28.5 49 -37.5s39 -13.5 61 -13.5c18.667 0 36.667 3.5 54 10.5s32.666 18.333 45.999 34s24 36 32 61s12 55.833 12 92.5c0 62 -12.667 108.167 -38 138.5s-57.666 45.5 -96.999 45.5c-32 0 -62.5 -8.33301 -91.5 -25
s-53.167 -38.667 -72.5 -66v-111zM148 677l-0.00292969 -280.998c7.33301 10 16.833 20.667 28.5 32s25.167 21.833 40.5 31.5s32 17.5 50 23.5s37.333 9 58 9c30.667 0 57.834 -6.5 81.501 -19.5s43.334 -30.667 59.001 -53s27.5 -48.333 35.5 -78s12 -60.834 12 -93.501
c0 -42.667 -4.83301 -80 -14.5 -112s-23.334 -58.833 -41.001 -80.5s-38.667 -37.834 -63 -48.501s-51.166 -16 -80.499 -16c-36 0 -68.167 9.33301 -96.5 28s-49.166 41 -62.499 67l-7 -2v-278h-67v871h67z" />
    <glyph glyph-name="ydieresis" unicode="&#xff;" horiz-adv-x="550" 
d="M408 107c-7.33301 -12 -16.3359 -24.1641 -27.0029 -36.4971s-23.167 -23.833 -37.5 -34.5s-30.5 -19.334 -48.5 -26.001s-37.667 -10 -59 -10c-49.333 0 -88.166 15 -116.499 45s-42.5 77.667 -42.5 143v295h65v-295c0 -41.333 9 -73.333 27 -96s43.333 -34 76 -34
c18.667 0 36.167 3 52.5 9s31.333 13.833 45 23.5s26 20.667 37 33s20.5 25.166 28.5 38.499v321h68v-450c0 -80 -18.833 -139.5 -56.5 -178.5s-90.834 -58.5 -159.501 -58.5c-31.333 0 -62 4 -92 12s-54 18 -72 30c2.66699 8.66699 5.83398 17.667 9.50098 27
s6.83398 18 9.50098 26c18.667 -10.667 40.167 -19.334 64.5 -26.001s49.833 -10 76.5 -10c24.667 0 46.334 3 65.001 9s34.5 15.833 47.5 29.5s22.833 32 29.5 55s10 51.5 10 85.5v73zM133.997 617.003c0 12 3.83301 22.167 11.5 30.5s18.5 12.5 32.5 12.5
s24.833 -4.16699 32.5 -12.5s11.5 -18.5 11.5 -30.5c0 -11.333 -3.83301 -21.166 -11.5 -29.499s-18.5 -12.5 -32.5 -12.5s-24.833 4.16699 -32.5 12.5s-11.5 18.166 -11.5 29.499zM328.997 617.003c0 12 3.83301 22.167 11.5 30.5s18.5 12.5 32.5 12.5
c13.333 0 24 -4.16699 32 -12.5s12 -18.5 12 -30.5c0 -11.333 -4 -21.166 -12 -29.499s-18.667 -12.5 -32 -12.5c-14 0 -24.833 4.16699 -32.5 12.5s-11.5 18.166 -11.5 29.499z" />
    <glyph glyph-name="dotlessi" unicode="&#x131;" horiz-adv-x="234" 
d="M152 0h-68v483h68v-483z" />
    <glyph glyph-name="Lslash" unicode="&#x141;" horiz-adv-x="510" 
d="M25 327l61 26v321h68v-291l76 32l75 33v-59l-151 -66v-260h326v-63h-394v292l-61 -26v61z" />
    <glyph glyph-name="lslash" unicode="&#x142;" horiz-adv-x="234" 
d="M151 381l56 24.999v-60l-56 -25v-321h-68v291c-8.66699 -3.33301 -17.5 -7.16602 -26.5 -11.499s-18.167 -8.5 -27.5 -12.5v61l54 24v325h68v-296z" />
    <glyph glyph-name="OE" unicode="&#x152;" horiz-adv-x="991" 
d="M533 97c-18.667 -30 -43.499 -55.165 -74.499 -75.498s-70.5 -30.5 -118.5 -30.5c-50 0 -93.333 8.66699 -130 26s-67.167 41.5 -91.5 72.5s-42.333 67.667 -54 110s-17.5 88.166 -17.5 137.499s5.83301 95.166 17.5 137.499s29.5 79 53.5 110s54.167 55.167 90.5 72.5
s79.166 26 128.499 26c48.667 0 89 -10.5 121 -31.5s57 -46.167 75 -75.5v98h406v-63h-337v-233h317v-61h-317v-255h343v-62h-412v97zM344.001 47.002c22 0 42.6709 3.16895 62.0039 9.50195s37.166 15 53.499 26s30.666 23.833 42.999 38.5s22.5 30 30.5 46v348
c-18.667 35.333 -44.834 62.666 -78.501 81.999s-70.5 29 -110.5 29c-38.667 0 -72.334 -6.66699 -101.001 -20s-52.5 -32.5 -71.5 -57.5s-33.167 -55.333 -42.5 -91s-14 -75.834 -14 -120.501c0 -90 18.833 -160.833 56.5 -212.5s95.167 -77.5 172.5 -77.5z" />
    <glyph glyph-name="oe" unicode="&#x153;" horiz-adv-x="840" 
d="M456 212c4.66699 -53.333 21.1631 -94.835 49.4961 -124.502s69.5 -44.5 123.5 -44.5c22.667 0 44.834 2 66.501 6s41.834 10.667 60.501 20l3 -8c2.66699 -6.66699 4.83398 -13 6.50098 -19l5.5 -20c-39.333 -20.667 -88.666 -31 -147.999 -31c-44 0 -82 7.5 -114 22.5
s-57.667 36.5 -77 64.5c-17.333 -26 -38.5 -47 -63.5 -63s-58.5 -24 -100.5 -24c-38.667 0 -72 6.33301 -100 19s-51.167 30.334 -69.5 53.001s-32 49.334 -41 80.001s-13.5 63.667 -13.5 99s4.5 68.166 13.5 98.499s22.667 56.833 41 79.5s41.5 40.334 69.5 53.001
s61.333 19 100 19c42 0 76.167 -8.33301 102.5 -25s46.5 -37.334 60.5 -62.001c18 27.333 41.667 48.666 71 63.999s65 23 107 23c64 0 111.667 -17.667 143 -53s47 -84.333 47 -147c0 -15.333 -0.833008 -29.666 -2.5 -42.999s-4.16699 -25.666 -7.5 -36.999h-333z
M109.996 241.998c0 -28.667 2.99805 -55.1689 8.99805 -79.502s15.5 -45.333 28.5 -63s29.333 -31.5 49 -41.5s43.5 -15 71.5 -15c36 0 65.5 7.33301 88.5 22s40.167 35.667 51.5 63c-5.33301 17.333 -9.66602 35.5 -12.999 54.5s-5 38.833 -5 59.5
c0 39.333 5.33301 76 16 110c-11.333 26.667 -28.166 47.834 -50.499 63.501s-51.5 23.5 -87.5 23.5c-28 0 -51.833 -5 -71.5 -15s-36 -23.667 -49 -41s-22.5 -38.166 -28.5 -62.499s-9 -50.5 -9 -78.5zM608.994 441.996c-26.667 0 -49.335 -4.50098 -68.002 -13.501
s-34.167 -21.667 -46.5 -38s-21.666 -35.666 -27.999 -57.999s-10.166 -46.833 -11.499 -73.5h281v19c0 2.66699 0.166992 5 0.5 7s0.5 4.33301 0.5 7c0 48 -9.83301 85 -29.5 111s-52.5 39 -98.5 39z" />
    <glyph glyph-name="Scaron" unicode="&#x160;" horiz-adv-x="528" 
d="M249 -9c-23.333 0 -44.334 0.831055 -63.001 2.49805s-35.5 4.16699 -50.5 7.5s-28.833 7.16602 -41.5 11.499s-24.334 9.5 -35.001 15.5c2.66699 9.33301 5.66699 18.666 9 27.999s6.33301 18.333 9 27c20 -9.33301 43.333 -17 70 -23s57.667 -9 93 -9
c24.667 0 47.667 2.33301 69 7s39.5 12.167 54.5 22.5s26.833 23.5 35.5 39.5s13 35 13 57s-4.5 40.333 -13.5 55s-21.167 27.334 -36.5 38.001s-33 19.5 -53 26.5l-63 21.5c-20.667 6.66699 -42.167 14.834 -64.5 24.501s-42.666 21.667 -60.999 36s-33.333 32 -45 53
s-17.5 46.5 -17.5 76.5c0 24.667 4.16699 47.834 12.5 69.501s21.5 40.167 39.5 55.5s40.833 27.5 68.5 36.5s61.167 13.5 100.5 13.5c32 0 61.333 -2.83301 88 -8.5s51.334 -14.167 74.001 -25.5c-2.66699 -9.33301 -5.83398 -18.666 -9.50098 -27.999
s-6.83398 -18.333 -9.50098 -27c-19.333 9.33301 -41.333 16.5 -66 21.5s-50.334 7.5 -77.001 7.5c-55.333 0 -95 -10.667 -119 -32s-36 -48.666 -36 -81.999c0 -20.667 4.16699 -38 12.5 -52s19.5 -26 33.5 -36s30.5 -18.667 49.5 -26s39.167 -14.666 60.5 -21.999
c24 -8 47.833 -16.833 71.5 -26.5s44.834 -21.834 63.501 -36.501s33.834 -32.834 45.501 -54.501s17.5 -48.167 17.5 -79.5s-5.66699 -58.5 -17 -81.5s-27.166 -42.167 -47.499 -57.5s-44.5 -26.833 -72.5 -34.5s-58.667 -11.5 -92 -11.5zM287.999 745.998h-47l-112 134h61
l74 -92l75 92h59z" />
    <glyph glyph-name="scaron" unicode="&#x161;" horiz-adv-x="433" 
d="M200 42c42.667 0 72.999 7.83398 90.999 23.501s27 35.167 27 58.5c0 14 -3.16699 26.333 -9.5 37s-15 19.834 -26 27.501s-24 14.334 -39 20.001s-30.833 11.167 -47.5 16.5c-18.667 6 -36.667 13.167 -54 21.5s-32.666 18.166 -45.999 29.499s-24 24.666 -32 39.999
s-12 32.666 -12 51.999c0 40 15.333 70.667 46 92s72 32 124 32c27.333 0 53.333 -2.5 78 -7.5s46.667 -12.167 66 -21.5c-2 -8.66699 -4.5 -17 -7.5 -25s-5.5 -15.667 -7.5 -23c-18 8 -37 14.167 -57 18.5s-42 6.5 -66 6.5c-38 0 -66.167 -6.5 -84.5 -19.5
s-27.5 -30.167 -27.5 -51.5c0 -25.333 9.66699 -44.333 29 -57s44.333 -23.667 75 -33c52.667 -16.667 93.167 -36.667 121.5 -60s42.5 -55.333 42.5 -96c0 -40 -14.5 -72 -43.5 -96s-74.833 -36 -137.5 -36c-30 0 -58.167 2.33301 -84.5 7s-48.5 11.667 -66.5 21
c2 8 4.5 16.333 7.5 25s5.5 16.667 7.5 24c18 -7.33301 38.667 -13.5 62 -18.5s47 -7.5 71 -7.5zM240.999 550.001h-47l-112 134h61l74 -92l75 92h59z" />
    <glyph glyph-name="Ydieresis" unicode="&#x178;" horiz-adv-x="563" 
d="M317 284v-284h-69v284l-227 390h72l189 -331l94 165.5l95 165.5h74zM141 813c0 12 3.83301 22.167 11.5 30.5s18.5 12.5 32.5 12.5s24.833 -4.16699 32.5 -12.5s11.5 -18.5 11.5 -30.5c0 -11.333 -3.83301 -21.166 -11.5 -29.499s-18.5 -12.5 -32.5 -12.5
s-24.833 4.16699 -32.5 12.5s-11.5 18.166 -11.5 29.499zM336 813c0 12 3.83301 22.167 11.5 30.5s18.5 12.5 32.5 12.5c13.333 0 24 -4.16699 32 -12.5s12 -18.5 12 -30.5c0 -11.333 -4 -21.166 -12 -29.499s-18.667 -12.5 -32 -12.5c-14 0 -24.833 4.16699 -32.5 12.5
s-11.5 18.166 -11.5 29.499z" />
    <glyph glyph-name="Zcaron" unicode="&#x17d;" horiz-adv-x="547" 
d="M47 50l364 562h-339v62h423v-51l-363 -561h369v-62h-454v50zM298 746h-47l-112 134h61l74 -92l75 92h59z" />
    <glyph glyph-name="zcaron" unicode="&#x17e;" horiz-adv-x="449" 
d="M45 39l271 391h-251v53h332v-39l-272 -391h281v-53h-361v39zM249 550h-47l-112 134h61l74 -92l75 92h59z" />
    <glyph glyph-name="florin" unicode="&#x192;" horiz-adv-x="566" 
d="M250 396c4 38 9.16895 73.332 15.502 105.999s15.666 60.834 27.999 84.501s29.166 42.167 50.499 55.5s49 20 83 20c15.333 0 28.833 -1.5 40.5 -4.5s22.167 -6.83301 31.5 -11.5c-4 -9.33301 -8 -18 -12 -26s-7.66699 -16.333 -11 -25
c-8.66699 3.33301 -17.5 5.66602 -26.5 6.99902s-18.167 2 -27.5 2c-31.333 0 -53.5 -11 -66.5 -33s-22.167 -52 -27.5 -90l-13 -85h129v-40h-134c-3.33301 -20.667 -6.33301 -41.834 -9 -63.501l-8 -63.5c-3.33301 -21.333 -6.33301 -42.5 -9 -63.5l-8 -61.5v1
c-4 -27.333 -9.66699 -52.166 -17 -74.499s-17.5 -41.5 -30.5 -57.5s-29 -28.5 -48 -37.5s-42.167 -13.5 -69.5 -13.5c-14.667 0 -28.167 1.66699 -40.5 5s-22.833 7 -31.5 11l23 51c8 -3.33301 16.667 -5.66602 26 -6.99902s18.666 -2 27.999 -2
c30.667 0 52.334 10.5 65.001 31.5s22 51.167 28 90.5l35 254h-95v40h101z" />
    <glyph glyph-name="circumflex" unicode="&#x2c6;" horiz-adv-x="295" 
d="M282 553h-59l-75 92l-74 -92h-60l56 66.5l55 66.5h47z" />
    <glyph glyph-name="caron" unicode="&#x2c7;" horiz-adv-x="295" 
d="M172 550h-47l-112 134h61l74 -92l75 92h59z" />
    <glyph glyph-name="breve" unicode="&#x2d8;" horiz-adv-x="295" 
d="M287 693c-4.66699 -34.667 -18.5 -63.5 -41.5 -86.5s-55.167 -34.5 -96.5 -34.5c-42 0 -74.833 11.5 -98.5 34.5s-37.5 51.833 -41.5 86.5h46c4 -22.667 14 -40.834 30 -54.501s37.333 -20.5 64 -20.5c25.333 0 46.333 6.83301 63 20.5s27 31.834 31 54.501h44z" />
    <glyph glyph-name="dotaccent" unicode="&#x2d9;" horiz-adv-x="295" 
d="M99 621c0 13.333 4.33301 24.5 13 33.5s20.667 13.5 36 13.5s27.166 -4.5 35.499 -13.5s12.5 -20.167 12.5 -33.5s-4.16699 -24.5 -12.5 -33.5s-20.166 -13.5 -35.499 -13.5s-27.333 4.5 -36 13.5s-13 20.167 -13 33.5z" />
    <glyph glyph-name="ring" unicode="&#x2da;" horiz-adv-x="295" 
d="M95 636c0 -16.667 5.33105 -30 15.998 -40s23 -15 37 -15c14.667 0 27.334 5 38.001 15s16 23.333 16 40c0 17.333 -5.16699 31.166 -15.5 41.499s-23.166 15.5 -38.499 15.5c-14.667 0 -27.167 -5.16699 -37.5 -15.5s-15.5 -24.166 -15.5 -41.499zM58.998 635
c0 25.333 8.5 46.833 25.5 64.5s38.167 26.5 63.5 26.5c24.667 0 45.667 -8.83301 63 -26.5s26 -39.167 26 -64.5c0 -12 -2.33301 -23.333 -7 -34s-11 -20 -19 -28s-17.5 -14.333 -28.5 -19s-22.5 -7 -34.5 -7c-25.333 0 -46.5 8.66699 -63.5 26s-25.5 38 -25.5 62z" />
    <glyph glyph-name="ogonek" unicode="&#x2db;" horiz-adv-x="295" 
d="M127 -6h40l74 -113h-71z" />
    <glyph glyph-name="tilde" unicode="&#x2dc;" horiz-adv-x="295" 
d="M296 657c-1.33301 -30.667 -9.33105 -53.832 -23.998 -69.499s-34 -23.5 -58 -23.5c-17.333 0 -31.666 2.83301 -42.999 8.5s-21.666 11.5 -30.999 17.5s-18.333 11.167 -27 15.5s-17.667 6.5 -27 6.5c-14.667 0 -24.834 -4.33301 -30.501 -13
s-8.83398 -19.334 -9.50098 -32.001h-45c1.33301 29.333 9.16602 52 23.499 68s34.166 24 59.499 24c15.333 0 28.833 -2.66699 40.5 -8s22.167 -11.333 31.5 -18c9.33301 -6 18.333 -11.167 27 -15.5s18 -6.5 28 -6.5c14.667 0 24.667 4.16699 30 12.5s8 19.5 8 33.5h47z
" />
    <glyph glyph-name="hungarumlaut" unicode="&#x2dd;" horiz-adv-x="295" 
d="M125 688h72l-105 -129h-47zM283 688h70l-51.5 -64.5l-50.5 -64.5h-48z" />
    <glyph glyph-name="uni03A9" unicode="&#x3a9;" horiz-adv-x="745" 
d="M376 620c-72.667 0 -130.166 -21.833 -172.499 -65.5s-63.5 -105.834 -63.5 -186.501c0 -37.333 6 -72.666 18 -105.999s27 -63.666 45 -90.999s37.167 -51.666 57.5 -72.999s39.166 -38.666 56.499 -51.999v-46h-207v59h134c-16 14.667 -34 32.5 -54 53.5
s-38.667 45.167 -56 72.5s-31.833 57.666 -43.5 90.999s-17.5 69.333 -17.5 108c0 45.333 7 86.5 21 123.5s34 68.5 60 94.5s57.5 46 94.5 60s78.833 21 125.5 21s88.667 -7 126 -21s69.166 -34 95.499 -60s46.5 -57.5 60.5 -94.5s21 -78.167 21 -123.5
c0 -38.667 -5.83301 -74.667 -17.5 -108s-26.334 -63.666 -44.001 -90.999s-36.5 -51.5 -56.5 -72.5s-38 -38.833 -54 -53.5h133v-59h-206v46c16.667 13.333 35.334 30.666 56.001 51.999s39.834 45.666 57.501 72.999s32.5 57.666 44.5 90.999s18 68.666 18 105.999
c0 80.667 -20.833 142.834 -62.5 186.501s-98.167 65.5 -169.5 65.5z" />
    <glyph glyph-name="pi" unicode="&#x3c0;" horiz-adv-x="594" 
d="M556 7c-8.66699 -4.66699 -19.5 -8.16602 -32.5 -10.499s-26.167 -3.5 -39.5 -3.5c-23.333 0 -42.333 3.66699 -57 11s-26.5 17.166 -35.5 29.499s-15.167 26.833 -18.5 43.5s-5 34.334 -5 53.001v300h-145v-236c0 -16 -0.666992 -33.167 -2 -51.5s-3.5 -36.333 -6.5 -54
s-6.5 -34.334 -10.5 -50.001s-8.33301 -28.5 -13 -38.5h-64c5.33301 12 9.83301 26.167 13.5 42.5s6.83398 33.5 9.50098 51.5s4.5 35.667 5.5 53s1.5 33 1.5 47v236c-26 -0.666992 -48 -2.83398 -66 -6.50098s-34.333 -8.5 -49 -14.5l-10 51
c12.667 6.66699 30.167 12.334 52.5 17.001s45.5 7 69.5 7h401v-54h-122v-307c0 -24 4.66699 -43.333 14 -58s24.666 -22 45.999 -22c11.333 0 20.833 0.666992 28.5 2s14.5 3.33301 20.5 6z" />
    <glyph glyph-name="uni0E00" unicode="&#xe00;" horiz-adv-x="195" 
 />
    <glyph glyph-name="uni0E01" unicode="&#xe01;" horiz-adv-x="601" 
d="M456 0v353.001c0 51.333 -13.5 90.333 -40.5 117s-66.167 40 -117.5 40c-40 0 -75.5 -9.33301 -106.5 -28s-53.167 -43 -66.5 -73c13.333 -11.333 26.5 -23.5 39.5 -36.5s26.167 -25.167 39.5 -36.5c-36 -16.667 -54 -47.334 -54 -92.001v-244h-69v233
c0 20 5.33301 39.167 16 57.5s25.667 32.166 45 41.499c-14 11.333 -28.667 23.833 -44 37.5s-30 26.167 -44 37.5c6 20.667 16.333 40.667 31 60s32.667 36.5 54 51.5s45.5 27 72.5 36s55.833 13.5 86.5 13.5c37.333 0 70 -5.33301 98 -16s51.5 -25.5 70.5 -44.5
s33.333 -41.667 43 -68s14.5 -55.166 14.5 -86.499v-353h-68z" />
    <glyph glyph-name="uni0E02" unicode="&#xe02;" horiz-adv-x="552" 
d="M406 559h68.999v-373c0 -64 -16.167 -112.5 -48.5 -145.5s-83.5 -49.5 -153.5 -49.5s-121.333 17 -154 51s-49 79 -49 135v79c0 21.333 6.16699 40.833 18.5 58.5s25.166 34.167 38.499 49.5c12 14.667 22.333 28.334 31 41.001s13 25.667 13 39v27
c0 9.33301 -2.16699 16.666 -6.5 21.999s-12.166 8 -23.499 8h-65v58h72c32.667 0 55.5 -7.5 68.5 -22.5s19.5 -35.167 19.5 -60.5v-31c0 -18.667 -5.33301 -36.334 -16 -53.001s-22.667 -32.667 -36 -48c-12 -14.667 -22.833 -29.167 -32.5 -43.5
s-14.5 -29.166 -14.5 -44.499v-79c0 -42.667 10.667 -74.834 32 -96.501s56 -32.5 104 -32.5c22.667 0 42.334 2.16699 59.001 6.5s30.5 11.833 41.5 22.5s19.167 24.834 24.5 42.501s8 39.5 8 65.5v374z" />
    <glyph glyph-name="uni0E03" unicode="&#xe03;" horiz-adv-x="556" 
d="M74 255c0 19.333 5.99902 37.5 17.999 54.5s25 33.167 39 48.5c13.333 15.333 25.333 30.5 36 45.5s16 31.167 16 48.5v23c0 8.66699 -2.16699 16 -6.5 22s-12.166 9 -23.499 9c-8.66699 0 -16.667 -3.33301 -24 -10s-13.333 -14.334 -18 -23.001
c-8.66699 4.66699 -16.834 8.66699 -24.501 12l-24.5 11l-23 11v58l50 -28l17 -8c6.66699 11.333 16 20 28 26s24.667 9 38 9c25.333 0 44.333 -7.83301 57 -23.5s19 -37.5 19 -65.5v-23c0 -22 -6.16699 -42.333 -18.5 -61s-25.5 -35.667 -39.5 -51
c-12 -13.333 -23.167 -27.166 -33.5 -41.499s-15.5 -28.833 -15.5 -43.5v-78c0 -42.667 10.667 -74.834 32 -96.501s56 -32.5 104 -32.5c22.667 0 42.334 2.16699 59.001 6.5s30.5 11.833 41.5 22.5s19.167 24.834 24.5 42.501s8 39.5 8 65.5v374h69v-373
c0 -64 -16.167 -112.5 -48.5 -145.5s-83.5 -49.5 -153.5 -49.5s-121.333 17 -154 51s-49 79 -49 135v78z" />
    <glyph glyph-name="uni0E04" unicode="&#xe04;" horiz-adv-x="617" 
d="M310 568c37.333 0 70.332 -5.5 98.999 -16.5s52.834 -26 72.501 -45s34.5 -41.5 44.5 -67.5s15 -54 15 -84v-355h-69v356c0 45.333 -13.5 82.333 -40.5 111s-67.5 43 -121.5 43s-94.333 -14.167 -121 -42.5s-40 -65.5 -40 -111.5v-130l7 -1
c9.33301 20.667 24 38.167 44 52.5s44 21.5 72 21.5h66v-60h-66c-30 0 -55.667 -8.66699 -77 -26s-36.666 -42 -45.999 -74v-139h-69v355c0 30 5 58 15 84s24.833 48.5 44.5 67.5s43.667 34 72 45s61.166 16.5 98.499 16.5z" />
    <glyph glyph-name="uni0E05" unicode="&#xe05;" horiz-adv-x="626" 
d="M150 226l7 -1.00098c9.33301 20.667 24 38.167 44 52.5s44.333 21.5 73 21.5h66v-60h-66c-30 0 -55.833 -8.66699 -77.5 -26s-37.167 -42 -46.5 -74v-139h-69v389c0 48.667 11.167 87.834 33.5 117.501s55.166 50.167 98.499 61.5l102 -69l102 69
c42.667 -11.333 75.334 -32 98.001 -62s34 -69 34 -117v-389h-69v397c0 57.333 -22 93 -66 107l-49.5 -30l-49.5 -30l-99 60c-44 -14 -66 -49.667 -66 -107v-171z" />
    <glyph glyph-name="uni0E06" unicode="&#xe06;" horiz-adv-x="602" 
d="M151 172c7.33301 -16.667 17.165 -32.5 29.498 -47.5s26.166 -28 41.499 -39s32 -19.833 50 -26.5s36.667 -10 56 -10c46 0 79 13.5 99 40.5s30 65.833 30 116.5v353h69v-354c0 -67.333 -15.5 -119.833 -46.5 -157.5s-78.5 -56.5 -142.5 -56.5
c-40 0 -75.5 9.16699 -106.5 27.5s-57.5 44.5 -79.5 78.5c-0.666992 -14 -1.5 -30 -2.5 -48s-1.83301 -34.333 -2.5 -49h-64v249c0 19.333 5.16699 37.333 15.5 54s21.833 33 34.5 49c12 16 23.167 32.333 33.5 49s15.5 34 15.5 52v22c0 9.33301 -2.16699 16.833 -6.5 22.5
s-12.166 8.5 -23.499 8.5c-9.33301 0 -17.5 -2.66699 -24.5 -8s-12.5 -13.666 -16.5 -24.999c-13.333 6 -25.5 11.833 -36.5 17.5s-23.167 11.5 -36.5 17.5v57l67 -36c6.66699 11.333 15.834 20 27.501 26s24.167 9 37.5 9c26 0 45.333 -7.83301 58 -23.5
s19 -37.167 19 -64.5v-23c0 -24.667 -5.66699 -46.667 -17 -66s-23.333 -37.333 -36 -54c-11.333 -14.667 -21.166 -28.834 -29.499 -42.501s-12.5 -27.5 -12.5 -41.5v-77z" />
    <glyph glyph-name="uni0E07" unicode="&#xe07;" horiz-adv-x="555" 
d="M189 0l-170.002 559.003h67l153 -501h19c23.333 0 45.833 5.33301 67.5 16s40.834 26.167 57.501 46.5s30 45.166 40 74.499s15 63 15 101c0 38.667 -3.5 71.5 -10.5 98.5s-16.667 49 -29 66s-26.666 29.5 -42.999 37.5s-33.833 12 -52.5 12
c-21.333 0 -41 -2.66699 -59 -8c-1.33301 9.33301 -3.16602 18 -5.49902 26s-4.16602 16.667 -5.49902 26c10 5.33301 22 9 36 11s26.667 3 38 3c29.333 0 56.166 -5.83301 80.499 -17.5s45.166 -28.834 62.499 -51.501s30.833 -51 40.5 -85s14.5 -73.333 14.5 -118
c0 -46 -6.83301 -87.333 -20.5 -124s-32 -67.834 -55 -93.501s-49.5 -45.167 -79.5 -58.5s-61.667 -20 -95 -20h-66z" />
    <glyph glyph-name="uni0E08" unicode="&#xe08;" horiz-adv-x="538" 
d="M184 0l-55.9971 230.999c-4 17.333 -14.333 26 -31 26h-35v58h41c25.333 0 45.166 -5 59.499 -15s24.166 -28.667 29.499 -56l43 -186h17c21.333 0 42 5.16699 62 15.5s37.833 25.833 53.5 46.5s28.167 46 37.5 76s14 64.667 14 104
c0 72.667 -15.5 125.834 -46.5 159.501s-76.5 50.5 -136.5 50.5c-40 0 -75.833 -6.16699 -107.5 -18.5s-60.167 -28.833 -85.5 -49.5l-21 52c26 20.667 57.667 38.167 95 52.5s76.666 21.5 117.999 21.5c83.333 0 146.333 -24 189 -72s64 -113.667 64 -197
c0 -44 -6 -84.333 -18 -121s-28.667 -68.167 -50 -94.5s-47 -46.833 -77 -61.5s-63 -22 -99 -22h-60z" />
    <glyph glyph-name="uni0E09" unicode="&#xe09;" horiz-adv-x="587" 
d="M447 0l-5.00195 96.001c-19.333 -30 -43.166 -55 -71.499 -75s-65.833 -30 -112.5 -30c-106.667 0 -160 55.667 -160 167v72c0 9.33301 -2.33301 16.166 -7 20.499s-10.667 6.5 -18 6.5h-28v57h47c22.667 0 40.334 -6 53.001 -18s19 -30.667 19 -56v-79
c0 -39.333 8.5 -67.833 25.5 -85.5s45.5 -26.5 85.5 -26.5c18.667 0 36.5 3.33301 53.5 10s32.667 15.5 47 26.5s27 24 38 39s20.5 30.833 28.5 47.5v164c0 55.333 -13.833 98.166 -41.5 128.499s-69.167 45.5 -124.5 45.5c-42 0 -80.667 -6.16699 -116 -18.5
s-66.666 -28.166 -93.999 -47.499l-25 51c30 20.667 64.167 38 102.5 52s82.166 21 131.499 21c78 0 136.667 -21 176 -63s59 -98.333 59 -169v-336h-63z" />
    <glyph glyph-name="uni0E0A" unicode="&#xe0a;" horiz-adv-x="553" 
d="M476 187c0 -64.667 -16.3301 -113.499 -48.9971 -146.499s-83.667 -49.5 -153 -49.5c-70 0 -121.5 17.167 -154.5 51.5s-49.5 79.5 -49.5 135.5v78c0 20 6.16699 39.167 18.5 57.5s25.166 35.166 38.499 50.499c11.333 14 21.666 27.667 30.999 41s14 26.666 14 39.999
v26c0 9.33301 -2.33301 16.666 -7 21.999s-12.667 8 -24 8h-65v58h73c32 0 54.667 -7.5 68 -22.5s20 -35.167 20 -60.5v-30c0 -18.667 -5.33301 -36.5 -16 -53.5s-22.667 -33.167 -36 -48.5c-12.667 -14.667 -23.834 -29.167 -33.501 -43.5s-14.5 -29.166 -14.5 -44.499v-78
c0 -43.333 10.833 -75.833 32.5 -97.5s56.5 -32.5 104.5 -32.5c22.667 0 42.167 2.16699 58.5 6.5s30 11.833 41 22.5s19.167 24.834 24.5 42.501s8 39.834 8 66.501v105c0 30.667 -6.83301 53 -20.5 67s-31.167 21 -52.5 21h-17l-10 29l54 75l54 76h74l-112 -147
c29.333 -4.66699 53.333 -17.834 72 -39.501s28 -48.5 28 -80.5v-105z" />
    <glyph glyph-name="uni0E0B" unicode="&#xe0b;" horiz-adv-x="556" 
d="M141 178c0 -43.333 10.666 -75.833 31.999 -97.5s56 -32.5 104 -32.5c22.667 0 42.334 2.16699 59.001 6.5s30.5 11.833 41.5 22.5s19.167 24.834 24.5 42.501s8 39.834 8 66.501v105c0 30.667 -6.83301 53 -20.5 67s-31.167 21 -52.5 21h-17l-10 29l107 151h74
l-112 -147c30 -4.66699 54.167 -17.834 72.5 -39.501s27.5 -48.5 27.5 -80.5v-105c0 -64.667 -16.333 -113.5 -49 -146.5s-83.667 -49.5 -153 -49.5c-70 0 -121.333 17.167 -154 51.5s-49 79.5 -49 135.5v78c0 19.333 6 37.333 18 54s25 32.667 39 48
c13.333 15.333 25.5 30.666 36.5 45.999s16.5 31.666 16.5 48.999v22c0 9.33301 -2.33301 16.833 -7 22.5s-12.667 8.5 -24 8.5c-9.33301 0 -17.5 -2.66699 -24.5 -8s-12.5 -13.666 -16.5 -24.999c-13.333 6 -25.5 11.833 -36.5 17.5s-23.167 11.5 -36.5 17.5v57l67 -36
c6.66699 11.333 15.834 20 27.501 26s24.167 9 37.5 9c26 0 45.333 -7.83301 58 -23.5s19 -37.167 19 -64.5v-23c0 -22.667 -6.16699 -43.334 -18.5 -62.001s-25.833 -35.667 -40.5 -51c-12.667 -14 -23.834 -27.667 -33.501 -41s-14.5 -27.666 -14.5 -42.999v-78z" />
    <glyph glyph-name="uni0E0C" unicode="&#xe0c;" horiz-adv-x="919" 
d="M431 353c0 51.333 -12.002 90.3301 -36.002 116.997s-60 40 -108 40c-18 0 -35.333 -2.5 -52 -7.5s-32.167 -12 -46.5 -21s-27 -19.667 -38 -32s-19.833 -25.833 -26.5 -40.5l38.5 -36.5c13.667 -13 27.167 -25.167 40.5 -36.5c-36 -18 -54 -48.667 -54 -92v-156
c0 -21.333 10 -32 30 -32h51v-56h-70c-24.667 0 -44.167 7.33301 -58.5 22s-21.5 34.667 -21.5 60v151c0 20 5.33301 39.167 16 57.5s25.667 32.166 45 41.499l-88 74c6 20.667 16 40.834 30 60.501s31.167 37 51.5 52s43.5 27 69.5 36s53.667 13.5 83 13.5
c35.333 0 66.333 -5.33301 93 -16s48.834 -25.5 66.501 -44.5s31 -41.667 40 -68s13.5 -55.166 13.5 -86.499v-181c8 -17.333 17.833 -33.333 29.5 -48s24.667 -27.667 39 -39s29.666 -20.166 45.999 -26.499s32.833 -9.5 49.5 -9.5c40.667 0 69.667 13.5 87 40.5
s26 64.167 26 111.5v358h68v-344c0 -69.333 -13.167 -124 -39.5 -164s-70.166 -60 -131.499 -60c-36.667 0 -69.167 9.33301 -97.5 28s-53.166 44.334 -74.499 77.001l-7 -96h-64v353zM208.998 338.997l-1 -7c-0.666992 0 -1.5 0.5 -2.5 1.5l-2.5 2.5z" />
    <glyph glyph-name="uni0E0D" unicode="&#xe0d;" horiz-adv-x="919" 
d="M843 60c0 -38.667 -5.17188 -71.834 -15.5049 -99.501s-24.833 -50.5 -43.5 -68.5s-41.167 -31.167 -67.5 -39.5s-55.5 -12.5 -87.5 -12.5c-38 0 -72.333 4 -103 12s-55 18 -73 30c2.66699 8.66699 5.5 17.334 8.5 26.001s5.83301 17.334 8.5 26.001
c19.333 -11.333 41.833 -20 67.5 -26s51.834 -9 78.501 -9c24.667 0 46.834 2.16699 66.501 6.5s36.334 12.5 50.001 24.5s24.167 28.5 31.5 49.5s11 48.167 11 81.5v35l-8 2c-6 -12 -14.167 -24 -24.5 -36s-22.5 -22.5 -36.5 -31.5s-29.833 -16.333 -47.5 -22
s-37.167 -8.5 -58.5 -8.5c-24.667 0 -47.334 3.66699 -68.001 11s-38.5 18.666 -53.5 33.999s-26.833 34.5 -35.5 57.5s-13 50.5 -13 82.5v168c0 51.333 -11.833 90.333 -35.5 117s-59.5 40 -107.5 40c-18 0 -35.333 -2.5 -52 -7.5s-32.167 -12 -46.5 -21
s-27 -19.667 -38 -32s-19.833 -25.833 -26.5 -40.5c13.333 -11.333 26.5 -23.5 39.5 -36.5s26.167 -25.167 39.5 -36.5c-36 -16.667 -54 -47.334 -54 -92.001v-156c0 -21.333 10 -32 30 -32h51v-56h-70c-24.667 0 -44.167 7.33301 -58.5 22s-21.5 34.667 -21.5 60v151
c0 18.667 5.33301 37.5 16 56.5s25.667 33.167 45 42.5c-14 11.333 -28.667 23.833 -44 37.5s-30 26.167 -44 37.5c6 20.667 16 40.667 30 60s31.333 36.5 52 51.5s43.834 27 69.501 36s53.167 13.5 82.5 13.5c35.333 0 66.333 -5.33301 93 -16s48.834 -25.5 66.501 -44.5
s30.834 -41.667 39.501 -68s13 -55.166 13 -86.499v-168c0 -38.667 9 -69.5 27 -92.5s47 -34.5 87 -34.5c19.333 0 37.166 2.83301 53.499 8.5s31.333 13.5 45 23.5s25.834 21.5 36.501 34.5s19.667 26.833 27 41.5v393h68v-499z" />
    <glyph glyph-name="uni0E0E" unicode="&#xe0e;" horiz-adv-x="609" 
d="M464 353c0 51.333 -13.332 90.3369 -39.999 117.004s-65.334 40 -116.001 40c-41.333 0 -77.666 -9.83301 -108.999 -29.5s-53 -43.834 -65 -72.501l45 -39l46 -39c-36.667 -18.667 -55 -49.334 -55 -92.001v-157c0 -25.333 -7 -45.166 -21 -59.499
s-33.667 -21.5 -59 -21.5h-55v56h37c11.333 0 19.166 2.66699 23.499 8s6.5 13 6.5 23v141c0 19.333 5.16699 38.166 15.5 56.499s25.166 32.166 44.499 41.499l-50 38.5l-50 39.5c6 20.667 16.333 40.834 31 60.501s32.834 37.167 54.501 52.5s46 27.666 73 36.999
s56.167 14 87.5 14c36.667 0 69.167 -5.33301 97.5 -16s51.833 -25.5 70.5 -44.5s32.834 -41.667 42.501 -68s14.5 -55.166 14.5 -86.499v-555h-88c-18 15.333 -38.833 28.666 -62.5 39.999s-50.5 17 -80.5 17c-32.667 0 -60.334 -4.5 -83.001 -13.5
s-44.667 -21.833 -66 -38.5l-9 26l-8 24c18 17.333 40.333 31.666 67 42.999s57 17 91 17c32 0 63.5 -7.5 94.5 -22.5s56.167 -32.833 75.5 -53.5v516z" />
    <glyph glyph-name="uni0E0F" unicode="&#xe0f;" horiz-adv-x="609" 
d="M533 -202l-70.001 0.000976562l-127 77c-10.667 -25.333 -27.5 -45.5 -50.5 -60.5s-46.833 -22.5 -71.5 -22.5s-47.5 2.83301 -68.5 8.5s-38.167 12.5 -51.5 20.5c3.33301 9.33301 6.33301 18.833 9 28.5s5.66699 19.5 9 29.5c14 -9.33301 29.833 -17.333 47.5 -24
s34.167 -10 49.5 -10c28 0 52.333 9.5 73 28.5s34.667 42.5 42 70.5l140 -84v493c0 51.333 -13.333 90.333 -40 117s-65.334 40 -116.001 40c-41.333 0 -77.666 -9.83301 -108.999 -29.5s-53 -43.834 -65 -72.501l74 -60l17 -17c-36.667 -18 -55 -49 -55 -93v-157
c0 -25.333 -7 -45.166 -21 -59.499s-33.667 -21.5 -59 -21.5h-55v56h37c11.333 0 19.166 2.66699 23.499 8s6.5 13 6.5 23v141c0 19.333 5.16699 38.166 15.5 56.499s24.833 32.166 43.5 41.499l-37 29l-31 24.5l-31 24.5c6 20.667 16.333 40.834 31 60.501
s32.834 37.167 54.501 52.5s46 27.666 73 36.999s56.167 14 87.5 14c36.667 0 69.167 -5.33301 97.5 -16s51.833 -25.5 70.5 -44.5s32.834 -41.667 42.501 -68s14.5 -55.166 14.5 -86.499v-555z" />
    <glyph glyph-name="uni0E10" unicode="&#xe10;" horiz-adv-x="538" 
d="M184 0l-55.998 230.999c-4 17.333 -14.333 26 -31 26h-35v58h41c25.333 0 45.166 -5 59.499 -15s24.166 -28.667 29.499 -56l43 -186h17c21.333 0 42 5.16699 62 15.5s37.833 25.833 53.5 46.5s28.167 46 37.5 76s14 64.667 14 104c0 70.667 -15.5 123.334 -46.5 158.001
s-76.5 52 -136.5 52c-38.667 0 -74.167 -6.33301 -106.5 -19s-61.166 -29 -86.499 -49l-21 52c26 20.667 57.667 38.167 95 52.5s76.666 21.5 117.999 21.5c50.667 0 95 -11 133 -33l54 63h76l-83 -98c24 -25.333 42.167 -55 54.5 -89s18.5 -71.333 18.5 -112
c0 -44 -6 -84.333 -18 -121s-28.667 -68.167 -50 -94.5s-47 -46.833 -77 -61.5s-63 -22 -99 -22h-60zM338.002 -202.001c-22 0 -41.334 4.83105 -58.001 14.498s-30.667 21.834 -42 36.501c-10 -15.333 -24.167 -27.666 -42.5 -36.999s-39.166 -14 -62.499 -14h-62v58h68
c21.333 0 40 4.83301 56 14.5s30.333 22.167 43 37.5c13.333 -14.667 27 -27 41 -37s32.333 -15 55 -15h58v60h64v-118h-118z" />
    <glyph glyph-name="uni0E11" unicode="&#xe11;" horiz-adv-x="606" 
d="M150 0l-68.002 0.000976562v218c0 24.667 3.16699 47.667 9.5 69s14.333 41.333 24 60s20.334 35.5 32.001 50.5s22.834 28.5 33.501 40.5v37c0 8.66699 -2.16699 16 -6.5 22s-12.166 9 -23.499 9c-8.66699 0 -16.5 -3.16699 -23.5 -9.5s-12.833 -14.166 -17.5 -23.499
l-65 34v58l48 -29c3.33301 -1.33301 5.16602 -2.5 5.49902 -3.5s2.16602 -2.16699 5.49902 -3.5c6.66699 11.333 16 20 28 26s24.667 9 38 9c20.667 0 36.834 -8 48.501 -24s17.834 -34.667 18.501 -56c16 22 36.667 41.5 62 58.5s54.666 25.5 87.999 25.5
c20.667 0 39.667 -3.33301 57 -10s32.333 -17 45 -31s22.5 -32 29.5 -54s10.5 -48.333 10.5 -79v-394h-69v393c0 45.333 -6.66699 76.166 -20 92.499s-32 24.5 -56 24.5c-27.333 0 -55 -9.33301 -83 -28s-53.167 -42.334 -75.5 -71.001s-40.5 -60 -54.5 -94
s-21 -66.333 -21 -97v-220z" />
    <glyph glyph-name="uni0E12" unicode="&#xe12;" horiz-adv-x="983" 
d="M546 172c7.33301 -16.667 16.999 -32.501 28.999 -47.501s25.5 -28 40.5 -39s31.167 -19.833 48.5 -26.5s35.333 -10 54 -10c44 0 75.5 13.5 94.5 40.5s28.5 65.833 28.5 116.5v353h69v-354c0 -67.333 -14.833 -119.833 -44.5 -157.5s-75.834 -56.5 -138.501 -56.5
c-39.333 0 -74 9.16699 -104 27.5s-55.667 44.5 -77 78.5c-0.666992 -14 -1.5 -30 -2.5 -48s-1.83301 -34.333 -2.5 -49h-64v400c0 28.667 -5.66699 51.5 -17 68.5s-27 29.167 -47 36.5l-81 -54l-77 53c-18.667 -4 -36.167 -11.833 -52.5 -23.5s-30.5 -27 -42.5 -46
s-21.333 -41.5 -28 -67.5s-10 -55.333 -10 -88c0 -41.333 4.33301 -76.333 13 -105s20.334 -52 35.001 -70s31.334 -31.167 50.001 -39.5s37.667 -12.5 57 -12.5c26 0 48.333 3.66699 67 11c2 -9.33301 4.16699 -18 6.5 -26s4.5 -16.667 6.5 -26
c-11.333 -4.66699 -24.166 -8.66699 -38.499 -12s-29.5 -5 -45.5 -5c-30.667 0 -59.334 5.5 -86.001 16.5s-50 28 -70 51s-35.667 52.5 -47 88.5s-17 78.667 -17 128c0 39.333 5 75.333 15 108s23.833 61.334 41.5 86.001s38.5 45.167 62.5 61.5s50.333 27.833 79 34.5
l81 -64l41.5 31.5l41.5 32.5c41.333 -9.33301 73.5 -28.5 96.5 -57.5s34.5 -67.5 34.5 -115.5v-223z" />
    <glyph glyph-name="uni0E13" unicode="&#xe13;" horiz-adv-x="919" 
d="M780 0l-8.00195 96.0029c-20.667 -32.667 -45.334 -58.334 -74.001 -77.001s-62.334 -28 -101.001 -28c-56.667 0 -98.667 16.167 -126 48.5s-41 76.833 -41 133.5v180c0 51.333 -11.833 90.333 -35.5 117s-59.5 40 -107.5 40c-18 0 -35.333 -2.5 -52 -7.5
s-32.167 -12 -46.5 -21s-27 -19.667 -38 -32s-19.833 -25.833 -26.5 -40.5c13.333 -11.333 26.5 -23.5 39.5 -36.5s26.167 -25.167 39.5 -36.5c-36 -16.667 -54 -47.334 -54 -92.001v-156c0 -21.333 10 -32 30 -32h51v-56h-70c-24.667 0 -44.167 7.33301 -58.5 22
s-21.5 34.667 -21.5 60v151c0 20 5.33301 39.167 16 57.5s25.667 32.166 45 41.499c-14 11.333 -28.667 23.833 -44 37.5s-30 26.167 -44 37.5c6 20.667 16 40.667 30 60s31.333 36.5 52 51.5s43.834 27 69.501 36s53.167 13.5 82.5 13.5c35.333 0 66.333 -5.33301 93 -16
s48.834 -25.5 66.501 -44.5s30.834 -41.667 39.501 -68s13 -55.166 13 -86.499v-179c0 -38 8.33301 -68.333 25 -91s42.334 -34 77.001 -34c19.333 0 37.833 3.16699 55.5 9.5s34 15.166 49 26.499s28.333 24.333 40 39s21.5 30.667 29.5 48v387h68v-559h-63z" />
    <glyph glyph-name="uni0E14" unicode="&#xe14;" horiz-adv-x="620" 
d="M475 0v335.996c0 24.667 -3.16699 47.667 -9.5 69s-16 39.833 -29 55.5s-29.5 27.834 -49.5 36.501s-43.333 13 -70 13c-32.667 0 -61.167 -5.66699 -85.5 -17s-44.666 -27.5 -60.999 -48.5s-28.5 -46 -36.5 -75s-12 -61.5 -12 -97.5c0 -40.667 4.83301 -75 14.5 -103
s22 -50.667 37 -68s32 -29.833 51 -37.5s38.167 -11.5 57.5 -11.5c25.333 0 46.666 3.33301 63.999 10c2 -9.33301 4.16699 -18 6.5 -26s4.5 -16.667 6.5 -26c-11.333 -4.66699 -23.833 -8.5 -37.5 -11.5s-28.167 -4.5 -43.5 -4.5c-29.333 0 -57.5 5.5 -84.5 16.5
s-51 28 -72 51s-37.667 51.833 -50 86.5s-18.5 76 -18.5 124c0 41.333 5.83301 80 17.5 116s28.667 67.333 51 94s49.833 47.667 82.5 63s69.667 23 111 23c39.333 0 73.333 -6.16699 102 -18.5s52.5 -29.166 71.5 -50.499s33 -46.166 42 -74.499s13.5 -58.166 13.5 -89.499
v-335h-69z" />
    <glyph glyph-name="uni0E15" unicode="&#xe15;" horiz-adv-x="633" 
d="M338 450l-40.5 27l-40.5 26c-18.667 -4 -36.334 -11.833 -53.001 -23.5s-31.167 -27 -43.5 -46s-22 -41.833 -29 -68.5s-10.5 -56.667 -10.5 -90c0 -40 4.66699 -74.167 14 -102.5s21.5 -51.5 36.5 -69.5s32 -31 51 -39s38.5 -12 58.5 -12c25.333 0 47.333 3.66699 66 11
c2.66699 -9.33301 4.83398 -18.166 6.50098 -26.499l5.5 -26.5c-21.333 -10.667 -49.333 -16 -84 -16c-30.667 0 -59.5 5.5 -86.5 16.5s-50.5 27.833 -70.5 50.5s-35.833 51.667 -47.5 87s-17.5 77.666 -17.5 126.999c0 40 5 76.833 15 110.5s23.833 63 41.5 88
s38.667 45.5 63 61.5s50.833 27 79.5 33l86 -63l31.5 22l31.5 22l24 19c40.667 -10 72.667 -29.333 96 -58s35 -67 35 -115v-395h-69v400c0 28 -5.66699 50.5 -17 67.5s-27.333 29.167 -48 36.5zM336 449l1.99902 1c0.666992 -0.666992 1.33398 -1 2.00098 -1h-4z" />
    <glyph glyph-name="uni0E16" unicode="&#xe16;" horiz-adv-x="603" 
d="M150 88c0 -21.333 10 -32.001 30 -32.001h51v-56h-70c-24.667 0 -44.167 7.33301 -58.5 22s-21.5 34.667 -21.5 60v151c0 20 5.33301 39.167 16 57.5s25.667 32.166 45 41.499l-88 74c6 20.667 16.167 40.834 30.5 60.501s32.333 37 54 52s46 27 73 36
s56.167 13.5 87.5 13.5c36.667 0 69.167 -5.33301 97.5 -16s52 -25.5 71 -44.5s33.333 -41.667 43 -68s14.5 -55.166 14.5 -86.499v-353h-68v353c0 51.333 -13.5 90.333 -40.5 117s-66.167 40 -117.5 40c-20 0 -39.167 -2.5 -57.5 -7.5s-35 -12 -50 -21
s-28.167 -19.667 -39.5 -32s-20.333 -25.833 -27 -40.5l38.5 -36.5c13.667 -13 27.167 -25.167 40.5 -36.5c-36 -18 -54 -48.667 -54 -92v-156zM210 338.999l-1 -7c-0.666992 0 -1.5 0.5 -2.5 1.5l-2.5 2.5z" />
    <glyph glyph-name="uni0E17" unicode="&#xe17;" horiz-adv-x="612" 
d="M467 363c0 50.667 -9.66699 87.832 -29 111.499s-47 35.5 -83 35.5c-21.333 0 -42.166 -3.33301 -62.499 -10s-39.333 -15.667 -57 -27s-33.667 -24.5 -48 -39.5s-26.5 -30.833 -36.5 -47.5v-386h-69v559h64l5 -96c12 13.333 25.667 26.333 41 39
s31.666 23.834 48.999 33.501s36 17.5 56 23.5s40.667 9 62 9c58 0 102 -18 132 -54s45 -86.333 45 -151v-363h-69v363z" />
    <glyph glyph-name="uni0E18" unicode="&#xe18;" horiz-adv-x="552" 
d="M500 151c0 -32 -4.16895 -58.3389 -12.502 -79.0059s-21.5 -37 -39.5 -49s-41 -20.333 -69 -25s-61.667 -7 -101 -7c-40 0 -74.167 2.83301 -102.5 8.5s-51.333 15 -69 28s-30.667 30.333 -39 52s-12.5 48.5 -12.5 80.5v55h66v-55c0 -22.667 2.66699 -41.334 8 -56.001
s14.333 -26.167 27 -34.5s28.834 -14.166 48.501 -17.499s44.167 -5 73.5 -5s54 1.33301 74 4s36.167 7.83398 48.5 15.501s21.166 18.167 26.499 31.5s8 31 8 53v50c0 21.333 -5.5 37.333 -16.5 48s-26.833 17.667 -47.5 21l-191 26c-38 6.66699 -69 20.334 -93 41.001
s-36 50.667 -36 90c0 42 18.833 76.333 56.5 103s91.834 40 162.501 40c39.333 0 76 -3.83301 110 -11.5s64.667 -18.167 92 -31.5c-2.66699 -9.33301 -4.83398 -18.166 -6.50098 -26.499l-5.5 -26.5c-25.333 12.667 -54.166 22.5 -86.499 29.5s-66.166 10.5 -101.499 10.5
c-54 0 -93.333 -8.16699 -118 -24.5s-37 -37.166 -37 -62.499c0 -23.333 6 -40.166 18 -50.499s28.667 -17.166 50 -20.499l192 -28c38 -7.33301 68 -21.5 90 -42.5s33 -49.5 33 -85.5v-49z" />
    <glyph glyph-name="uni0E19" unicode="&#xe19;" horiz-adv-x="602" 
d="M149 196c0 -50 9.66602 -87.001 28.999 -111.001s52 -36 98 -36c18.667 0 37.167 3.33301 55.5 10s35.333 15.5 51 26.5s29.834 24 42.501 39s22.667 30.833 30 47.5v387h68v-559h-63l-5 97c-22 -33.333 -49.167 -59.333 -81.5 -78s-70.5 -28 -114.5 -28
c-59.333 0 -104 17.333 -134 52s-45 85.334 -45 152.001v364h69v-363z" />
    <glyph glyph-name="uni0E1A" unicode="&#xe1a;" horiz-adv-x="600" 
d="M302 49c52 0 90.501 13.5 115.501 40.5s37.5 64.5 37.5 112.5v357h68v-357c0 -68 -18.667 -120.167 -56 -156.5s-92.333 -54.5 -165 -54.5s-127.834 18.167 -165.501 54.5s-56.5 88.5 -56.5 156.5v357h69v-357c0 -48 12.5 -85.5 37.5 -112.5s63.5 -40.5 115.5 -40.5z" />
    <glyph glyph-name="uni0E1B" unicode="&#xe1b;" horiz-adv-x="600" 
d="M302 49c52 0 90.501 13.5 115.501 40.5s37.5 64.5 37.5 112.5v549h68v-549c0 -68 -18.667 -120.167 -56 -156.5s-92.333 -54.5 -165 -54.5s-127.834 18.167 -165.501 54.5s-56.5 88.5 -56.5 156.5v357h69v-357c0 -48 12.5 -85.5 37.5 -112.5s63.5 -40.5 115.5 -40.5z" />
    <glyph glyph-name="uni0E1C" unicode="&#xe1c;" horiz-adv-x="655" 
d="M468 191c8 -16 15.334 -33.3291 22.001 -51.9961s13 -38.334 19 -59.001l8 1c-3.33301 25.333 -5.33301 50.166 -6 74.499s-1 50.5 -1 78.5v325h67v-559h-76l-67.5 133l-67.5 133c-8.66699 17.333 -15.834 34.833 -21.501 52.5l-12.5 39.5
c-1.33301 -4.66699 -3.33301 -10.667 -6 -18l-8.5 -24c-3 -8.66699 -6.33301 -17.334 -10 -26.001s-7.5 -16.667 -11.5 -24l-138 -266h-76v477c0 24.667 7.16699 44.667 21.5 60s34.166 22.666 59.499 21.999h59v-58h-41c-21.333 0 -32 -10.667 -32 -32v-235
c0 -28 -0.666992 -54 -2 -78s-3.66602 -48.667 -6.99902 -74l8 -2l19.5 56.5c7 20.333 15.167 38.833 24.5 55.5l112 208h55z" />
    <glyph glyph-name="uni0E1D" unicode="&#xe1d;" horiz-adv-x="655" 
d="M468 191c8 -16 15.334 -33.3291 22.001 -51.9961s13 -38.334 19 -59.001l8 1c-3.33301 25.333 -5.33301 50.166 -6 74.499s-1 50.5 -1 78.5v517h67v-751h-76l-67.5 133l-67.5 133c-8.66699 17.333 -15.834 34.833 -21.501 52.5l-12.5 39.5
c-1.33301 -4.66699 -3.33301 -10.667 -6 -18l-8.5 -24c-3 -8.66699 -6.33301 -17.334 -10 -26.001s-7.5 -16.667 -11.5 -24l-138 -266h-76v477c0 24.667 7.16699 44.667 21.5 60s34.166 22.666 59.499 21.999h59v-58h-41c-21.333 0 -32 -10.667 -32 -32v-235
c0 -28 -0.666992 -54 -2 -78s-3.66602 -48.667 -6.99902 -74l8 -2l19.5 56.5c7 20.333 15.167 38.833 24.5 55.5l112 208h55z" />
    <glyph glyph-name="uni0E1E" unicode="&#xe1e;" horiz-adv-x="700" 
d="M381 530l101.999 -307.994c5.33301 -18 10.833 -38.833 16.5 -62.5s10.834 -52.167 15.501 -85.5l8 1c2.66699 34 5.33398 62.167 8.00098 84.5s5.66699 43.5 9 63.5l27.5 167.5l26.5 168.5h69l-92 -559h-78l-111 329c-3.33301 8.66699 -6.16602 18.5 -8.49902 29.5
l-7 33.5c-2.33301 11.333 -4.33301 22.666 -6 33.999s-2.83398 21.666 -3.50098 30.999l-8 1c-1.33301 -10 -3 -20.667 -5 -32s-4.16699 -22.833 -6.5 -34.5s-4.83301 -22.834 -7.5 -33.501s-5.33398 -20.334 -8.00098 -29.001l-111 -329h-77l-40.5 246.5l-40.5 246.5
l-12 66h69l27 -168.5l27 -167.5c2.66699 -18.667 5.5 -40.334 8.5 -65.001s5.16699 -52.334 6.5 -83.001l8 -1c6 34 11.667 62.5 17 85.5s11.333 43.833 18 62.5l101 308h58z" />
    <glyph glyph-name="uni0E1F" unicode="&#xe1f;" horiz-adv-x="700" 
d="M383 530l104 -307.994c5.33301 -18 10.833 -38.833 16.5 -62.5s10.834 -52.167 15.501 -85.5l8 1c2.66699 34 5.33398 62.167 8.00098 84.5s5.66699 43.5 9 63.5l55 528h70l-94 -751h-78l-113 329c-3.33301 8.66699 -6.16602 18.5 -8.49902 29.5l-7 33.5
c-2.33301 11.333 -4.33301 22.666 -6 33.999s-2.83398 21.666 -3.50098 30.999l-8 1c-1.33301 -10 -3 -20.667 -5 -32s-4.16699 -22.833 -6.5 -34.5s-4.83301 -22.834 -7.5 -33.501s-5.33398 -20.334 -8.00098 -29.001l-113 -329h-78l-40 246.5l-40 246.5l-12 66h69
l27 -168.5l27 -167.5c2.66699 -18.667 5.5 -40.334 8.5 -65.001s5.16699 -52.334 6.5 -83.001l8 -1c5.33301 34 11.166 62.333 17.499 85s12.833 43.667 19.5 63l101 308h58z" />
    <glyph glyph-name="uni0E20" unicode="&#xe20;" horiz-adv-x="609" 
d="M464 353c0 51.333 -13.333 90.335 -40 117.002s-65.334 40 -116.001 40c-41.333 0 -77.666 -9.83301 -108.999 -29.5s-53 -43.834 -65 -72.501l45 -39l46 -39c-36.667 -18.667 -55 -49.334 -55 -92.001v-157c0 -25.333 -7 -45.166 -21 -59.499s-33.667 -21.5 -59 -21.5
h-55v56h37c11.333 0 19.166 2.66699 23.499 8s6.5 13 6.5 23v141c0 19.333 5.16699 38.166 15.5 56.499s25.166 32.166 44.499 41.499l-50 38.5l-50 39.5c6 20.667 16.333 40.834 31 60.501s32.834 37.167 54.501 52.5s46 27.666 73 36.999s56.167 14 87.5 14
c36.667 0 69.167 -5.33301 97.5 -16s51.833 -25.5 70.5 -44.5s32.834 -41.667 42.501 -68s14.5 -55.166 14.5 -86.499v-353h-69v353z" />
    <glyph glyph-name="uni0E21" unicode="&#xe21;" horiz-adv-x="602" 
d="M457 559h68.002v-354c0 -67.333 -15.333 -119.833 -46 -157.5s-78 -56.5 -142 -56.5c-40 0 -75.5 9.16699 -106.5 27.5s-57.5 44.5 -79.5 78.5c-0.666992 -14 -1.5 -30 -2.5 -48s-1.83301 -34.333 -2.5 -49h-64v559h69v-387c7.33301 -16.667 17.166 -32.5 29.499 -47.5
s26.166 -28 41.499 -39s32 -19.833 50 -26.5s36.667 -10 56 -10c46 0 79 13.5 99 40.5s30 65.833 30 116.5v353z" />
    <glyph glyph-name="uni0E22" unicode="&#xe22;" horiz-adv-x="577" 
d="M431 559l69.001 0.00292969v-356c0 -32.667 -4.33301 -62 -13 -88s-22.167 -48.167 -40.5 -66.5s-42 -32.5 -71 -42.5s-63.5 -15 -103.5 -15c-68.667 0 -122.667 15.167 -162 45.5s-59 73.833 -59 130.5c0 34 9.16699 63.167 27.5 87.5s44.5 42.166 78.5 53.499
c-30.667 8.66699 -56 23.5 -76 44.5s-30 49.5 -30 85.5s12.167 66.167 36.5 90.5s57.833 36.5 100.5 36.5c16 0 31.167 -1.66699 45.5 -5s26.833 -7.33301 37.5 -12c-0.666992 -7.33301 -1.5 -13.666 -2.5 -18.999l-3.5 -19l-3 -15
c-7.33301 3.33301 -16.5 6.16602 -27.5 8.49902s-22.5 3.5 -34.5 3.5c-28 0 -48.833 -7.16699 -62.5 -21.5s-20.5 -33.166 -20.5 -56.499c0 -14.667 3 -27.5 9 -38.5s14 -20.333 24 -28s21.167 -13.334 33.5 -17.001s24.5 -5.5 36.5 -5.5h78l2 -19
c1.33301 -6.66699 2.16602 -13.334 2.49902 -20.001s0.833008 -13.334 1.5 -20.001h-71c-32.667 0 -60 -10.167 -82 -30.5s-33 -46.833 -33 -79.5c0 -20.667 4.33301 -38.667 13 -54s20.167 -28 34.5 -38s30.833 -17.5 49.5 -22.5s38 -7.5 58 -7.5
c54 0 93.833 13.167 119.5 39.5s38.5 64.833 38.5 115.5v355z" />
    <glyph glyph-name="uni0E23" unicode="&#xe23;" horiz-adv-x="490" 
d="M228 48c48.667 0 85.501 9.33496 110.501 28.002s37.5 42 37.5 70c0 16.667 -4.5 31 -13.5 43s-20.833 22.5 -35.5 31.5s-31.167 16.833 -49.5 23.5s-36.5 12.667 -54.5 18c-24 6.66699 -46.5 14.334 -67.5 23.001s-39.333 19.167 -55 31.5s-28 27.166 -37 44.499
s-13.5 38.333 -13.5 63c0 45.333 18 80.666 54 105.999s85.333 38 148 38c31.333 0 61.5 -3.16699 90.5 -9.5s54.5 -15.166 76.5 -26.499l-17 -51c-19.333 9.33301 -40.833 16.666 -64.5 21.999s-49.5 8 -77.5 8c-46.667 0 -82.167 -8.16699 -106.5 -24.5
s-36.5 -37.166 -36.5 -62.499c0 -14.667 3.66699 -27.334 11 -38.001s17 -20 29 -28s26 -15 42 -21s32.667 -11.667 50 -17c26 -8.66699 50.667 -18.167 74 -28.5s44 -22.5 62 -36.5s32.167 -30 42.5 -48s15.5 -39 15.5 -63c0 -46.667 -17.167 -83.834 -51.5 -111.501
s-87.5 -41.5 -159.5 -41.5c-36.667 0 -70.334 3.33301 -101.001 10s-56.667 15.667 -78 27l16 52c20 -9.33301 44 -17 72 -23s57 -9 87 -9z" />
    <glyph glyph-name="uni0E24" unicode="&#xe24;" horiz-adv-x="603" 
d="M150 88c0 -21.333 10 -32.001 30 -32.001h51v-56h-70c-24.667 0 -44.167 7.33301 -58.5 22s-21.5 34.667 -21.5 60v151c0 20 5.33301 39.167 16 57.5s25.667 32.166 45 41.499l-88 74c6 20.667 16.167 40.834 30.5 60.501s32.333 37 54 52s46 27 73 36
s56.167 13.5 87.5 13.5c36.667 0 69.167 -5.33301 97.5 -16s52 -25.5 71 -44.5s33.333 -41.667 43 -68s14.5 -55.166 14.5 -86.499v-555h-68v555c0 51.333 -13.5 90.333 -40.5 117s-66.167 40 -117.5 40c-20 0 -39.167 -2.5 -57.5 -7.5s-35 -12 -50 -21
s-28.167 -19.667 -39.5 -32s-20.333 -25.833 -27 -40.5l38.5 -36.5c13.667 -13 27.167 -25.167 40.5 -36.5c-36 -18 -54 -48.667 -54 -92v-156zM210 338.999l-1 -7c-0.666992 0 -1.5 0.5 -2.5 1.5l-2.5 2.5z" />
    <glyph glyph-name="uni0E25" unicode="&#xe25;" horiz-adv-x="572" 
d="M426 0l-0.00292969 279.001h-147c-52.667 0 -94.167 -9.66699 -124.5 -29s-45.5 -51 -45.5 -95c0 -18.667 3 -34.834 9 -48.501s14.333 -24.834 25 -33.501s22.834 -15.167 36.501 -19.5s28.5 -6.5 44.5 -6.5c14 0 28.5 1.16699 43.5 3.5s28.167 5.83301 39.5 10.5
l12 -53c-13.333 -5.33301 -29 -9.5 -47 -12.5s-36.333 -4.5 -55 -4.5c-24.667 0 -47.667 3.33301 -69 10s-40 16.834 -56 30.501s-28.5 30.667 -37.5 51s-13.5 44.166 -13.5 71.499c0 58 20.333 103 61 135s102.334 48 185.001 48h139v22
c0 48.667 -11.167 86.334 -33.5 113.001s-60.833 40 -115.5 40c-38 0 -73.333 -5.66699 -106 -17s-61.334 -25 -86.001 -41l-22 48c10.667 8 23.667 16 39 24s32.333 15 51 21s38.834 11 60.501 15s44.5 6 68.5 6c68.667 0 121.334 -18.5 158.001 -55.5
s55 -87.833 55 -152.5v-360h-69z" />
    <glyph glyph-name="uni0E26" unicode="&#xe26;" horiz-adv-x="609" 
d="M464 353c0 51.333 -13.333 90.335 -40 117.002s-65.334 40 -116.001 40c-41.333 0 -77.666 -9.83301 -108.999 -29.5s-53 -43.834 -65 -72.501l45 -39l46 -39c-36.667 -18.667 -55 -49.334 -55 -92.001v-157c0 -25.333 -7 -45.166 -21 -59.499s-33.667 -21.5 -59 -21.5
h-55v56h37c11.333 0 19.166 2.66699 23.499 8s6.5 13 6.5 23v141c0 19.333 5.16699 38.166 15.5 56.499s25.166 32.166 44.499 41.499l-50 38.5l-50 39.5c6 20.667 16.333 40.834 31 60.501s32.834 37.167 54.501 52.5s46 27.666 73 36.999s56.167 14 87.5 14
c36.667 0 69.167 -5.33301 97.5 -16s51.833 -25.5 70.5 -44.5s32.834 -41.667 42.501 -68s14.5 -55.166 14.5 -86.499v-555h-69v555z" />
    <glyph glyph-name="uni0E27" unicode="&#xe27;" horiz-adv-x="518" 
d="M58 95c23.333 -13.333 48.333 -24.334 75 -33.001s56 -13 88 -13c54.667 0 98 18.333 130 55s48 94.334 48 173.001s-15.167 137.167 -45.5 175.5s-74.5 57.5 -132.5 57.5c-34 0 -64.333 -4.5 -91 -13.5s-51.667 -21.167 -75 -36.5l-15 55
c24.667 14.667 53.167 27.167 85.5 37.5s65.833 15.5 100.5 15.5c78.667 0 138.667 -25.333 180 -76s62 -120.667 62 -210c0 -95.333 -21.5 -167.666 -64.5 -216.999s-104.167 -74 -183.5 -74c-38 0 -71.167 4.16699 -99.5 12.5s-54.5 20.166 -78.5 35.499z" />
    <glyph glyph-name="uni0E28" unicode="&#xe28;" horiz-adv-x="617" 
d="M310 568c23.333 0 45.332 -2.83301 65.999 -8.5s40.334 -13.5 59.001 -23.5l26 31l26 31h77l-82 -95c18.667 -20.667 33 -43.5 43 -68.5s15 -51.5 15 -79.5v-355h-68v356c0 45.333 -13.5 82.333 -40.5 111s-67.5 43 -121.5 43s-94.333 -14.167 -121 -42.5
s-40 -65.5 -40 -111.5v-130l7 -1c9.33301 20.667 24 38.167 44 52.5s44 21.5 72 21.5h66v-60h-66c-30 0 -55.667 -8.66699 -77 -26s-36.666 -42 -45.999 -74v-139h-69v355c0 30 5 58 15 84s24.833 48.5 44.5 67.5s43.667 34 72 45s61.166 16.5 98.499 16.5z" />
    <glyph glyph-name="uni0E29" unicode="&#xe29;" horiz-adv-x="614" 
d="M302 49c52 0 90.334 13.5 115.001 40.5s37 64.5 37 112.5v100h-134v57h134v200h69v-200h83l-15 -57h-68v-100c0 -68 -18.667 -120.167 -56 -156.5s-92.333 -54.5 -165 -54.5s-127.834 18.167 -165.501 54.5s-56.5 88.5 -56.5 156.5v357h69v-357
c0 -48 12.5 -85.5 37.5 -112.5s63.5 -40.5 115.5 -40.5z" />
    <glyph glyph-name="uni0E2A" unicode="&#xe2a;" horiz-adv-x="572" 
d="M426 0l-0.00390625 279.003h-147c-52.667 0 -94.167 -9.66699 -124.5 -29s-45.5 -51 -45.5 -95c0 -18.667 3 -34.834 9 -48.501s14.333 -24.834 25 -33.501s22.834 -15.167 36.501 -19.5s28.5 -6.5 44.5 -6.5c14 0 28.5 1.16699 43.5 3.5s28.167 5.83301 39.5 10.5
l12 -53c-13.333 -5.33301 -29 -9.5 -47 -12.5s-36.333 -4.5 -55 -4.5c-24.667 0 -47.667 3.33301 -69 10s-40 16.834 -56 30.501s-28.5 30.667 -37.5 51s-13.5 44.166 -13.5 71.499c0 58 20.333 103 61 135s102.334 48 185.001 48h139v22c0 46 -11.167 83 -33.5 111
s-60.166 42 -113.499 42c-39.333 0 -75.333 -5.66699 -108 -17s-61.334 -25 -86.001 -41l-22 48c11.333 8 24.833 16 40.5 24s32.834 15 51.501 21s38.5 11 59.5 15s42.5 6 64.5 6c44.667 0 83.334 -8.66699 116.001 -26c7.33301 9.33301 15.333 18.666 24 27.999l25 28h76
l-77 -91c34.667 -38 52 -87 52 -147v-360h-69z" />
    <glyph glyph-name="uni0E2B" unicode="&#xe2b;" horiz-adv-x="578" 
d="M475 0l-73 254c-18.667 66.667 -57.667 101 -117 103l-134 -110v-247h-69v559h69v-238l143 119l143 119h90l-195 -163c38 -6 68 -21.333 90 -46s38.667 -55 50 -91l37.5 -129.5l38.5 -129.5h-73z" />
    <glyph glyph-name="uni0E2C" unicode="&#xe2c;" horiz-adv-x="655" 
d="M577 0l-75.999 -0.000976562l-138 266c-8.66699 16 -15.834 32.833 -21.501 50.5s-9.5 31.5 -11.5 41.5l-13 -35c-5.33301 -14.667 -13.666 -33.667 -24.999 -57l-134 -266h-76v559h67v-325c0 -28 -0.5 -54 -1.5 -78s-3.16699 -48.667 -6.5 -74l8 -2l19.5 58.5
c6.33301 18.333 13.833 35.833 22.5 52.5l109 209h55l111 -208c9.33301 -16.667 17.5 -35.167 24.5 -55.5s13.167 -39.166 18.5 -56.499l8 1c-2.66699 25.333 -4.5 50.166 -5.5 74.499s-1.5 50.5 -1.5 78.5v201c0 36.667 -6.33301 62.334 -19 77.001s-35.334 22 -68.001 22
h-12l-10 29l129 188h71l-133 -184c36.667 -4 64 -18.333 82 -43s27 -54 27 -88v-436z" />
    <glyph glyph-name="uni0E2D" unicode="&#xe2d;" horiz-adv-x="586" 
d="M159 257c-10.667 0 -19.335 -3.66699 -26.002 -11s-10 -17 -10 -29v-29c0 -47.333 13 -82.333 39 -105s66.667 -34 122 -34c58.667 0 103.834 18.167 135.501 54.5s47.5 95.166 47.5 176.499c0 74.667 -16.167 131.667 -48.5 171s-77.833 59 -136.5 59
c-42 0 -79.667 -5.83301 -113 -17.5s-62.666 -27.167 -87.999 -46.5l-22 50c23.333 18 54.5 34.5 93.5 49.5s82.5 22.5 130.5 22.5c82 0 144.667 -26 188 -78s65 -123.333 65 -214c0 -93.333 -21.167 -164.166 -63.5 -212.499s-104.833 -72.5 -187.5 -72.5
c-77.333 0 -135 17.167 -173 51.5s-57 82.833 -57 145.5v32c0 31.333 8.5 55 25.5 71s40.5 24 70.5 24h86v-58h-78z" />
    <glyph glyph-name="uni0E2E" unicode="&#xe2e;" horiz-adv-x="586" 
d="M159 257c-10.667 0 -19.335 -3.66602 -26.002 -10.999s-10 -17 -10 -29v-29c0 -47.333 13 -82.333 39 -105s66.667 -34 122 -34c58.667 0 103.834 18.167 135.501 54.5s47.5 95.166 47.5 176.499c0 74.667 -16.167 131.667 -48.5 171s-77.833 59 -136.5 59
c-42 0 -79.667 -5.83301 -113 -17.5s-62.666 -27.167 -87.999 -46.5l-22 50c23.333 18 54.5 34.5 93.5 49.5s82.5 22.5 130.5 22.5c43.333 0 82.333 -8.66699 117 -26c7.33301 9.33301 15.333 18.666 24 27.999l25 28h76l-75 -89c28 -26.667 49.333 -59.667 64 -99
s22 -84 22 -134c0 -93.333 -21.167 -164.166 -63.5 -212.499s-104.833 -72.5 -187.5 -72.5c-77.333 0 -135 17.167 -173 51.5s-57 82.833 -57 145.5v32c0 31.333 8.5 55 25.5 71s40.5 24 70.5 24h86v-58h-78z" />
    <glyph glyph-name="uni0E2F" unicode="&#xe2f;" horiz-adv-x="536" 
d="M388 0l-0.000976562 424.999l-7 2c-6.66699 -14.667 -16 -28 -28 -40s-25.833 -22.333 -41.5 -31s-32.667 -15.5 -51 -20.5s-37.166 -7.5 -56.499 -7.5c-30 0 -55.333 4.83301 -76 14.5s-37.5 23.167 -50.5 40.5s-22.333 38 -28 62s-8.5 50.333 -8.5 79v35h66v-36
c0 -48 8.83301 -83.833 26.5 -107.5s46.167 -35.5 85.5 -35.5c22 0 43.333 4.83301 64 14.5s39.167 22.334 55.5 38.001s29.5 33.167 39.5 52.5s15 39 15 59v15h64v-559h-69z" />
    <glyph glyph-name="uni0E30" unicode="&#xe30;" horiz-adv-x="296" 
d="M133 374c-26 0 -46.499 5.83203 -61.499 17.499s-22.5 30.834 -22.5 57.501v41h64v-33c0 -10 2.16699 -17.167 6.5 -21.5s12.166 -6.5 23.499 -6.5h101v-55h-111zM133.001 89.999c-26 0 -46.499 5.49902 -61.499 16.499s-22.5 30.167 -22.5 57.5v41h64v-33
c0 -9.33301 2.16699 -16.166 6.5 -20.499s12.166 -6.5 23.499 -6.5h101v-55h-111z" />
    <glyph glyph-name="uni0E31" unicode="&#xe31;" 
d="M-190 646c-30 0 -52.833 6.66699 -68.5 20s-23.5 34 -23.5 62v35h65v-26c0 -13.333 2.83301 -22.833 8.5 -28.5s15.167 -8.5 28.5 -8.5h237v-54h-247z" />
    <glyph glyph-name="uni0E32" unicode="&#xe32;" horiz-adv-x="467" 
d="M321 0l0.000976562 363c0 50 -10.667 87 -32 111s-53.333 36 -96 36c-32 0 -61.833 -5.5 -89.5 -16.5s-51.834 -24.167 -72.501 -39.5l-17 49c9.33301 8 20.833 15.833 34.5 23.5s28.5 14.667 44.5 21s33 11.333 51 15s36 5.5 54 5.5c64 0 111.833 -18 143.5 -54
s47.5 -86.333 47.5 -151v-363h-68z" />
    <glyph glyph-name="uni0E33" unicode="&#xe33;" horiz-adv-x="467" 
d="M-119 629c-12.667 0 -24.5 2.33496 -35.5 7.00195s-20.667 11.167 -29 19.5s-14.833 18.166 -19.5 29.499s-7 23.666 -7 36.999c0 12.667 2.33301 24.667 7 36s11.167 21.333 19.5 30s18 15.334 29 20.001s22.833 7 35.5 7c26 0 48 -9 66 -27s27 -40 27 -66
c0 -26.667 -9 -48.834 -27 -66.501s-40 -26.5 -66 -26.5zM-119 672.002c13.333 0 25 4.83301 35 14.5s15 21.834 15 36.501c0 14 -5 25.667 -15 35s-21.667 14 -35 14c-12.667 0 -23.667 -4.66699 -33 -14s-14 -21 -14 -35c0 -14.667 4.66699 -26.834 14 -36.501
s20.333 -14.5 33 -14.5zM321 0.00195312v363c0 50 -10.5 87 -31.5 111s-52.833 36 -95.5 36c-32 0 -62 -5.5 -90 -16.5s-52 -24.167 -72 -39.5l-17 49c9.33301 8 20.833 15.833 34.5 23.5s28.5 14.667 44.5 21s33 11.333 51 15s36 5.5 54 5.5c63.333 0 111 -18 143 -54
s48 -86.333 48 -151v-363h-69z" />
    <glyph glyph-name="uni0E34" unicode="&#xe34;" 
d="M-502 646v54h422v-54h-422z" />
    <glyph glyph-name="uni0E35" unicode="&#xe35;" 
d="M-502 646v54h357v95h65v-149h-422z" />
    <glyph glyph-name="uni0E36" unicode="&#xe36;" 
d="M-501 646l0.000976562 54h288c-5.33301 10.667 -8 19.667 -8 27c0 23.333 7.66699 43 23 59s34.666 24 57.999 24s42.833 -8 58.5 -24s23.5 -35.667 23.5 -59s-7.83301 -42.833 -23.5 -58.5s-35.167 -23.167 -58.5 -22.5h-361zM-139.999 687c11.333 0 20.666 4 27.999 12
s11 17.667 11 29s-3.66699 20.833 -11 28.5s-16.666 11.5 -27.999 11.5c-10.667 0 -19.834 -3.83301 -27.501 -11.5s-11.5 -17.167 -11.5 -28.5s3.83301 -21 11.5 -29s16.834 -12 27.501 -12z" />
    <glyph glyph-name="uni0E37" unicode="&#xe37;" 
d="M-502 646v54h249v95h55v-97h61v97h57v-149h-422z" />
    <glyph glyph-name="uni0E38" unicode="&#xe38;" 
d="M-148 -257v94c0 17.333 -8.66699 26 -26 26h-34v56h54c25.333 0 43.833 -5.83301 55.5 -17.5s17.5 -31.5 17.5 -59.5v-99h-67z" />
    <glyph glyph-name="uni0E39" unicode="&#xe39;" 
d="M-202 -268c-40 0 -69.999 8.5 -89.999 25.5s-30 41.5 -30 73.5v34h-53v55h116v-70c0 -26 4 -44.333 12 -55s23 -16 45 -16c21.333 0 36.166 5.33301 44.499 16s12.5 29 12.5 55v70h64v-89c0 -32 -10.167 -56.5 -30.5 -73.5s-50.5 -25.5 -90.5 -25.5z" />
    <glyph glyph-name="uni0E3A" unicode="&#xe3a;" 
d="M-61 -129c0 -14.667 -5.33301 -27.334 -16 -38.001s-24.667 -16 -42 -16c-15.333 0 -28.5 5.33301 -39.5 16s-16.5 23.334 -16.5 38.001c0 15.333 5.5 28.666 16.5 39.999s24.167 17 39.5 17c17.333 0 31.333 -5.66699 42 -17s16 -24.666 16 -39.999z" />
    <glyph glyph-name="uni0E3F" unicode="&#xe3f;" horiz-adv-x="566" 
d="M278 0l-198.001 -0.000976562v650h198v101h44v-102c59.333 -4.66699 104.333 -21.834 135 -51.501s46 -68.5 46 -116.5c0 -18.667 -3.16699 -35.667 -9.5 -51s-14.5 -28.666 -24.5 -39.999s-21.167 -20.833 -33.5 -28.5s-24.5 -13.5 -36.5 -17.5v-7
c16.667 -2.66699 32.834 -7.66699 48.501 -15s29.667 -17.166 42 -29.499s22.333 -27.333 30 -45s11.5 -38.167 11.5 -61.5c0 -52.667 -17 -95.667 -51 -129s-86.667 -52 -158 -56v-102h-44v101zM277.999 58.999v248h-132v-248h132zM277.999 364.999v226h-132v-226h132z
M465.999 185.999c0 40.667 -13.168 70 -39.501 88s-61.166 28.667 -104.499 32v-246c46 4 81.5 16.5 106.5 37.5s37.5 50.5 37.5 88.5zM436.998 483.999c0 32 -10.167 56.668 -30.5 74.001s-48.5 27.666 -84.5 30.999v-224c33.333 5.33301 60.833 17.5 82.5 36.5
s32.5 46.5 32.5 82.5z" />
    <glyph glyph-name="uni0E40" unicode="&#xe40;" horiz-adv-x="236" 
d="M84 0v559h69v-559h-69z" />
    <glyph glyph-name="uni0E41" unicode="&#xe41;" horiz-adv-x="430" 
d="M84 0v559h67v-559h-67zM282 0v559h67v-559h-67z" />
    <glyph glyph-name="uni0E42" unicode="&#xe42;" horiz-adv-x="267" 
d="M110 0v618c0 30.667 -4.5 57.5 -13.5 80.5s-19.833 42.5 -32.5 58.5s-25.334 28.667 -38.001 38s-22.334 15.666 -29.001 18.999c0 2.66699 -0.333008 5.16699 -1 7.5s-1 4.5 -1 6.5c20.667 36.667 51.5 64.167 92.5 82.5s86.167 27.5 135.5 27.5
c38.667 0 69.834 -2.5 93.501 -7.5s44.834 -11.167 63.501 -18.5l-12 -57c-18.667 9.33301 -40.167 16 -64.5 20s-48.833 6 -73.5 6c-34 0 -65.167 -4.66699 -93.5 -14s-50.5 -23.666 -66.5 -42.999c36 -20 63.167 -49.167 81.5 -87.5s27.5 -80.5 27.5 -126.5v-610h-69z" />
    <glyph glyph-name="uni0E43" unicode="&#xe43;" horiz-adv-x="267" 
d="M110 0v543.997c0 30.667 7.33301 57.834 22 81.501s30 45.834 46 66.501c14 18.667 26.667 36.5 38 53.5s17 34.833 17 53.5c0 23.333 -7 42.5 -21 57.5s-37 22.5 -69 22.5c-25.333 0 -51.166 -5.16699 -77.499 -15.5s-51.166 -27.166 -74.499 -50.499
c-4 8 -7.5 15.833 -10.5 23.5l-9.5 23.5c16.667 22 41.167 40.5 73.5 55.5s66.833 22.5 103.5 22.5c25.333 0 47.666 -3.66699 66.999 -11s35.666 -17.166 48.999 -29.499s23.5 -27 30.5 -44s10.5 -35.167 10.5 -54.5c0 -24.667 -6.16699 -46.834 -18.5 -66.501
s-25.833 -39.167 -40.5 -58.5c-16.667 -22 -32 -44.833 -46 -68.5s-21 -50.5 -21 -80.5v-525h-69z" />
    <glyph glyph-name="uni0E44" unicode="&#xe44;" horiz-adv-x="267" 
d="M111 0v676.999c0 40 7.66699 76.333 23 109s37.333 60 66 82h-256v56h338v-48c-32.667 -16 -58 -39.167 -76 -69.5s-27 -67.166 -27 -110.499v-696h-68z" />
    <glyph glyph-name="uni0E45" unicode="&#xe45;" horiz-adv-x="467" 
d="M321 -202l0.000976562 565c0 50 -10.667 87 -32 111s-53.333 36 -96 36c-32 0 -61.833 -5.5 -89.5 -16.5s-51.834 -24.167 -72.501 -39.5l-17 49c9.33301 8 20.833 15.833 34.5 23.5s28.5 14.667 44.5 21s33 11.333 51 15s36 5.5 54 5.5c64 0 111.833 -18 143.5 -54
s47.5 -86.333 47.5 -151v-565h-68z" />
    <glyph glyph-name="uni0E46" unicode="&#xe46;" horiz-adv-x="556" 
d="M408 -202l-0.00292969 620.004c0 27.333 -4.66699 49.166 -14 65.499s-23.666 26.166 -42.999 29.499l-84 -60l-86 60c-21.333 -3.33301 -38.166 -11.5 -50.499 -24.5s-18.5 -29.167 -18.5 -48.5c0 -23.333 6.66699 -41.333 20 -54s31.333 -19 54 -19
c9.33301 0 18.666 1 27.999 3c1.33301 -9.33301 2.5 -17.833 3.5 -25.5s2.16699 -15.834 3.5 -24.501c-7.33301 -2 -14.666 -3.33301 -21.999 -4s-14.333 -1 -21 -1c-15.333 0 -30.5 2.33301 -45.5 7s-28.333 12 -40 22s-21.167 23 -28.5 39s-11 35 -11 57
c0 17.333 3.83301 33.166 11.5 47.499s17.834 27 30.501 38s27 20.333 43 28s32 13.167 48 16.5l80 -63l41.5 30.5l41.5 32.5c41.333 -4.66699 73 -21.667 95 -51s33 -65 33 -107v-614h-69z" />
    <glyph glyph-name="uni0E47" unicode="&#xe47;" 
d="M-176 646c-15.333 0 -29.6689 4.99707 -43.002 14.9971s-23.666 23.667 -30.999 41c-5.33301 -17.333 -15.166 -31.666 -29.499 -42.999s-32.166 -17 -53.499 -17c-16 0 -30.333 2.66699 -43 8s-23.5 12.5 -32.5 21.5s-15.833 19.5 -20.5 31.5s-7 24.333 -7 37
s2.33301 25.334 7 38.001s11.667 23.834 21 33.501s21.333 17.5 36 23.5s32 9 52 9h204v-51h-201c-20 0 -34.333 -5.5 -43 -16.5s-13 -23.5 -13 -37.5s4.33301 -25.667 13 -35s21.334 -14 38.001 -14c13.333 0 24.166 4 32.499 12s14.166 17.667 17.499 29h40
c6 -20.667 23 -31 51 -31h65v-54h-60z" />
    <glyph glyph-name="uni0E48" unicode="&#xe48;" 
d="M-145 854v125h64v-125h-64z" />
    <glyph glyph-name="uni0E49" unicode="&#xe49;" 
d="M-160 854c-26.667 0 -39.999 15.667 -39.999 47v18c0 7.33301 -1.16699 12.666 -3.5 15.999s-7.5 5 -15.5 5h-45v53h78c29.333 0 44 -17 44 -51v-17c0 -5.33301 1.16699 -9.66602 3.5 -12.999s7.16602 -5 14.499 -5h131v-53h-167z" />
    <glyph glyph-name="uni0E4A" unicode="&#xe4a;" 
d="M-127 854c-1.33301 2.66699 -1.83301 4.66895 -1.5 6.00195s-0.166992 3 -1.5 5c5.33301 7.33301 8 16.333 8 27c0 11.333 -3.16699 20 -9.5 26s-13.5 9.66699 -21.5 11l-46 -34l-46 32c-7.33301 -0.666992 -13.5 -4.66699 -18.5 -12s-7.5 -15 -7.5 -23
c0 -6.66699 0.333008 -13 1 -19s2.66699 -13 6 -21h-57c-2.66699 8 -4.5 16.167 -5.5 24.5s-1.5 16.166 -1.5 23.499c0 18.667 6.5 35.667 19.5 51s32.5 25.333 58.5 30l52 -45l47 46c23.333 -2 40.833 -9.33301 52.5 -22s17.5 -29 17.5 -49v-11
c0 -4 -0.666992 -9.33301 -2 -16c17.333 8 29 18.833 35 32.5s9 29.5 9 47.5c0 14 -2.33301 27.333 -7 40h59c0 1.33301 0.166992 1.5 0.5 0.5s0.833008 -2.16699 1.5 -3.5v1c1.33301 -4.66699 2.66602 -10 3.99902 -16s2 -13.667 2 -23c0 -13.333 -2.5 -26.333 -7.5 -39
s-12.167 -24.334 -21.5 -35.001s-21.166 -19.167 -35.499 -25.5s-30.5 -9.5 -48.5 -9.5h-35z" />
    <glyph glyph-name="uni0E4B" unicode="&#xe4b;" 
d="M-85 919c0 -10 0.333008 -20.667 1 -32s1 -22.333 1 -33h-59l2 65c-11.333 0 -23.5 -0.333008 -36.5 -1s-25.167 -1 -36.5 -1v45l73 -2c0 10.667 -0.333008 21.5 -1 32.5s-1 21.833 -1 32.5h59l-2 -65c11.333 0 23.333 0.333008 36 1s25 1 37 1v-45z" />
    <glyph glyph-name="uni0E4C" unicode="&#xe4c;" 
d="M-96 824c-29.333 0 -44 -13.667 -44 -41v-17h-67v27c0 26 8 46.667 24 62s39.333 23 70 23h88v-54h-71z" />
    <glyph glyph-name="uni0E4D" unicode="&#xe4d;" 
d="M-118 629c-25.333 0 -46.833 8.83203 -64.5 26.499s-26.5 39.834 -26.5 66.501c0 12.667 2.33301 24.667 7 36s11.167 21.333 19.5 30s18 15.334 29 20.001s22.833 7 35.5 7c26 0 48 -9 66 -27s27 -40 27 -66c0 -26.667 -9 -48.834 -27 -66.501s-40 -26.5 -66 -26.5z
M-118 671.999c14 0 25.833 4.83301 35.5 14.5s14.5 21.834 14.5 36.501c0 14 -4.83301 25.667 -14.5 35s-21.5 14 -35.5 14c-12.667 0 -23.667 -4.66699 -33 -14s-14 -21 -14 -35c0 -14.667 4.66699 -26.834 14 -36.501s20.333 -14.5 33 -14.5z" />
    <glyph glyph-name="uni0E4E" unicode="&#xe4e;" 
d="M-157 656c-7.33301 -4 -14.9971 -6.83398 -22.9971 -8.50098s-17.667 -2.5 -29 -2.5c-12.667 0 -24.834 1.5 -36.501 4.5s-22 7.83301 -31 14.5s-16.167 15 -21.5 25s-8 22 -8 36c0 10.667 2.16699 21 6.5 31s11 18.5 20 25.5s20.667 12 35 15s31.166 3.5 50.499 1.5
c-13.333 15.333 -20 29.333 -20 42c0 11.333 5.33301 21.666 16 30.999s27 14 49 14h54c1.33301 -7.33301 3.16602 -14.333 5.49902 -21s4.16602 -13.667 5.49902 -21h-50c-9.33301 0 -16.333 -2.5 -21 -7.5s-7 -10.833 -7 -17.5s2.16699 -13.167 6.5 -19.5
s10.5 -11.5 18.5 -15.5l-7 -14.5c-2 -4.33301 -4 -9.16602 -6 -14.499c-9.33301 2 -18 3.66699 -26 5s-17 2 -27 2c-16 0 -27.833 -3.16699 -35.5 -9.5s-11.5 -15.166 -11.5 -26.499s4.33301 -20.5 13 -27.5s21.334 -10.5 38.001 -10.5c6.66699 0 13.5 0.333008 20.5 1
s14.167 2 21.5 4v-36z" />
    <glyph glyph-name="uni0E4F" unicode="&#xe4f;" horiz-adv-x="546" 
d="M275 26c-29.333 0 -57 5.5 -83 16.5s-48.5 26.167 -67.5 45.5s-34 42 -45 68s-16.5 53.667 -16.5 83s5.5 56.833 16.5 82.5s26 48 45 67s41.5 34 67.5 45s53.667 16.5 83 16.5s56.833 -5.5 82.5 -16.5s48 -26 67 -45s34 -41.333 45 -67s16.5 -53.167 16.5 -82.5
s-5.5 -57 -16.5 -83s-26 -48.667 -45 -68s-41.333 -34.5 -67 -45.5s-53.167 -16.5 -82.5 -16.5zM275 51c26 0 50.333 4.83301 73 14.5s42.5 23 59.5 40s30.5 37 40.5 60s15 47.5 15 73.5s-5 50.333 -15 73s-23.5 42.5 -40.5 59.5s-36.833 30.5 -59.5 40.5s-47 15 -73 15
s-50.5 -5 -73.5 -15s-43 -23.5 -60 -40.5s-30.5 -36.833 -40.5 -59.5s-15 -47 -15 -73s5 -50.5 15 -73.5s23.5 -43 40.5 -60s37 -30.333 60 -40s47.5 -14.5 73.5 -14.5zM275 120c-16.667 0 -32.333 3.16699 -47 9.5s-27.334 14.833 -38.001 25.5s-19.167 23.167 -25.5 37.5
s-9.5 29.5 -9.5 45.5c0 16.667 3.16699 32.334 9.5 47.001s14.833 27.334 25.5 38.001s23.334 19 38.001 25s30 9 46 9c16.667 0 32.167 -3 46.5 -9s26.833 -14.333 37.5 -25s19.167 -23.167 25.5 -37.5s9.5 -29.833 9.5 -46.5s-3.16699 -32.334 -9.5 -47.001
s-14.833 -27.334 -25.5 -38.001s-23.167 -19 -37.5 -25s-29.5 -9 -45.5 -9zM275.001 160c21.333 0 39.5 7.49805 54.5 22.498s22.5 33.833 22.5 56.5c0 10 -2 19.667 -6 29s-9.5 17.5 -16.5 24.5s-15.333 12.667 -25 17s-19.834 6.5 -30.501 6.5
c-21.333 0 -39.666 -7.66699 -54.999 -23s-23 -33.666 -23 -54.999s7.66699 -39.666 23 -54.999s34 -23 56 -23z" />
    <glyph glyph-name="uni0E50" unicode="&#xe50;" horiz-adv-x="635" 
d="M320 490c36.667 0 71.1689 -5.66699 103.502 -17s60.5 -27.833 84.5 -49.5s43 -47.834 57 -78.501s21 -65.334 21 -104.001s-7 -73.5 -21 -104.5s-33 -57.167 -57 -78.5s-52.333 -37.833 -85 -49.5s-67.334 -17.5 -104.001 -17.5s-71.167 5.83301 -103.5 17.5
s-60.5 28.167 -84.5 49.5s-43 47.5 -57 78.5s-21 65.833 -21 104.5s7 73.334 21 104.001s33 56.834 57 78.501s52.167 38.167 84.5 49.5s67.166 17 104.499 17zM319.002 47c28 0 54.167 4.5 78.5 13.5s45.5 21.833 63.5 38.5s32.333 37 43 61s16 51 16 81
s-5.33301 57 -16 81s-25 44.333 -43 61s-39.167 29.334 -63.5 38.001s-50.5 13 -78.5 13c-27.333 0 -53.166 -4.33301 -77.499 -13s-45.5 -21.334 -63.5 -38.001s-32.333 -37 -43 -61s-16 -51 -16 -81s5.33301 -57 16 -81s25 -44.333 43 -61s39.167 -29.5 63.5 -38.5
s50.166 -13.5 77.499 -13.5z" />
    <glyph glyph-name="uni0E51" unicode="&#xe51;" horiz-adv-x="640" 
d="M273 -61l29.0029 -0.000976562c26.667 0 53.167 5.16699 79.5 15.5s50 26.166 71 47.499s38.167 47.833 51.5 79.5s20 69.167 20 112.5c0 36 -4.66699 68.667 -14 98s-23 54.5 -41 75.5s-40.167 37.333 -66.5 49s-56.166 17.5 -89.499 17.5
c-29.333 0 -56.333 -4.66699 -81 -14s-45.834 -22.333 -63.501 -39s-31.5 -36.5 -41.5 -59.5s-15 -47.833 -15 -74.5c0 -25.333 3.66699 -47.666 11 -66.999s17.5 -35.666 30.5 -48.999s28.333 -23.5 46 -30.5s36.834 -10.5 57.501 -10.5c13.333 0 27.166 1.5 41.499 4.5
s27.166 6.5 38.499 10.5l2 -25c0.666992 -4.66699 1.16699 -9 1.5 -13s0.5 -8.33301 0.5 -13c-24 -13.333 -52.333 -20 -85 -20c-28 0 -54.333 4.5 -79 13.5s-46.5 22.5 -65.5 40.5s-34 40.333 -45 67s-16.5 57.667 -16.5 93s6.33301 67.833 19 97.5s30.667 55.167 54 76.5
s51.333 38 84 50s68.667 18 108 18c43.333 0 82 -7.33301 116 -22s62.833 -35 86.5 -61s41.834 -57 54.501 -93s19 -75.333 19 -118c0 -47.333 -7.83301 -90 -23.5 -128s-36.834 -70.5 -63.501 -97.5s-57.834 -47.833 -93.501 -62.5s-73.834 -22 -114.501 -22h-29z" />
    <glyph glyph-name="uni0E52" unicode="&#xe52;" horiz-adv-x="745" 
d="M674 189c0 -28 -3.99902 -53.5 -11.999 -76.5s-20 -42.833 -36 -59.5s-35.5 -29.667 -58.5 -39s-49.5 -14 -79.5 -14h-224c-30 0 -56.667 4.66699 -80 14s-42.833 22.333 -58.5 39s-27.5 36.5 -35.5 59.5s-12 48.5 -12 76.5v370h67v-370c0 -46 11.333 -79.667 34 -101
s52.667 -32 90 -32h213c37.333 0 67.666 10.667 90.999 32s35 55 35 101v129c0 36.667 -6.33301 63.667 -19 81s-32 27.333 -58 30l-84 -67l-91 68c-20.667 -4 -36.5 -15 -47.5 -33s-16.5 -36.667 -16.5 -56c0 -26 8.33301 -47.333 25 -64s36.334 -28.667 59.001 -36
l-8.5 -24.5c-3 -8.33301 -6.16699 -16.5 -9.5 -24.5c-38.667 7.33301 -69.334 23.833 -92.001 49.5s-34 58.167 -34 97.5c0 42 11.5 76.167 34.5 102.5s53.5 42.5 91.5 48.5l89 -76l82 76c50.667 -5.33301 87.5 -22.833 110.5 -52.5s34.5 -70.5 34.5 -122.5v-126z" />
    <glyph glyph-name="uni0E53" unicode="&#xe53;" horiz-adv-x="658" 
d="M306 185l0.00390625 145c0 31.333 -5.33301 56.333 -16 75s-30 28 -58 28c-19.333 0 -35.5 -4.83301 -48.5 -14.5s-23.833 -23.167 -32.5 -40.5s-14.834 -37.833 -18.501 -61.5s-5.5 -49.167 -5.5 -76.5c0 -62 9.5 -109.833 28.5 -143.5s44.167 -50.5 75.5 -50.5
c16.667 0 32 2.66699 46 8l15 -45c-18 -10 -39.333 -15 -64 -15c-25.333 0 -48.333 5.83301 -69 17.5s-38.167 28.167 -52.5 49.5s-25.5 47 -33.5 77s-12 63.667 -12 101c0 36.667 3.5 70.334 10.5 101.001s17.167 57.167 30.5 79.5s30.166 39.666 50.499 51.999
s44.166 18.5 71.499 18.5c30 0 53.833 -7.5 71.5 -22.5s31.167 -34.167 40.5 -57.5c11.333 23.333 26.166 42.5 44.499 57.5s42.166 22.5 71.499 22.5c23.333 0 43.333 -4 60 -12s30.5 -19.167 41.5 -33.5s19.167 -31.166 24.5 -50.499s8 -40.333 8 -63v-331h-66v332
c0 12 -0.666992 24.167 -2 36.5s-4.5 23.166 -9.5 32.499s-12.167 17 -21.5 23s-22 9 -38 9c-29.333 0 -50.666 -9.16699 -63.999 -27.5s-20 -43.5 -20 -75.5v-145h-59z" />
    <glyph glyph-name="uni0E54" unicode="&#xe54;" horiz-adv-x="605" 
d="M517 0c-31.333 0 -56.999 3.50098 -76.999 10.501s-38.667 19.5 -56 37.5c-13.333 -16 -29.833 -29.5 -49.5 -40.5s-46.834 -16.5 -81.501 -16.5c-28.667 0 -55.167 5.66699 -79.5 17s-45.5 27.666 -63.5 48.999s-32 47 -42 77s-15 64 -15 102
c0 40 6.66699 75.333 20 106s31.833 56.167 55.5 76.5s51.667 35.833 84 46.5s67.5 16 105.5 16h110c36.667 0 61.167 6.33301 73.5 19s18.5 29 18.5 49v10h66v-10c0 -40 -12.333 -70.667 -37 -92s-61.334 -32 -110.001 -32h-120c-29.333 0 -56.166 -3.66699 -80.499 -11
s-45.333 -18.666 -63 -33.999s-31.5 -34.833 -41.5 -58.5s-15 -51.5 -15 -83.5c0 -30 4 -56.833 12 -80.5s18.667 -43.667 32 -60s29.166 -29 47.499 -38s37.833 -13.5 58.5 -13.5c22 0 40 3.33301 54 10s26.667 16 38 28c-7.33301 11.333 -13.166 24.166 -17.499 38.499
s-6.5 29.166 -6.5 44.499c0 38.667 11.667 68.834 35 90.501s52 32.5 86 32.5h61l-12 -53h-35c-21.333 0 -38.5 -7.33301 -51.5 -22s-19.5 -33.667 -19.5 -57c0 -34 10.667 -59.833 32 -77.5s52.333 -26.5 93 -26.5h49l-12 -54h-46z" />
    <glyph glyph-name="uni0E55" unicode="&#xe55;" horiz-adv-x="605" 
d="M517 0c-30.667 0 -56.334 3.16699 -77.001 9.5s-39.334 18.833 -56.001 37.5c-13.333 -16 -30 -29.333 -50 -40s-47 -16 -81 -16c-29.333 0 -56.166 5.66699 -80.499 17s-45.5 27.666 -63.5 48.999s-32 47 -42 77s-15 64 -15 102c0 59.333 14.833 108.166 44.5 146.499
s68.5 65.5 116.5 81.5c-10 16.667 -15 32.667 -15 48c0 12 2.16699 23.333 6.5 34s10.333 20 18 28s16.834 14.333 27.501 19s22 7 34 7c24.667 0 45.5 -8.33301 62.5 -25s25.5 -37.667 25.5 -63c0 -4.66699 -0.833008 -9.5 -2.5 -14.5l-5.5 -16.5h63
c36.667 0 61.167 6.33301 73.5 19s18.5 29 18.5 49v10h66v-10c0 -40 -12.333 -70.833 -37 -92.5s-61 -32.5 -109 -32.5h-121c-29.333 0 -56.166 -3.66699 -80.499 -11s-45.333 -18.666 -63 -33.999s-31.5 -34.666 -41.5 -57.999s-15 -51 -15 -83c0 -30 4 -56.833 12 -80.5
s18.833 -43.834 32.5 -60.501s29.5 -29.5 47.5 -38.5s37.333 -13.5 58 -13.5c22 0 40.167 3.5 54.5 10.5s27.166 16.167 38.499 27.5c-16 22.667 -24 50.667 -24 84c0 38.667 11.667 68.834 35 90.501s52 32.5 86 32.5h61l-13 -53h-34
c-21.333 0 -38.666 -7.33301 -51.999 -22s-20 -33.667 -20 -57c0 -34.667 10.667 -60.667 32 -78s52.666 -26 93.999 -26h49l-12 -54h-46zM284 469c12.667 0 23.167 4.33301 31.5 13s12.5 19 12.5 31c0 12.667 -4.16699 23.334 -12.5 32.001s-18.833 13 -31.5 13
c-11.333 0 -21.166 -4.33301 -29.499 -13s-12.5 -19.334 -12.5 -32.001c0 -12 4.16699 -22.333 12.5 -31s18.166 -13 29.499 -13z" />
    <glyph glyph-name="uni0E56" unicode="&#xe56;" horiz-adv-x="613" 
d="M158 230c-6.66699 -8.66699 -12 -19.165 -16 -31.498s-6 -23.5 -6 -33.5c0 -14.667 3.5 -29.167 10.5 -43.5s17.333 -27 31 -38s30.667 -19.833 51 -26.5s44.166 -10 71.499 -10c33.333 0 62.5 5 87.5 15s45.667 23.667 62 41s28.5 38.166 36.5 62.499
s12 51.166 12 80.499c0 28 -4.33301 53.5 -13 76.5s-20.667 43 -36 60s-34.166 30.167 -56.499 39.5s-46.833 14 -73.5 14c-43.333 0 -78.166 -7.83301 -104.499 -23.5s-48.5 -36.167 -66.5 -61.5h-56l-37 108.5l-37 108.5h64l54 -165
c21.333 25.333 48.166 46.166 80.499 62.499s68.166 24.5 107.499 24.5c34 0 65.667 -6 95 -18s54.833 -28.833 76.5 -50.5s38.5 -47.667 50.5 -78s18 -63.5 18 -99.5c0 -34 -5 -66.167 -15 -96.5s-25.667 -57.166 -47 -80.499s-48.666 -41.833 -81.999 -55.5
s-73 -20.5 -119 -20.5c-36 0 -68 4.5 -96 13.5s-51.833 21.333 -71.5 37s-34.667 34.5 -45 56.5s-15.5 46 -15.5 72c0 19.333 3.66699 37.5 11 54.5s16 30.5 26 40.5z" />
    <glyph glyph-name="uni0E57" unicode="&#xe57;" horiz-adv-x="801" 
d="M286 304l-0.00195312 47.999c0 22.667 -4 41.834 -12 57.501s-23.667 23.5 -47 23.5c-18 0 -33.333 -4.83301 -46 -14.5s-23 -23.167 -31 -40.5s-14 -37.833 -18 -61.5s-6 -49.167 -6 -76.5c0 -62 10 -109.833 30 -143.5s44.667 -50.5 74 -50.5
c18.667 0 34.334 2.66699 47.001 8l13 -44c-17.333 -10.667 -38.333 -16 -63 -16c-25.333 0 -48.333 5.83301 -69 17.5s-38.167 28.167 -52.5 49.5s-25.5 47 -33.5 77s-12 63.667 -12 101c0 36.667 3.66699 70.334 11 101.001s17.833 57.167 31.5 79.5
s30.5 39.666 50.5 51.999s42.667 18.5 68 18.5c26.667 0 47 -7 61 -21s24.667 -33 32 -57c10.667 24 25.167 43 43.5 57s41.166 21 68.499 21c18 0 34 -4 48 -12s25.667 -19.167 35 -33.5s16.333 -31.166 21 -50.499s7 -40.333 7 -63v-280h29
c28.667 0 51.834 9.16699 69.501 27.5s26.5 46.166 26.5 83.499v397h66v-386c0 -52 -13.5 -93.833 -40.5 -125.5s-67.833 -47.5 -122.5 -47.5h-93v332c0 12 -0.5 24.167 -1.5 36.5s-3.66699 23.166 -8 32.499s-10.666 17 -18.999 23s-19.5 9 -33.5 9
c-21.333 0 -37.833 -7.66699 -49.5 -23s-17.5 -34.666 -17.5 -57.999v-48h-57z" />
    <glyph glyph-name="uni0E58" unicode="&#xe58;" horiz-adv-x="632" 
d="M297 424c-52.667 0 -92.166 -13.832 -118.499 -41.499s-39.5 -63.5 -39.5 -107.5v-120c0 -28 8.33301 -51.5 25 -70.5s37.667 -28.833 63 -29.5l110 108l119 -107c24.667 7.33301 43.667 20.666 57 39.999s20 42 20 68c0 28 -7.66699 51 -23 69
s-34.666 29.333 -57.999 34l11 24.5c3.33301 7.66699 6.66602 15.834 9.99902 24.501c17.333 -2.66699 33.5 -8.83398 48.5 -18.501s28 -21.5 39 -35.5s19.667 -29.667 26 -47s9.5 -35.333 9.5 -54c0 -22 -4.33301 -42.667 -13 -62s-20 -36.333 -34 -51s-30 -26.667 -48 -36
s-36 -14.666 -54 -15.999l-110 102l-97 -102c-49.333 2 -89.5 16.333 -120.5 43s-46.5 64.667 -46.5 114v128c0 27.333 5 53.166 15 77.499s24.5 45.5 43.5 63.5s41.833 32.333 68.5 43s56.667 16 90 16h128c36.667 0 61.167 6.33301 73.5 19s18.5 29 18.5 49v10h66v-10
c0 -40 -12.333 -70.833 -37 -92.5s-61.334 -32.5 -110.001 -32.5h-132z" />
    <glyph glyph-name="uni0E59" unicode="&#xe59;" horiz-adv-x="616" 
d="M447 0l-119.002 341.003c-9.33301 27.333 -21.166 49.5 -35.499 66.5s-34.833 25.5 -61.5 25.5c-18 0 -34.333 -4.66699 -49 -14s-27 -22.5 -37 -39.5s-17.833 -37.167 -23.5 -60.5s-8.5 -49 -8.5 -77c0 -30.667 3.16699 -58.334 9.5 -83.001s14.833 -45.5 25.5 -62.5
s22.834 -30.167 36.501 -39.5s27.834 -14 42.501 -14c8 0 17 1.16699 27 3.5s19.667 6.16602 29 11.499l15 -45c-10.667 -6.66699 -22.167 -11.834 -34.5 -15.501s-25.5 -5.5 -39.5 -5.5c-24 0 -46.667 5.5 -68 16.5s-40 27.167 -56 48.5s-28.667 47.5 -38 78.5
s-14 66.167 -14 105.5c0 36.667 4.5 70.167 13.5 100.5s21.333 56.5 37 78.5s34.5 39.167 56.5 51.5s46 18.5 72 18.5c18 0 33.833 -2.16699 47.5 -6.5s25.5 -10 35.5 -17s18.5 -15.167 25.5 -24.5s13.5 -19.333 19.5 -30l7 2c0 25.333 7.16699 44.333 21.5 57
s31.5 19 51.5 19c22 0 40.167 -6.66699 54.5 -20s25.833 -30.333 34.5 -51l25 140h57c-6 -33.333 -12.167 -65.833 -18.5 -97.5s-12.5 -64.167 -18.5 -97.5h-48c-5.33301 21.333 -13.833 39.166 -25.5 53.499s-26.5 21.5 -44.5 21.5
c-20.667 0 -36.334 -8.16699 -47.001 -24.5s-16 -35.166 -16 -56.499l122 -358h-63z" />
    <glyph glyph-name="uni0E5B" unicode="&#xe5b;" horiz-adv-x="1135" 
d="M1118 191c-16 -5.33301 -30.332 -8.83398 -42.999 -10.501s-24.667 -2.5 -36 -2.5c-29.333 0 -55 9.66699 -77 29s-40.667 46 -56 80l-47 -163h-28l-73 203l-65 -221h-30l-67 202c-10 -35.333 -24.167 -68.666 -42.5 -99.999s-40 -58.5 -65 -81.5s-53 -41.167 -84 -54.5
s-63.833 -20 -98.5 -20c-35.333 0 -67.833 6 -97.5 18s-55.334 28.5 -77.001 49.5s-38.5 45.833 -50.5 74.5s-18 59.667 -18 93c0 32 4.83301 61.5 14.5 88.5s23.667 50.333 42 70s40.333 35 66 46s54.5 16.5 86.5 16.5c26 0 49.667 -5 71 -15s39.833 -23.333 55.5 -40
s28 -35.834 37 -57.501s14.167 -43.834 15.5 -66.501h-53c-3.33301 36.667 -16 67.334 -38 92.001s-52 37 -90 37c-24 0 -45.333 -4.83301 -64 -14.5s-34.334 -22.5 -47.001 -38.5s-22.334 -34.167 -29.001 -54.5s-10 -41.5 -10 -63.5c0 -26.667 4.83301 -51.167 14.5 -73.5
s22.834 -41.5 39.501 -57.5s36.334 -28.5 59.001 -37.5s47 -13.5 73 -13.5c43.333 0 80.833 10.667 112.5 32s58 48.166 79 80.499s37 67.833 48 106.5s17.833 75.334 20.5 110.001h34l79 -235l60 214h35l68 -202l55 180h25c8 -52 22.333 -93.167 43 -123.5
s48.334 -45.5 83.001 -45.5c8.66699 0 17.667 0.833008 27 2.5s18.666 3.83398 27.999 6.50098z" />
    <glyph glyph-name="endash" unicode="&#x2013;" horiz-adv-x="512" 
d="M480 277v-45h-445v45h445z" />
    <glyph glyph-name="emdash" unicode="&#x2014;" horiz-adv-x="989" 
d="M921 277v-45h-847v45h847z" />
    <glyph glyph-name="quoteleft" unicode="&#x2018;" horiz-adv-x="208" 
d="M143 680c-5.33301 -9.33301 -9.99902 -19.499 -13.999 -30.499s-7.5 -22 -10.5 -33s-5.33301 -21.333 -7 -31s-2.5 -17.834 -2.5 -24.501c0 -13.333 4.66699 -20 14 -20c22.667 0 34 -13.333 34 -40c0 -13.333 -3.83301 -23.833 -11.5 -31.5s-18.834 -11.5 -33.501 -11.5
c-15.333 0 -27.166 4.66699 -35.499 14s-12.5 22.666 -12.5 39.999c0 12 1.66699 25.667 5 41s7.66602 30.833 12.999 46.5s11.5 30.834 18.5 45.501s14.167 27.667 21.5 39z" />
    <glyph glyph-name="quoteright" unicode="&#x2019;" horiz-adv-x="207" 
d="M64 463c9.33301 19.333 17.667 40.333 25 63s11 41 11 55s-5 21 -15 21c-22 0 -33 13.667 -33 41c0 12.667 3.66699 23 11 31s18.666 12 33.999 12c14.667 0 26.167 -4.66699 34.5 -14s12.5 -23 12.5 -41v-4c-0.666992 -12 -2.66699 -25.5 -6 -40.5
s-7.66602 -30.333 -12.999 -46s-11.333 -30.667 -18 -45s-13.667 -26.833 -21 -37.5l-14 4zM59.001 465l5 -2l-2 -4z" />
    <glyph glyph-name="quotesinglbase" unicode="&#x201a;" horiz-adv-x="207" 
d="M64 -113c4.66699 9.33301 9.16797 19.333 13.501 30s8.16602 21.167 11.499 31.5s6 20.333 8 30s3 17.834 3 24.501c0 14 -5 21 -15 21c-22 0 -33 13.667 -33 41c0 13.333 3.66699 23.666 11 30.999s18.666 11 33.999 11c14.667 0 26.167 -4.5 34.5 -13.5
s12.5 -22.167 12.5 -39.5v-5c-0.666992 -12 -2.66699 -25.667 -6 -41s-7.66602 -30.5 -12.999 -45.5s-11.333 -29.667 -18 -44s-13.667 -26.5 -21 -36.5zM59.001 -112l5 -0.999023c-0.666992 -0.666992 -1 -1.33398 -1 -2.00098s-0.333008 -1.66699 -1 -3z" />
    <glyph glyph-name="quotedblleft" unicode="&#x201c;" horiz-adv-x="363" 
d="M300 679c-5.33301 -9.33301 -9.99902 -19.5 -13.999 -30.5s-7.66699 -22 -11 -33s-5.83301 -21.333 -7.5 -31s-2.5 -17.834 -2.5 -24.501c0 -13.333 5 -20 15 -20c22.667 0 34 -13.333 34 -40c0 -13.333 -4 -23.833 -12 -31.5s-19.333 -11.5 -34 -11.5
c-30.667 0 -46 18 -46 54c0 12.667 1.66699 26.667 5 42s7.66602 31 12.999 47s11.333 31.333 18 46s13.667 27.334 21 38.001zM143.001 679c-5.33301 -9.33301 -10.167 -19.499 -14.5 -30.499s-8 -22 -11 -33s-5.33301 -21.333 -7 -31s-2.5 -17.834 -2.5 -24.501
c0 -13.333 4.66699 -20 14 -20c22.667 0 34 -13.333 34 -40c0 -13.333 -3.66699 -23.833 -11 -31.5s-18.666 -11.5 -33.999 -11.5c-14.667 0 -26.167 4.66699 -34.5 14s-12.5 22.666 -12.5 39.999c0 12.667 1.66699 26.667 5 42s7.66602 31 12.999 47s11.333 31.333 18 46
s13.667 27.334 21 38.001z" />
    <glyph glyph-name="quotedblright" unicode="&#x201d;" horiz-adv-x="363" 
d="M64 463c9.33301 19.333 17.498 40.333 24.498 63s10.5 41 10.5 55s-4.66699 21 -14 21c-22 0 -33 13.667 -33 41c0 12.667 3.66699 23 11 31s18.333 12 33 12s26.334 -4.66699 35.001 -14s13 -23 13 -41v-4c-0.666992 -12 -2.66699 -25.5 -6 -40.5
s-7.66602 -30.333 -12.999 -46s-11.5 -30.667 -18.5 -45s-13.833 -26.833 -20.5 -37.5l-14 4zM58.998 465l5 -2l-2 -4zM220.998 463l13.998 31.5c4.66699 11 8.5 22 11.5 33s5.5 21.333 7.5 31s3 18.167 3 25.5c0 12 -5 18 -15 18c-22.667 0 -34 13.667 -34 41
c0 12.667 4.16699 23 12.5 31s19.5 12 33.5 12c14.667 0 26.334 -4.66699 35.001 -14s13 -23 13 -41c0 -12 -1.66699 -25.667 -5 -41s-7.66602 -30.833 -12.999 -46.5s-11.5 -31 -18.5 -46s-14.167 -28.167 -21.5 -39.5zM215.996 465l5 -2l-2 -4z" />
    <glyph glyph-name="quotedblbase" unicode="&#x201e;" horiz-adv-x="363" 
d="M64 -113c4.66699 9.33301 9.16504 19.333 13.498 30s8 21.167 11 31.5s5.5 20.333 7.5 30s3 17.834 3 24.501c0 14 -4.66699 21 -14 21c-22 0 -33 13.667 -33 41c0 13.333 3.66699 23.666 11 30.999s18.333 11 33 11s26.334 -4.5 35.001 -13.5s13 -22.167 13 -39.5v-5
c-0.666992 -12 -2.66699 -25.667 -6 -41s-7.66602 -30.5 -12.999 -45.5s-11.5 -29.667 -18.5 -44s-13.833 -26.5 -20.5 -36.5zM58.998 -112l5 -0.999023c-0.666992 -0.666992 -1 -1.33398 -1 -2.00098s-0.333008 -1.66699 -1 -3zM220.998 -112.999
c10 19.333 18.498 40.501 25.498 63.501s10.5 41.167 10.5 54.5c0 12.667 -5 19 -15 19c-22.667 0 -34 13.667 -34 41c0 13.333 4 23.666 12 30.999s19.333 11 34 11s26.334 -4.5 35.001 -13.5s13 -22.167 13 -39.5c0 -12.667 -1.66699 -26.667 -5 -42
s-7.66602 -31 -12.999 -47s-11.5 -31.167 -18.5 -45.5s-14.167 -26.833 -21.5 -37.5zM215.996 -111.998l5 -0.999023c-0.666992 -0.666992 -1 -1.33398 -1 -2.00098s-0.333008 -1.66699 -1 -3z" />
    <glyph glyph-name="dagger" unicode="&#x2020;" horiz-adv-x="538" 
d="M303 674v-196h173v-51h-173v-427h-65v427h-173v51h173v196h65z" />
    <glyph glyph-name="daggerdbl" unicode="&#x2021;" horiz-adv-x="538" 
d="M238 -51v197h-173v50h173v231h-173v51h173v196h65v-196h173v-51h-173v-231h173v-50h-173v-197h-65z" />
    <glyph glyph-name="bullet" unicode="&#x2022;" horiz-adv-x="306" 
d="M252 346c0 -26.667 -8.16797 -49.668 -24.501 -69.001s-41.166 -29 -74.499 -29c-32 0 -56.167 9.33301 -72.5 28s-24.5 41.334 -24.5 68.001c0 27.333 8.16699 50.333 24.5 69s40.833 28 73.5 28s57.167 -9.33301 73.5 -28s24.5 -41 24.5 -67z" />
    <glyph glyph-name="ellipsis" unicode="&#x2026;" horiz-adv-x="708" 
d="M65 43c0 14 4.33301 26 13 36s21.667 15 39 15s30.5 -5 39.5 -15s13.5 -22 13.5 -36c0 -15.333 -4.5 -27.833 -13.5 -37.5s-22.167 -14.5 -39.5 -14.5s-30.333 4.83301 -39 14.5s-13 22.167 -13 37.5zM303 43c0 14 4.5 26 13.5 36s22.167 15 39.5 15s30.5 -5 39.5 -15
s13.5 -22 13.5 -36c0 -15.333 -4.5 -27.833 -13.5 -37.5s-22.167 -14.5 -39.5 -14.5s-30.5 4.83301 -39.5 14.5s-13.5 22.167 -13.5 37.5zM542 43c0 14 4.5 26 13.5 36s22.167 15 39.5 15c16.667 0 29.667 -5 39 -15s14 -22 14 -36c0 -15.333 -4.66699 -27.833 -14 -37.5
s-22.333 -14.5 -39 -14.5c-17.333 0 -30.5 4.83301 -39.5 14.5s-13.5 22.167 -13.5 37.5z" />
    <glyph glyph-name="perthousand" unicode="&#x2030;" horiz-adv-x="1117" 
d="M540 660h56l-367 -660h-55zM99 486c0 -17.333 1.5 -33.833 4.5 -49.5s8 -29.667 15 -42s15.667 -22.166 26 -29.499s23.166 -11 38.499 -11s28.333 3.66699 39 11s19.5 17.166 26.5 29.499s12 26.333 15 42s4.5 31.834 4.5 48.501s-1.5 33 -4.5 49s-8 30.167 -15 42.5
s-15.833 22.166 -26.5 29.499s-23.667 11 -39 11s-28.166 -3.83301 -38.499 -11.5s-19 -17.667 -26 -30s-12 -26.333 -15 -42s-4.5 -31.5 -4.5 -47.5zM45 486c0 22.667 3 44.5 9 65.5s15 39.5 27 55.5s26.5 28.667 43.5 38s36.5 14 58.5 14s41.667 -4.66699 59 -14
s31.666 -22 42.999 -38s20 -34.5 26 -55.5s9 -42.833 9 -65.5c0 -23.333 -3 -45.333 -9 -66s-14.667 -39 -26 -55s-25.666 -28.667 -42.999 -38s-37 -14 -59 -14s-41.5 4.66699 -58.5 14s-31.5 22 -43.5 38s-21 34.333 -27 55s-9 42.667 -9 66zM503 164
c0 -17.333 1.5 -33.833 4.5 -49.5s8 -29.667 15 -42s15.667 -22.166 26 -29.499s23.166 -11 38.499 -11c14.667 0 27.5 3.66699 38.5 11s19.833 17.166 26.5 29.499s11.667 26.333 15 42s5 31.834 5 48.501s-1.66699 33 -5 49s-8.33301 30.167 -15 42.5
s-15.5 22.166 -26.5 29.499s-23.833 11 -38.5 11c-15.333 0 -28.166 -3.66699 -38.499 -11s-19 -17.166 -26 -29.499s-12 -26.333 -15 -42s-4.5 -31.834 -4.5 -48.501zM449 164c0 22.667 3 44.5 9 65.5s15 39.5 27 55.5s26.5 28.667 43.5 38s36.5 14 58.5 14
s41.667 -4.66699 59 -14s31.833 -22 43.5 -38s20.5 -34.5 26.5 -55.5s9 -42.833 9 -65.5c0 -23.333 -3 -45.333 -9 -66s-14.833 -39 -26.5 -55s-26.167 -28.667 -43.5 -38s-37 -14 -59 -14s-41.5 4.66699 -58.5 14s-31.5 22 -43.5 38s-21 34.333 -27 55s-9 42.667 -9 66z
M856 164c0 -17.333 1.5 -33.833 4.5 -49.5s8 -29.667 15 -42s15.833 -22.166 26.5 -29.499s23.667 -11 39 -11c14.667 0 27.5 3.66699 38.5 11s19.833 17.166 26.5 29.499s11.667 26.333 15 42s5 31.834 5 48.501s-1.66699 33 -5 49s-8.33301 30.167 -15 42.5
s-15.5 22.166 -26.5 29.499s-23.833 11 -38.5 11c-15.333 0 -28.333 -3.66699 -39 -11s-19.5 -17.166 -26.5 -29.499s-12 -26.333 -15 -42s-4.5 -31.834 -4.5 -48.501zM803 164c0 22.667 3 44.5 9 65.5s14.833 39.5 26.5 55.5s26.167 28.667 43.5 38s37 14 59 14
s41.5 -4.66699 58.5 -14s31.333 -22 43 -38s20.5 -34.5 26.5 -55.5s9 -42.833 9 -65.5c0 -23.333 -3 -45.333 -9 -66s-14.833 -39 -26.5 -55s-26 -28.667 -43 -38s-36.5 -14 -58.5 -14s-41.667 4.66699 -59 14s-31.833 22 -43.5 38s-20.5 34.333 -26.5 55s-9 42.667 -9 66z
" />
    <glyph glyph-name="guilsinglleft" unicode="&#x2039;" horiz-adv-x="273" 
d="M98 241l128 -178h-54l-64 89l-63 89l63.5 88.5l63.5 88.5h53z" />
    <glyph glyph-name="guilsinglright" unicode="&#x203a;" horiz-adv-x="272" 
d="M48 418h52l130 -177l-65 -89.5l-65 -88.5h-52l127 178z" />
    <glyph glyph-name="fraction" unicode="&#x2044;" horiz-adv-x="429" 
d="M363 660h56l-367 -660h-54z" />
    <glyph glyph-name="Euro" unicode="&#x20ac;" horiz-adv-x="565" 
d="M49 246l11.999 37.0059h67c-1.33301 8.66699 -2 17.5 -2 26.5v27.5c0 5.33301 0.166992 11.666 0.5 18.999s0.833008 14.333 1.5 21l-79 3c2 7.33301 4 13.833 6 19.5s4 11.834 6 18.501h72c6 38 16 73.167 30 105.5s31.833 60.333 53.5 84s46.667 42.167 75 55.5
s59.833 20 94.5 20c32 0 58 -4.5 78 -13.5s38.667 -21.167 56 -36.5l-8 -25l-9 -29c-14.667 13.333 -31.167 23.666 -49.5 30.999s-39.166 11 -62.499 11c-52.667 0 -95 -18.333 -127 -55s-53.333 -86 -64 -148h229l-5 -16c-1.33301 -3.33301 -2.5 -6.83301 -3.5 -10.5
s-2.16699 -7.5 -3.5 -11.5h-221c-0.666992 -6.66699 -1 -13.834 -1 -21.501v-21.5v-28c0 -8.66699 0.666992 -17.334 2 -26.001h231c-1.33301 -2.66699 -2.5 -5.83398 -3.5 -9.50098s-1.83301 -6.83398 -2.5 -9.50098l-5 -18h-214c12 -60.667 34.833 -108.167 68.5 -142.5
s75.167 -51.5 124.5 -51.5c23.333 0 44.5 3.66699 63.5 11s36.167 17.666 51.5 30.999l9 -27l9 -28c-17.333 -15.333 -36.5 -27.166 -57.5 -35.499s-47.833 -12.5 -80.5 -12.5c-34 0 -65.167 6.16699 -93.5 18.5s-53.5 29.833 -75.5 52.5s-40.667 49.667 -56 81
s-26.333 65.666 -33 102.999h-84zM43.999 246.006h5l-1 -5z" />
    <glyph glyph-name="afii61289" unicode="&#x2113;" horiz-adv-x="394" 
d="M188 152c0 -38 4.83105 -64.6641 14.498 -79.9971s27.5 -23 53.5 -23c17.333 0 34 2.66699 50 8l16 -50c-9.33301 -4.66699 -19.666 -8.33398 -30.999 -11.001s-23.666 -4 -36.999 -4c-50 0 -84.833 13 -104.5 39s-29.5 66.667 -29.5 122v46
c-13.333 -10 -25.166 -18.333 -35.499 -25l-30.5 -19c-2.66699 -2.66699 -5.33398 -4.83398 -8.00098 -6.50098l-9 -5.5l-11 17l-10 16c18 10.667 36 22.167 54 34.5s34.667 25.5 50 39.5v228c0 74.667 11.333 130.334 34 167.001s54 55 94 55c34 0 61.5 -12.5 82.5 -37.5
s31.5 -62.833 31.5 -113.5c0 -62.667 -14.5 -119.834 -43.5 -171.501s-72.5 -98.834 -130.5 -141.501v-84zM187.998 294.003c41.333 36 70.001 75 86.001 117s24 88 24 138c0 38 -4.33301 64.833 -13 80.5s-20.667 23.5 -36 23.5c-10.667 0 -19.834 -2.83301 -27.501 -8.5
s-14 -15.334 -19 -29.001s-8.66699 -31.667 -11 -54s-3.5 -50.166 -3.5 -83.499v-184z" />
    <glyph glyph-name="trademark" unicode="&#x2122;" horiz-adv-x="774" 
d="M182 636l-0.000976562 -337h-46v337c-17.333 0 -36.166 -0.166992 -56.499 -0.5s-39.5 -0.5 -57.5 -0.5v39h276v-39zM551.999 400c2.66699 10.667 5.83398 20.498 9.50098 29.498s7.5 17.167 11.5 24.5c0.666992 2 1.66699 4.33301 3 7s2.33301 5.33398 3 8.00098v-1
l90 206h57v-375h-45v228c0 6.66699 0.166992 14.334 0.5 23.001s0.833008 16.667 1.5 24c0.666992 3.33301 1.16699 7.33301 1.5 12s0.5 8.66699 0.5 12l-7 1l-14 -31l-14 -34v1l-76 -173h-51l-77 173c-6 13.333 -10.833 25.5 -14.5 36.5s-6.5 20.167 -8.5 27.5l-8 -1
c-0.666992 -10 -0.666992 -21.5 0 -34.5s1 -25.167 1 -36.5v-228h-46v375h58l90 -206v1l6 -15c3.33301 -7.33301 6.66602 -15.333 9.99902 -24s6.33301 -17.667 9 -27z" />
    <glyph glyph-name="Omega" unicode="&#x2126;" horiz-adv-x="745" 
d="M376 620c-72.667 0 -130.166 -21.833 -172.499 -65.5s-63.5 -105.834 -63.5 -186.501c0 -37.333 6 -72.666 18 -105.999s27 -63.666 45 -90.999s37.167 -51.666 57.5 -72.999s39.166 -38.666 56.499 -51.999v-46h-207v59h134c-16 14.667 -34 32.5 -54 53.5
s-38.667 45.167 -56 72.5s-31.833 57.666 -43.5 90.999s-17.5 69.333 -17.5 108c0 45.333 7 86.5 21 123.5s34 68.5 60 94.5s57.5 46 94.5 60s78.833 21 125.5 21s88.667 -7 126 -21s69.166 -34 95.499 -60s46.5 -57.5 60.5 -94.5s21 -78.167 21 -123.5
c0 -38.667 -5.83301 -74.667 -17.5 -108s-26.334 -63.666 -44.001 -90.999s-36.5 -51.5 -56.5 -72.5s-38 -38.833 -54 -53.5h133v-59h-206v46c16.667 13.333 35.334 30.666 56.001 51.999s39.834 45.666 57.501 72.999s32.5 57.666 44.5 90.999s18 68.666 18 105.999
c0 80.667 -20.833 142.834 -62.5 186.501s-98.167 65.5 -169.5 65.5z" />
    <glyph glyph-name="estimated" unicode="&#x212e;" horiz-adv-x="818" 
d="M785 313l-617 -0.000976562v-192c6 -7.33301 16.667 -17.5 32 -30.5s33.833 -25.667 55.5 -38s45.834 -23.166 72.501 -32.499s54 -14 82 -14c28.667 0 56.167 4 82.5 12s50 17.667 71 29s39.167 23.666 54.5 36.999s27 25 35 35h62
c-38 -44.667 -83.5 -77.834 -136.5 -99.501s-108.833 -32.5 -167.5 -32.5c-51.333 0 -99.666 8.16699 -144.999 24.5s-84.833 39.333 -118.5 69s-60.334 65 -80.001 106s-29.5 86.5 -29.5 136.5c0 48.667 9.83301 93.667 29.5 135s46.334 76.833 80.001 106.5
s73.167 52.834 118.5 69.501s93.666 25 144.999 25s99.666 -8.16699 144.999 -24.5s85 -39.166 119 -68.499s60.833 -64 80.5 -104s29.5 -83.667 29.5 -131v-18zM655 521.999c-8 10.667 -19.6689 22.833 -35.002 36.5s-33.666 26.5 -54.999 38.5s-45.166 22 -71.499 30
s-54.166 12 -83.499 12c-28 0 -55.333 -4.66699 -82 -14s-50.834 -20.333 -72.501 -33s-40.167 -25.5 -55.5 -38.5s-26 -23.167 -32 -30.5v-190h487v189z" />
    <glyph glyph-name="partialdiff" unicode="&#x2202;" horiz-adv-x="593" 
d="M300 370c-30 0 -56.6641 -6.16699 -79.9971 -18.5s-43 -28.5 -59 -48.5s-28.167 -42.833 -36.5 -68.5s-12.5 -51.5 -12.5 -77.5c0 -36 9.5 -63.5 28.5 -82.5s46.167 -28.5 81.5 -28.5c23.333 0 46.666 5.66699 69.999 17s45 27.333 65 48s38.167 45.667 54.5 75
s29.166 62.333 38.499 99c-14 22 -33.333 41.667 -58 59s-55.334 26 -92.001 26zM342.003 604c-24.667 0 -46.999 -2.5 -66.999 -7.5s-39 -12.167 -57 -21.5l-8 49c17.333 10.667 38.833 19.167 64.5 25.5s51.167 9.5 76.5 9.5c64 0 112.833 -18.167 146.5 -54.5
s50.5 -87.5 50.5 -153.5c0 -30 -3.16699 -62.167 -9.5 -96.5s-15.833 -68.5 -28.5 -102.5s-28.167 -66.667 -46.5 -98s-39.666 -59.166 -63.999 -83.499s-51.333 -43.666 -81 -57.999s-62.167 -21.5 -97.5 -21.5c-61.333 0 -106.333 15 -135 45s-43 70 -43 120
c0 33.333 6.33301 66.166 19 98.499s30.167 61.166 52.5 86.499s49.166 45.833 80.499 61.5s66 23.5 104 23.5c22 0 42 -2.83301 60 -8.5s33.667 -13 47 -22s25 -18.833 35 -29.5s18 -21 24 -31c10 44 15 83 15 117c0 49.333 -11.833 87 -35.5 113s-57.834 39 -102.501 39z
" />
    <glyph glyph-name="Delta" unicode="&#x2206;" horiz-adv-x="622" 
d="M312 566l-193 -513h385zM588 0h-551l263 674h24z" />
    <glyph glyph-name="product" unicode="&#x220f;" horiz-adv-x="607" 
d="M93 674h424v-723h-69v660h-286v-660h-69v723z" />
    <glyph glyph-name="summation" unicode="&#x2211;" horiz-adv-x="542" 
d="M43 -50v31l262 335l-55 73.5l-66 88l-66.5 88.5l-55.5 74v34h418v-50h-337l115 -153.5l115 -153.5l-247 -317h374v-50h-457z" />
    <glyph glyph-name="minus" unicode="&#x2212;" horiz-adv-x="566" 
d="M491 310v-54h-413v54h413z" />
    <glyph glyph-name="radical" unicode="&#x221a;" horiz-adv-x="519" 
d="M23 360v51h122l105 -360l177 623h59l-198 -686h-71l-112 372h-82z" />
    <glyph glyph-name="infinity" unicode="&#x221e;" horiz-adv-x="761" 
d="M357 311c-19.333 29.333 -41.666 52.667 -66.999 70s-52 26 -80 26c-32.667 0 -57.334 -9.66699 -74.001 -29s-25 -42 -25 -68c0 -30.667 9.5 -55.334 28.5 -74.001s43.167 -28 72.5 -28s56.5 9.83301 81.5 29.5s46.167 42.834 63.5 69.501v4zM653 310.001
c0 26 -8.00098 48.6689 -24.001 68.002s-41.333 29 -76 29c-30 0 -56.333 -8.66699 -79 -26s-45 -41.333 -67 -72c19.333 -31.333 41.5 -56 66.5 -74s51.833 -27 80.5 -27c16.667 0 31.334 2.83301 44.001 8.5s23 13.167 31 22.5s14 20.166 18 32.499s6 25.166 6 38.499z
M707.999 311.003c0 -20.667 -3.50195 -39.835 -10.502 -57.502s-17 -33 -30 -46s-28.667 -23.167 -47 -30.5s-38.833 -11 -61.5 -11c-36.667 0 -70 10 -100 30s-55 45 -75 75c-23.333 -28 -49.5 -52.5 -78.5 -73.5s-62.167 -31.5 -99.5 -31.5
c-43.333 0 -79 12.833 -107 38.5s-42 60.5 -42 104.5c0 20.667 3.66699 39.667 11 57s17.666 32.333 30.999 45s29.166 22.334 47.499 29.001s38.5 10 60.5 10c19.333 0 37.5 -2.83301 54.5 -8.5s32.667 -13.167 47 -22.5s27.5 -20.166 39.5 -32.499s23 -25.5 33 -39.5
c8.66699 10.667 18.834 22.167 30.501 34.5s24.834 23.5 39.501 33.5s30.834 18.333 48.501 25s36.834 10 57.501 10c21.333 0 41.166 -3.33301 59.499 -10s34.333 -16.167 48 -28.5s24.334 -27 32.001 -44s11.5 -35.833 11.5 -56.5z" />
    </font>
</defs>
</svg>
